<?xml version="1.0" encoding="UTF-8"?>
<svg id="Layer_2" data-name="Layer 2" xmlns="http://www.w3.org/2000/svg" viewBox="0 0 1266.95 333.24">
  <defs>
    <style>
      .cls-1 {
        fill: #fff;
        stroke-width: 0px;
      }
    </style>
  </defs>
  <g id="Layer_1-2" data-name="Layer 1">
    <g id="JXYIax.tif">
      <g>
        <path class="cls-1" d="M139.5,0c-4.58,11.41-9.02,22.87-13.76,34.21C85.33,130.89,44.86,227.54,4.4,324.19c-.91,2.18-1.95,4.31-4.4,6.06V0C46.5,0,93,0,139.5,0Z"/>
        <path class="cls-1" d="M377.04,0c.14,2.28.39,4.57.4,6.85.02,105.66.02,211.32.02,316.98,0,2.05,0,4.11,0,6.16-.55.15-1.1.3-1.65.46C329.72,220.3,283.63,110.15,237.54,0c46.5,0,93,0,139.5,0Z"/>
        <path class="cls-1" d="M992.27,59.96h34.36v61.78c4.76-.86,8.37-1.54,11.99-2.17,40-6.99,74,15.88,79.82,53.68,7.15,46.4-23.78,85.79-70.77,90.06-16.41,1.49-32.56-.07-48.56-3.99-5.29-1.3-7.53-3.64-7.51-9.4.19-61.14.11-122.29.14-183.43,0-2.02.32-4.03.53-6.53ZM1027.38,151.46v81.44c1.36.47,2.31.94,3.31,1.11,30.56,5.11,53.96-15.09,53.31-45.98-.67-31.7-27.06-49-56.62-36.57Z"/>
        <path class="cls-1" d="M761.35,118.9v-58.83h34.41v8.2c0,51.57-.04,103.14.04,154.7.01,7.92.44,15.85.98,23.75.24,3.58-.54,5.86-4.17,7.29-23.11,9.07-46.93,13-71.38,7.72-39.18-8.46-54.74-40.02-52-74.71,3.08-38.91,31.61-65.69,70.93-68.07,6.66-.4,13.36-.06,21.19-.06ZM761.03,231.29v-81.15c-14.22-6.62-36.81-.53-47.43,12.54-11.86,14.58-12.32,41.77-.96,56.97,9.76,13.06,31.39,18.44,48.39,11.64Z"/>
        <path class="cls-1" d="M550.34,75.04c12.75,0,25.5-.24,38.22.26,1.84.07,4.35,3.39,5.19,5.7,16.73,45.91,33.26,91.89,49.83,137.85,4.04,11.2,8.1,22.39,12.08,33.6.82,2.3,1.35,4.69,2.46,8.62-6.88,0-12.8,0-18.72,0q-17.76,0-23.55-16.7c-3.15-9.07-6.42-18.11-9.42-27.23-1.12-3.42-2.76-5.05-6.67-5.02-19.05.18-38.11.17-57.16,0-3.84-.03-5.61,1.42-6.73,4.92-4.03,12.52-8.51,24.9-12.32,37.48-1.57,5.17-4.25,6.88-9.48,6.64-8.3-.37-16.62-.1-26.14-.1.93-3.75,1.39-6.51,2.3-9.11,18.12-51.62,36.36-103.2,54.38-154.85,2.38-6.82,3.67-14.02,5.74-22.08ZM571.04,105.58c-8.14,25.58-15.9,49.96-23.81,74.8h47.97c-8.07-25-15.92-49.3-24.16-74.8Z"/>
        <path class="cls-1" d="M277.88,333.24h-58.77c-2.28-5.69-4.61-11.46-6.91-17.23-5.78-14.56-11.69-29.06-17.21-43.71-1.58-4.2-3.81-5.68-8.27-5.62-16.75.23-33.5.09-50.25.09-2.47,0-4.93,0-9.06,0,20.51-48.27,40.51-95.33,60.51-142.39.61-.03,1.21-.06,1.82-.1,29.28,69.42,58.57,138.83,88.15,208.96Z"/>
        <path class="cls-1" d="M893.71,263.89c-48.55-.26-69.64-39.24-67.49-77.57.35-6.2,1.46-12.47,3.13-18.45,9.28-33.27,37.18-51.72,73.55-48.97,30.6,2.31,54.19,25.83,58.69,58.26,1.86,13.45,1.1,26.67-2.86,39.63-9.05,29.62-33.95,47.58-65.02,47.11ZM928.61,192.16c-1.67-10.92-3.04-21.21-8.81-30.36-12.05-19.1-39.92-19.54-51.22-.06-11.06,19.06-11.07,39.41.12,58.39,12.26,20.79,41.99,19.29,52.54-2.45,3.81-7.85,4.99-16.98,7.37-25.52Z"/>
        <path class="cls-1" d="M1177.76,199.35c-.83,14.74,8.4,27.54,23.05,32.16,15.77,4.98,31.45,3.06,46.97-1.55,2.37-.7,4.69-1.54,8.2-2.7,0,9.25.21,17.66-.21,26.05-.07,1.35-2.7,3.09-4.48,3.75-23.59,8.8-47.47,9.97-71.16.89-15.66-6-26.41-17.66-32.27-33.23-9.14-24.26-8.36-48.44,3.37-71.67,14.85-29.43,49.51-42.6,80.31-30.54,23.68,9.27,34.19,28.56,35.02,52.53.92,26.75,2.19,23.51-22.5,24.13-19.67.49-39.36.13-59.05.15-2.27,0-4.55,0-7.25,0ZM1178.12,173.76h55.26c1.54-14.72-9.12-26.56-24.09-27.36-17.07-.92-31.15,11.27-31.17,27.36Z"/>
      </g>
    </g>
  </g>
</svg>