<?xml version="1.0" encoding="UTF-8"?>
<svg id="Layer_2" data-name="Layer 2" xmlns="http://www.w3.org/2000/svg" viewBox="0 0 1367.52 273.5">
  <defs>
    <style>
      .cls-1 {
        fill: #fff;
      }
    </style>
  </defs>
  <g id="Layer_1-2" data-name="Layer 1">
    <g>
      <path class="cls-1" d="M240.68,109.4h0c-2.19-29.54-16.41-57.44-38.29-77.68C179.97,11.49,150.97,0,120.89,0S61.26,11.49,38.84,31.73C16.96,51.97,2.74,79.32.55,109.4c-.55,3.28-.55,6.56-.55,10.39,0,26.8,9.3,53.06,26.26,74.39,16.96,21.33,40.48,36.1,67.28,42.12l27.35,37.2,27.35-37.2c26.8-6.02,50.32-20.79,67.28-42.12,16.96-21.33,26.26-47.59,26.26-74.39-.55-3.28-.55-7.11-1.09-10.39ZM111.59,182.7c0,.55-.55.55-1.09,1.09-.55,0-1.09.55-1.64.55s-1.09,0-1.64-.55l-44.31-25.71c-1.64-1.09-3.28-2.19-4.38-4.38-1.09-1.64-1.64-3.83-1.64-5.47v-49.78c0-.55,0-1.09.55-1.64,0-.55.55-.55,1.09-1.09.55,0,1.09-.55,1.64-.55s1.09,0,1.64.55l44.31,25.71c1.64,1.09,3.28,2.19,4.38,4.38,1.09,1.64,1.64,3.83,1.64,5.47v49.78c0,.55,0,1.09-.55,1.64ZM120.89,108.31c-2.19,0-3.83-.55-5.47-1.64l-45.4-26.26c-.55,0-.55-.55-1.09-1.09,0-.55-.55-1.09-.55-1.64s0-1.09.55-1.64c0-.55.55-.55,1.09-1.09l44.85-25.71c1.64-1.09,3.83-1.64,5.47-1.64,2.19,0,3.83.55,5.47,1.64l45.4,26.26c.55,0,.55.55,1.09,1.09,0,.55.55,1.09.55,1.64s0,1.09-.55,1.64c0,.55-.55.55-1.09,1.09l-45.4,26.26c-1.09.55-3.28,1.09-4.92,1.09ZM183.79,148.24c0,2.19-.55,3.83-1.64,5.47s-2.19,3.28-4.38,4.38l-44.31,25.71c-.55,0-1.09.55-1.64.55s-1.09,0-1.64-.55c-.55,0-.55-.55-1.09-1.09,0-.55-.55-1.09-.55-1.64v-49.78c0-2.19.55-3.83,1.64-5.47,1.09-1.64,2.19-3.28,4.38-4.38l44.31-25.71c.55,0,1.09-.55,1.64-.55s1.09,0,1.64.55c.55,0,.55.55,1.09,1.09,0,.55.55,1.09.55,1.64,0,0,0,49.78,0,49.78Z"/>
      <path class="cls-1" d="M408.07,88.62c-3.83-4.38-8.21-7.66-14.22-10.94-7.66-3.83-16.96-6.02-26.8-6.02-10.94,0-21.33,2.19-30.63,6.56-8.75,4.38-16.96,9.85-22.97,16.96-6.02,7.11-10.94,14.77-14.77,22.97-3.28,8.21-4.92,16.96-4.92,25.71s1.64,17.5,4.92,26.26c3.28,8.75,7.66,16.41,14.22,22.97,6.02,6.56,13.68,12.58,22.43,16.41,8.75,4.38,19.15,6.56,30.63,6.56,9.3,0,18.6-1.64,26.26-5.47,6.56-2.74,12.03-7.11,16.41-11.49v14.22h32.82V74.94h-32.82v13.68h-.55ZM405.88,160.82c-2.19,4.92-4.92,9.3-8.75,13.13-3.83,3.83-8.21,6.56-13.13,8.75-4.92,2.19-9.85,3.28-15.32,3.28s-10.94-1.09-15.86-3.28c-4.92-2.19-9.3-4.92-13.13-8.75-3.83-3.83-6.56-8.21-8.75-13.13-2.19-4.92-3.28-10.39-3.28-16.41s1.09-11.49,3.28-16.41c2.19-4.92,4.92-9.3,8.75-13.13,3.83-3.83,8.21-6.56,13.13-8.75,4.92-2.19,10.39-3.28,15.86-3.28s10.39,1.09,15.32,3.28c4.92,2.19,9.3,4.92,13.13,8.75,3.83,3.83,6.56,8.21,8.75,13.13,2.19,4.92,3.28,10.39,3.28,16.41,0,6.02-1.09,10.94-3.28,16.41h0Z"/>
      <path class="cls-1" d="M1177.71,28.44c-4.92,0-9.3,1.64-13.13,5.47-3.28,3.28-5.47,7.66-5.47,13.13s1.64,9.3,5.47,13.13c3.83,3.28,7.66,5.47,13.13,5.47,4.92,0,9.3-1.64,13.13-5.47,3.83-3.28,5.47-7.66,5.47-13.13s-1.64-9.3-5.47-13.13c-3.28-3.83-7.66-5.47-13.13-5.47h0Z"/>
      <path class="cls-1" d="M1195.21,74.94h-33.37v138.39h33.37V74.94Z"/>
      <path class="cls-1" d="M1362.6,117.61c-3.28-8.75-8.21-16.41-14.22-22.97-6.02-6.56-13.68-12.58-22.43-16.41-8.75-4.38-19.15-6.56-30.63-6.56-9.3,0-18.05,1.64-26.26,5.47-6.02,2.74-11.49,6.56-16.41,11.49v-13.13h-32.82v183.79h33.37v-59.08c3.83,3.83,8.21,7.66,13.68,10.39,7.66,3.83,16.96,6.02,27.35,6.02,10.94,0,21.33-2.19,30.63-6.56,9.3-4.38,16.96-9.85,22.97-16.96,6.02-7.11,10.94-14.77,14.77-23.52,3.28-8.75,4.92-16.96,4.92-25.71s-1.64-17.5-4.92-26.26h0ZM1329.23,159.73c-2.19,4.92-4.92,9.3-8.75,13.13-3.83,3.83-8.21,6.56-13.13,8.75s-9.85,3.28-15.32,3.28-10.39-1.09-15.32-3.28c-4.92-2.19-9.3-4.92-12.58-8.75-3.83-3.83-6.56-8.21-8.75-13.13-2.19-4.92-3.28-10.39-3.28-15.86s1.09-10.94,3.28-15.86c2.19-4.92,4.92-9.3,8.75-13.13,3.83-3.83,8.21-6.56,12.58-8.75,4.92-2.19,9.85-3.28,15.32-3.28s10.39,1.09,15.32,3.28c4.92,2.19,9.3,4.92,13.13,8.75,3.83,3.83,6.56,8.21,8.75,13.13,2.19,4.92,3.28,10.39,3.28,15.86,0,6.02-1.09,11.49-3.28,15.86h0Z"/>
      <path class="cls-1" d="M512,51.97c0-8.75,6.56-18.6,17.5-18.6,4.38,0,7.11.55,10.39,1.64l16.96-27.9-1.64-.55c-6.02-2.19-15.32-3.83-23.52-3.83-16.96,0-30.63,5.47-40.48,15.86-8.21,8.75-12.58,21.33-12.58,35.01v20.79h-19.15v32.27h19.69v106.67h32.82v-105.57h30.09v-32.27h-30.09v-23.52h0Z"/>
      <path class="cls-1" d="M882.32,76.03c-4.38-2.74-10.39-4.38-16.96-4.38s-12.03,1.64-16.96,5.47c-2.19,1.64-4.38,3.83-6.56,6.02v-7.66h-32.82v137.85h32.82v-90.8c0-5.47,2.19-9.85,6.02-13.13,3.83-3.28,7.66-4.92,12.58-4.92,1.09,0,2.74.55,4.92,1.09.55,0,1.64.55,2.19,1.09l16.96-28.99v-.55l-2.19-1.09h0Z"/>
      <path class="cls-1" d="M999.93,164.65c-2.74-11.49-10.39-20.79-21.88-26.26-8.75-4.38-18.05-6.02-27.35-7.66-7.11-1.64-14.22-2.74-19.69-4.92-3.83-1.64-6.02-3.28-7.66-6.02-2.74-4.38,0-8.75,0-9.3,3.28-5.47,10.94-8.21,18.05-8.21,8.21,0,15.32,2.19,21.33,7.11,3.83,2.74,6.02,6.02,6.56,7.11l1.09,1.64,29.54-15.86-1.09-1.64c-1.64-2.74-5.47-8.75-12.58-14.22-8.21-7.11-22.97-15.86-44.85-15.86-9.85,0-19.69,2.19-27.9,6.56-7.66,4.38-14.22,9.85-18.6,16.96-8.21,13.13-8.75,28.44-1.09,41.03,4.38,7.66,11.49,13.13,20.24,16.96,7.66,3.28,16.96,4.92,24.62,6.56,1.64.55,3.28.55,4.38,1.09,8.75,1.64,15.86,3.83,19.69,5.47,2.74,1.09,4.38,3.28,4.38,5.47.55,3.28-1.09,6.56-1.64,7.66-5.47,5.47-13.13,7.66-22.43,6.56-6.56-1.09-13.68-3.83-19.15-8.75-5.47-4.38-8.75-9.85-8.75-9.85l-27.35,14.22-1.64,1.09,1.09,1.64c1.09,1.64,5.47,8.75,13.13,15.32,17.5,15.32,36.65,16.96,44.31,16.96h.55c9.3,0,18.05-1.64,25.71-4.38,7.66-2.74,14.22-7.11,19.15-12.58,9.3-9.3,12.58-21.33,9.85-33.91h0Z"/>
      <path class="cls-1" d="M717.67,70.56c-40.48,0-73.3,32.82-73.3,72.75s32.82,72.75,73.3,72.75c25.71,0,48.14-13.13,61.26-32.82l-27.35-15.86c-7.66,10.39-19.69,17.5-33.91,17.5-18.05,0-33.91-11.49-39.38-27.9h111.59c1.09-4.38,1.09-8.75,1.09-13.68,0-39.93-32.82-72.75-73.3-72.75h0ZM677.2,133.47c.55-2.74,2.74-7.66,2.74-8.21v-.55c7.11-13.13,20.79-22.43,37.2-22.43h0c19.69,0,35.56,13.13,40.48,31.18,0,0-80.41,0-80.41,0Z"/>
      <path class="cls-1" d="M1081.43,71.66c-13.13,0-21.33,2.74-30.63,9.3V28.99h-32.27v183.79h32.27v-85.33c0-15.32,15.86-24.62,30.63-24.07,9.3,0,23.52,9.85,24.62,25.16v84.79h33.37v-81.5c-.55-35.01-22.97-60.17-57.98-60.17Z"/>
      <path class="cls-1" d="M611.01,212.79v-104.48h24.07v-32.82h-24.07v-27.9h-32.27v27.9h-20.24v32.82h20.24v105.03l32.27-.55Z"/>
    </g>
  </g>
</svg>