<?xml version="1.0" encoding="UTF-8"?>
<svg id="Layer_2" data-name="Layer 2" xmlns="http://www.w3.org/2000/svg" viewBox="0 0 1278.76 385.03">
  <defs>
    <style>
      .cls-1 {
        fill: #fff;
        stroke-width: 0px;
      }
    </style>
  </defs>
  <g id="Layer_1-2" data-name="Layer 1">
    <g id="j6FFWO.tif">
      <g>
        <path class="cls-1" d="M621.51,0c7.17,1.28,14.49,2.02,21.46,3.99,6.82,1.93,13.62,4.5,19.82,7.89,17.26,9.44,26.18,24.66,27.71,43.98.93,11.73.93,23.56,1.02,35.34.15,19.44.17,38.88,0,58.32-.1,10.53,2.9,19.92,8.98,28.43,2.13,2.97,4.39,5.86,6.29,8.97,2.72,4.46,2.37,7.18-1.47,10.56-9.49,8.35-19.02,16.65-28.68,24.8-4.46,3.76-8.86,3.79-12.92-.32-5.71-5.76-10.94-12-16.28-18.11-1.39-1.59-2.46-3.47-4-5.67-1.75,1.59-3.2,2.87-4.6,4.19-10.53,9.92-21.95,18.34-36.45,21.55-14.64,3.24-29.3,3.92-43.88-.29-21.87-6.31-35.69-23.13-39.06-47.38-1.63-11.69-.9-23.2,2.65-34.44,7.43-23.51,24.27-37.46,46.95-45.11,13.6-4.58,27.76-6.55,41.98-8.1,6.77-.74,13.55-1.44,20.33-2.06,2.76-.26,4.21-1.29,3.99-4.36-.42-5.95-.26-11.96-.97-17.87-1.39-11.57-7.15-18.09-18.5-20.58-9.78-2.15-19.2-.8-27.63,5.06-5.87,4.09-9.17,9.83-10.91,16.7-1.48,5.86-4.34,8.39-8.55,8.11-3.15-.22-6.28-.61-9.42-.95-8.09-.88-16.17-1.92-24.27-2.64-8.22-.73-10.96-4.22-9.09-12.17,7.07-29.99,27.28-46.48,56.05-53.82C589.72,2.06,597.69,1.31,605.53,0c5.33,0,10.66,0,15.99,0ZM635.19,118.67c-14.72-.2-28.47.9-41.13,7.85-8.87,4.87-14.38,12.39-15.95,22.24-.88,5.49-.84,11.31-.12,16.84,1.29,10.03,8.3,17.96,16.72,19.58,7.99,1.54,15.52.27,22.26-4.63,6.97-5.07,11.46-11.93,14.35-19.87,4.88-13.41,4.04-27.34,3.88-42Z"/>
        <path class="cls-1" d="M103.92,0c6.98,1.29,14.06,2.23,20.93,3.96,11.76,2.95,22.52,7.99,31.39,16.57,9.38,9.09,14.28,20.32,15.7,33.06.79,7.08,1.04,14.24,1.07,21.37.13,23.6.3,47.21-.05,70.81-.2,13.38,3.5,25.07,11.62,35.67,8.1,10.57,7.82,11.46-2.29,20.19-7.43,6.42-14.85,12.84-22.26,19.28-6.27,5.44-9.93,5.7-15.97-.14-5.11-4.94-9.61-10.53-14.25-15.94-1.61-1.87-2.84-4.06-4.67-6.72-1.79,1.67-3.33,3.06-4.83,4.49-11.78,11.2-24.9,19.93-41.42,22.44-12.94,1.97-25.82,2.42-38.54-1.37-21.8-6.5-34.14-21.44-38.46-43.35-.96-4.85-1.28-9.83-1.89-14.75,0-.66,0-1.33,0-1.99.25-1.63.64-3.24.74-4.88,1.3-20.96,10.17-37.88,27.1-50.44,13.02-9.65,28.11-14.17,43.83-16.59,13.61-2.09,27.33-3.49,41.02-5.09,2.72-.32,4.27-1.13,4.15-4.25-.21-4.98.12-9.98-.18-14.95-.8-13.27-7.56-21.47-19.89-23.94-3.37-.67-6.96-.54-10.44-.39-13.25.56-23.67,9-27.2,21.77-.48,1.74-.78,3.9-1.97,4.99-1.81,1.67-4.41,3.77-6.52,3.62-12.09-.88-24.14-2.26-36.18-3.71-5.48-.66-8.38-4.38-7.4-9.24,3.39-16.86,11.23-31.11,25.03-41.78,9.5-7.35,20.27-12.08,31.87-14.74C71.53,2.23,79.27,1.29,86.93,0,92.59,0,98.26,0,103.92,0ZM116.69,118.85c-14.26-.65-27.62.78-40.06,7.17-9.12,4.68-15.04,12.09-16.63,22.29-.81,5.19-1.19,10.63-.6,15.82,1.29,11.31,8.46,19.59,17.52,21.15,9.25,1.59,17.48-.64,24.52-6.96,5.05-4.54,8.57-10.12,11.09-16.36,5.58-13.84,4.14-28.29,4.16-43.12Z"/>
        <path class="cls-1" d="M271.62,37.08c9.69-22.83,26.64-34.97,51.39-35.08,25.34-.12,41.07,13.74,51.02,36.71,1.37-2.61,2.39-4.52,3.38-6.44,19.81-38.5,75.07-39.26,97.64-7.67,6.83,9.55,9.52,20.51,9.65,31.93.31,27.09.13,54.18.13,81.27,0,25.1,0,50.2-.01,75.3,0,8-2.44,10.49-10.31,10.5-11.32.03-22.65.02-33.97,0-8.02-.01-10.68-2.65-10.72-10.85-.06-12.3-.06-24.6-.01-36.9.11-28.09.38-56.18.32-84.27-.02-7.27-.43-14.65-1.71-21.8-1.82-10.18-8.58-15.03-18.82-15.96-15.83-1.44-27,9.77-28.71,23.08-.99,7.72-1.85,15.52-1.89,23.3-.19,37.56-.08,75.13-.09,112.69,0,8.35-2.32,10.69-10.59,10.7-10.99.02-21.98.01-32.97,0-8.92,0-11.36-2.32-11.38-11.17-.07-25.76-.04-51.53-.1-77.29-.04-17.95.02-35.9-.35-53.84-.09-4.56-1.26-9.2-2.62-13.59-2.81-9.08-9.36-14-18.79-14.56-9.82-.58-18.46,2.3-22.9,11.73-2.57,5.46-4.21,11.57-5.06,17.55-1.05,7.37-1.11,14.91-1.13,22.38-.1,36.07-.04,72.14-.05,108.21,0,8.24-2.37,10.57-10.72,10.58-11.32.02-22.65.03-33.97,0-7.5-.02-10.23-2.65-10.26-10.23-.08-17.12-.03-34.24-.03-51.36,0-47.37,0-94.74,0-142.11,0-1.83-.07-3.67.13-5.48.55-5.08,2.79-7.77,7.93-7.91,12.14-.32,24.31-.36,36.45-.06,5.55.13,8.08,3.38,8.19,9.29.13,6.91.03,13.83.03,20.74.29.2.59.41.88.61Z"/>
        <path class="cls-1" d="M1167.35,41.96c3.78-6.6,6.72-12.58,10.41-18.05,11.87-17.55,29.26-23.2,49.49-21.62,17.62,1.38,31.8,9.08,41.25,24.42,5.35,8.68,7.79,18.4,8.53,28.36,1.01,13.74,1.55,27.53,1.63,41.31.21,37.9.07,75.79.07,113.69,0,1.83.07,3.67-.09,5.48-.44,5.12-3.24,7.97-8.35,8.02-12.82.12-25.64.14-38.46,0-5.64-.06-8.05-3.12-8.05-9.62,0-37.73.15-75.46-.05-113.19-.05-9.26-.55-18.63-2.03-27.76-2.34-14.49-11.17-21.25-24.98-19.93-8.65.83-15.18,5.69-18.55,13.38-3.09,7.05-5.32,14.65-6.66,22.24-1.26,7.14-1.13,14.56-1.15,21.87-.1,34.24-.04,68.48-.05,102.72,0,7.89-2.48,10.33-10.47,10.35-11.16.02-22.31.02-33.47,0-8.41-.01-10.93-2.47-10.96-11.08-.07-19.28-.04-38.56-.05-57.84-.02-45.04-.03-90.09-.05-135.13,0-.66,0-1.33,0-1.99.08-8.74,2.48-11.22,11.37-11.31,9.99-.1,19.98-.03,29.97-.02.83,0,1.67.01,2.49.1,6.01.61,8.19,2.96,8.21,8.99.04,8.62,0,17.25,0,26.65Z"/>
        <path class="cls-1" d="M1086.52,116.34c.07,27.19-5.79,52.75-21.64,75.32-14.53,20.68-34.41,33.11-59.7,35.73-36.59,3.79-67.07-13.14-83.97-46.12-8.92-17.41-12.99-36.05-14.26-55.5-1.43-22,.84-43.45,8.35-64.19,7.2-19.89,18.78-36.64,37.23-47.86,15.43-9.38,32.34-12.91,50.22-11.36,40.59,3.53,63.89,27.78,76.46,64.46,5.2,15.18,7.27,30.78,7.32,49.52ZM1027.02,115.87c0-6.81.31-13.63-.07-20.41-.66-11.59-2.13-23.11-6.03-34.15-3.84-10.9-11.67-16.7-23.21-17.15-11.09-.43-19.1,4.63-24.16,14.41-4.43,8.55-6.18,17.85-7.04,27.27-1.83,20.06-1.43,40.13.98,60.12,1.13,9.4,3.2,18.66,8.11,26.95,9.6,16.19,30.73,16.95,41.22,1.31,2.72-4.06,4.68-8.8,6.16-13.49,4.61-14.61,4.29-29.78,4.04-44.87Z"/>
        <path class="cls-1" d="M523.26,385.03c-115.9-1.36-215.83-33.28-304.41-99.07-11.87-8.82-22.96-18.69-34.37-28.12-1.13-.93-2.57-2.1-2.81-3.37-.4-2.1-.73-4.98.37-6.4,1.09-1.41,3.99-1.9,6.09-1.91,1.66,0,3.4,1.22,4.97,2.12,62.66,35.9,129.63,60.27,200.36,74.45,35.31,7.08,70.97,11.23,106.99,12.6,95.81,3.65,187.86-13.44,276.57-49.36,2.92-1.18,5.87-2.43,8.92-3.17,4.63-1.13,9.57,1.14,11.6,4.9,2.04,3.78,1.18,8.12-2.59,11.71-1.8,1.71-3.84,3.19-5.87,4.63-37.06,26.19-77.91,44.52-121.13,57.85-34.46,10.63-69.7,17.56-105.61,20.83-14.91,1.36-29.9,1.78-39.08,2.3Z"/>
        <path class="cls-1" d="M808.05,151.75c9.13.59,17.58.87,25.98,1.72,16.38,1.65,31.9,6.28,46.4,14.17,5.37,2.92,7.84,7.56,7.91,13.46.12,9.31.17,18.62,0,27.92-.14,7.66-5.29,10.91-12,7.54-20.59-10.33-42.5-15.34-65.41-15.53-23.26-.19-45.55,4.63-66.49,15.01-8.3,4.12-13.04,1.23-13.1-8.03-.05-9.31,0-18.62,0-27.93,0-8.04,2.28-15.24,6.97-21.9,24.1-34.27,48.04-68.64,72.03-102.99.95-1.35,1.83-2.75,3.25-4.91-2.33-.11-4.04-.25-5.75-.25-19.65-.02-39.3,0-58.95-.02-7.45,0-9.97-2.32-10.11-9.72-.16-8.31-.18-16.62.01-24.93.16-7.13,2.76-9.56,9.81-9.56,41.96-.02,83.93-.02,125.89,0,7.24,0,9.9,2.7,9.95,9.94.05,5.65-.31,11.33.09,16.95.47,6.54-1.65,12.04-5.29,17.22-9.75,13.87-19.46,27.78-29.19,41.66-13.07,18.65-26.16,37.29-39.24,55.94-.85,1.21-1.62,2.47-2.75,4.21Z"/>
        <path class="cls-1" d="M806.25,232.38c16.6,0,28.18.99,39.45,4.25,10.53,3.04,12.58,5.79,12.62,16.66.07,19.6-5.1,38.07-12.58,55.99-6.6,15.8-15.52,30.11-28.08,41.93-2.15,2.02-4.54,4.01-7.18,5.26-4.2,1.98-6.99-.39-6.06-4.92.43-2.09,1.36-4.09,2.14-6.1,7-17.95,14.19-35.85,18.09-54.8,1.13-5.48,1.6-11.18,1.68-16.78.1-6.98-2.58-10.31-9.36-12.33-10.01-2.97-20.36-3.47-30.67-2.8-15.92,1.04-31.8,2.75-47.72,3.9-2.17.16-5.38-.55-6.49-2.05-1.88-2.54.28-5.36,2.55-6.66,7.76-4.44,15.45-9.22,23.7-12.55,16.85-6.81,34.7-8.92,47.9-9Z"/>
      </g>
    </g>
  </g>
</svg>