<?xml version="1.0" encoding="UTF-8"?>
<svg id="Layer_2" data-name="Layer 2" xmlns="http://www.w3.org/2000/svg" viewBox="0 0 1266.95 249.02">
  <defs>
    <style>
      .cls-1 {
        fill: #fff;
        stroke-width: 0px;
      }
    </style>
  </defs>
  <g id="Layer_1-2" data-name="Layer 1">
    <g id="nvfQMM.tif">
      <g>
        <path class="cls-1" d="M0,183.59c.47-1.55,1.06-3.08,1.39-4.66,6.09-28.85,33.06-49.26,61.72-46.68,30.55,2.75,53.89,27.21,54.3,56.92.42,30.43-21.44,55.62-51.55,59.4-29.61,3.71-57.85-16.3-64.3-45.54-.44-1.98-1.03-3.92-1.55-5.88,0-4.52,0-9.04,0-13.55Z"/>
        <path class="cls-1" d="M142.26,0c2.55.7,5.1,1.44,7.66,2.11,28.17,7.33,47.48,34.93,43.74,62.53-4.29,31.63-29.11,53.05-60.6,52.29-28.67-.69-53.44-23.86-56.12-52.51-2.79-29.83,17.01-56.68,46.42-62.97C125.14,1.07,126.89.49,128.65,0,133.19,0,137.72,0,142.26,0Z"/>
        <path class="cls-1" d="M1233.72,59.63c.36-.93.6-1.28.63-1.64q.76-13.68,14.32-13.68c3.71,0,7.42.01,11.12,0,4.77,0,7.15,2.14,7.15,7.12-.05,50.48-.06,100.95.01,151.43,0,5.02-2.26,6.66-7.07,7.08-13.75,1.21-21.76-5.39-25.51-18.2-30.78,31.05-87.33,28.3-119.25-5.48-31.89-33.74-32.04-86.16-.07-120.45,30.56-32.78,87-37.76,118.68-6.19ZM1178.57,182.22c30.75.09,55.81-25.18,55.78-56.26-.02-30.87-24.74-55.95-55.25-56.08-30.43-.13-55.13,24.76-55.45,55.86-.31,30.63,24.74,56.4,54.92,56.48Z"/>
        <path class="cls-1" d="M834.54,59.71c.71-14.92-1.64-15.48,16.02-15.45,18.62.02,16.79-.36,16.78,16.65,0,46.58,0,93.16,0,139.74,0,8.39-.83,9.2-9.15,9.21-12.71.02-16.75-2.99-23.74-17.96-18.28,18.26-40.96,23.6-65.61,20.99-22.58-2.39-41.49-12.83-56.32-30.05-29.22-33.93-27.79-83.64,2.65-116.78,28.35-30.87,84.92-39.75,119.37-6.34ZM779.34,182.22c30.37,0,55.23-25.1,55.45-56,.22-30.99-24.97-56.51-55.62-56.34-30.51.16-55.24,25.39-55.12,56.21.13,30.9,24.97,56.12,55.29,56.13Z"/>
        <path class="cls-1" d="M477.03,59.72c.67-15.77-.57-15.39,16.09-15.44,18.59-.05,16.78-.44,16.78,16.65,0,46.41,0,92.81,0,139.22,0,9.1-.73,9.47-9.89,9.79-12.75.44-18.99-6.99-22.64-17.92-33.75,32.9-91.02,26.02-120.94-7.49-29.94-33.53-29.66-84.12.79-117.85,28.81-31.92,85.79-40.11,119.83-6.94ZM422.01,69.87c-30.46-.08-55.13,24.85-55.35,55.94-.22,30.73,24.74,56.34,54.96,56.41,30.74.07,55.7-25.19,55.68-56.33-.03-30.86-24.78-55.93-55.29-56.01Z"/>
        <path class="cls-1" d="M943.99,60.2c20.67-23.19,46.1-25.72,73.19-16.88,27.09,8.84,41.8,29.14,45.39,56.8,1.76,13.55,1.25,27.41,1.38,41.14.2,20.12.07,40.23.04,60.35,0,7.39-1.56,8.92-9.09,9-5.15.06-10.31.11-15.46-.02-6.22-.16-7.93-1.94-7.94-8.26-.04-29.15.06-58.3-.06-87.45-.09-21.82-13.63-38.79-34.54-43.7-26.22-6.16-52.65,14.11-52.89,40.96-.27,29.35-.07,58.71-.09,88.06,0,8.95-1.43,10.38-10.3,10.42-4.95.02-9.89,0-14.84-.01-5,0-7.53-2.21-7.53-7.48.07-50.29.08-100.59-.02-150.88,0-5.28,2.39-7.32,7.38-7.62,13.33-.81,19.19,2.62,25.35,15.57Z"/>
        <path class="cls-1" d="M610.13,213.47c-25.2-.15-45.28-5.82-63.29-18.22-5.98-4.12-6.33-6.04-2.23-12.02,2.79-4.07,5.63-8.1,8.5-12.11,4.14-5.79,5.57-6.14,11.58-2.3,13.87,8.86,28.92,14.32,45.45,13.11,6.68-.49,13.87-2.82,19.53-6.37,10.97-6.87,10.48-20.65-1.17-26.15-10.48-4.95-22.12-7.42-33.13-11.29-8.88-3.12-18.14-5.74-26.28-10.27-15.9-8.86-24.75-22.5-23.72-41.37.98-17.97,9.6-31.55,25.54-39.34,29.89-14.59,59.05-10.66,87.11,5.77,4.51,2.64,4.9,6.11,1.77,10.28-3.21,4.27-6.14,8.75-9.25,13.09-4.25,5.94-5.42,6.29-11.55,2.52-11.84-7.3-24.67-10.38-38.39-8.35-4.94.73-10.13,2.42-14.31,5.07-10.51,6.65-10.01,19.66,1.08,25.23,6.71,3.37,14.26,5.09,21.43,7.57,11.82,4.09,24.04,7.32,35.39,12.45,36.47,16.46,33.92,62.97,4.21,81.47-12.78,7.96-26.65,11.63-38.26,11.24Z"/>
        <path class="cls-1" d="M153.34,190.82c-.1-32.42,25.84-58.6,58.17-58.74,32.19-.14,58.71,26.01,58.99,58.17.29,31.97-26.18,58.52-58.42,58.59-32.63.07-58.65-25.63-58.75-58.02Z"/>
      </g>
    </g>
  </g>
</svg>