<?xml version="1.0" encoding="UTF-8"?>
<svg id="Layer_2" data-name="Layer 2" xmlns="http://www.w3.org/2000/svg" viewBox="0 0 1154.14 200.11">
  <defs>
    <style>
      .cls-1 {
        fill: #fff;
      }
    </style>
  </defs>
  <g id="Layer_1-2" data-name="Layer 1">
    <g id="VFEEmX">
      <g>
        <path class="cls-1" d="M150.01,197.2h-42.71l-2.14-14.95c-8.37,6.16-18.7,14.86-29.25,16.66C-6.49,212.93-28.43,93.21,43.21,63.71c43-17.7,93.8,2.29,104.25,49.55.5,2.26,2.55,13.78,2.55,14.53v69.41ZM68.22,97.26c-20.29,3.51-25.64,22.47-22.41,40.78,3.68,20.87,29.6,29.51,46.48,17.46,26.86-19.18,10.7-64.25-24.07-58.23Z"/>
        <path class="cls-1" d="M1104.6,143.81h-96.1c2.25,23.38,30.98,25.04,48.5,17.55,2.22-.95,4.69-4.11,5.89-4.18,3.62-.22,24.08,10.74,28.87,13.41,1.81,1.01,6.03.45,4.29,4.18-3.02,6.48-22.16,17.18-29.3,19.82-62.67,23.23-123.85-30.62-97.12-94.98,26.88-64.71,129.82-52.32,137.02,19.72.87,8.67-.47,16.13-2.06,24.48ZM1061.89,116.05c1.88-34.12-54.32-34.43-53.39,0h53.39Z"/>
        <path class="cls-1" d="M647.59,197.2h-42.71v-80.08c0-.57-3.71-9.01-4.54-10.41-9.63-16.13-32.17-12.25-42.48,1.83-1.89,2.58-6.37,12.85-6.37,14.99v73.68h-42.71V60.53h42.71l1.06,17.08c7.91-9.02,14.83-14.83,26.61-18.24,10.68-3.1,21.46-3.15,32.23-.02,14.73,4.27,26.95,17.7,32.37,31.7.73,1.9,3.83,10.53,3.83,11.12v95.03Z"/>
        <path class="cls-1" d="M493.83,143.81h-96.1c.72,18.62,21.99,23.3,37.31,21.3,7.48-.98,13.91-7.27,21.37-6.39,3.22.38,20.56,8.85,25.33,11.06,2,.92,4.29,2.54,3.54,4.99-22.67,24.93-60.36,31.39-91.18,18.58-50.55-21-53.77-88.88-12.42-122.18,20.19-16.26,55.83-17.18,78.58-5.91,28.65,14.2,41.75,48.08,33.57,78.55ZM397.73,116.05h55.52c-1.03-34.75-55.2-34.31-55.52,0Z"/>
        <path class="cls-1" d="M864.35,60.53c2.77,2.01,3.62,5,4.86,7.96,7.12,16.98,12.79,37.64,19.24,55.51,2.02,5.6,4.38,11.73,4.74,17.69,3-.26,3.44-3.06,4.35-5.25,10.25-24.51,16.89-50.81,25.54-75.9h46.98l-54.61,136.78c-12.04-1.4-26.72,1.55-38.33-.05-1.78-.25-3.24-.49-4.27-2.14l-54.41-134.59h45.91Z"/>
        <path class="cls-1" d="M209.81,19.95v40.58h38.44v33.1c0,.23-2.98,3.2-3.2,3.2h-35.24v54.46c0,.39,3.35,5.61,4.2,6.48,6.46,6.65,25.19,2.25,34.24.99v33.1c-5.09,4.14-15.63,6.94-22.34,7.56-30.81,2.82-53.52-4.29-59.25-37.01-.23-1.31-1.69-2.13-1.69-2.58V19.95h44.85Z"/>
        <path class="cls-1" d="M707.39,19.95l2.14,40.58h38.44v33.1c0,.23-2.98,3.2-3.2,3.2h-35.24v56.59c0,.45,5.58,6.06,6.36,6.45,7.75,3.95,23.33-.83,32.08-1.11v33.1c-16.3,9.98-48.43,11.35-64.83.76-4.68-3.02-10.49-9.81-13-14.76-.93-1.82-5.45-13.02-5.45-13.77V19.95h42.71Z"/>
        <path class="cls-1" d="M308.04,19.95v40.58h38.44v33.1c0,.23-2.98,3.2-3.2,3.2h-35.24v54.46c0,.39,3.35,5.61,4.2,6.48,6.46,6.65,25.19,2.25,34.24.99v33.1c-11.93,7.88-33.84,9.46-48.04,7.46-9.35-1.32-23.75-12.48-28.57-20.55-4.01-6.71-3.38-14.42-6.68-21.08V19.95h44.85Z"/>
        <path class="cls-1" d="M807.76,60.53v136.68h-42.71V60.53c6.43,1.16,13.86,5.99,20.42,6.45,6.76.47,15.67-5.3,22.29-6.45Z"/>
        <path class="cls-1" d="M765.55,7.63c.66-.66,8.95-5.58,10.06-5.96,18.05-6.09,40.55,4.85,38.57,25.65-2.33,24.5-39.01,31.82-52.3,9.67-5.07-8.45-3.17-22.57,3.66-29.36Z"/>
        <path class="cls-1" d="M1125.26,41.67c19.96-4.42,31.31,9.13,28.44,28.44-1.66,11.17-16.18,17.41-26.24,15.62-23.29-4.13-25.13-39-2.21-44.07ZM1143.04,75.48c.09-.09,1.35.56,2.25-1.3,4.12-8.45,4.68-19.94-4.43-25.35-12-7.13-25.64.85-25.75,14.9-.11,14.42,15.51,20.09,27.56,13.48.66-.36.22-1.58.38-1.74-4.65,4.53-9.56-7.67-12.81-8.54v8.55s-6.41,0-6.41,0v-23.5c5.92.25,15.05-1.9,18.21,4.22,3.24,6.27-2.72,7.77-2.85,9.63-.12,1.71,5.78,7.78,3.85,9.65Z"/>
      </g>
    </g>
  </g>
</svg>