<?xml version="1.0" encoding="UTF-8"?>
<svg id="Layer_2" data-name="Layer 2" xmlns="http://www.w3.org/2000/svg" viewBox="0 0 1228.15 358.5">
  <defs>
    <style>
      .cls-1 {
        fill: #fff;
      }
    </style>
  </defs>
  <g id="Layer_1-2" data-name="Layer 1">
    <g>
      <path class="cls-1" d="M.03,199.49c0-42.21-.04-83.74.02-125.27C.11,32.64,32.87.01,74.52,0c70.42-.02,140.84,0,211.27.01,44.56,0,76.73,31.27,77.05,75.96.48,67.03.28,134.06.44,201.09.05,21.67-4.57,41.67-20.01,57.94-14.14,14.9-31.12,23.5-52.05,23.49-73.13-.04-146.26.03-219.39-.02C32.95,358.45.2,325.76.06,286.84c-.11-28.89-.02-57.78-.03-87.35M50.03,130.59c-10.34,25.14-7.1,48.53,9.36,70.02,2.59,3.38,2.25,6.4,1.45,10.08-10.27,47.15,27.58,89.44,75.65,84.22,5.4-.59,8.72.8,12.51,4.2,35.95,32.13,92.44,19.61,111.31-24.67,1.83-4.29,4.64-6.05,8.76-7.38,47.31-15.3,64.31-68.29,34.67-108.18-2.42-3.26-3.02-6.09-1.88-9.94,2.67-9.03,2.67-18.44,1.05-27.52-6.76-37.82-41.52-61.86-77.35-57.19-4.26.56-7.65-.25-11.05-3.37-36.26-33.15-92.43-21.18-112.33,23.89-1.6,3.62-3.67,5.69-7.55,6.83-20.44,5.98-35.11,18.82-44.62,39h0ZM933.67,186.36c-15.31-.08-13.85,1.23-13.87-13.71-.01-10.12.02-10.14,9.92-10.15,14.44-.01,28.88.15,43.31-.08,5.31-.09,7.17,1.94,7.09,7.16-.22,13.98-.15,27.97-.04,41.96.03,3.75-1.28,6.47-4.38,8.54-26.15,17.56-54.15,22.89-84.2,11.93-14.65-5.34-25.04-15.8-31.48-30.02-9.59-21.17-10.53-42.85-2.12-64.43,11.11-28.52,35.91-40.48,65.27-39.38,8.77.33,17.5,1.39,25.82,4.71,13.89,5.53,22.93,15.48,27.86,29.47,1.61,4.57.2,6.81-4.47,7.44-2.68.36-5.38.76-7.97,1.47-8.18,2.26-13.84,2.43-19.53-6.96-10.58-17.47-42.59-15.34-55.19,2.32-10.47,14.67-10.24,47.43.43,61.93,8.92,12.12,24.23,17.36,39.86,13.33,4.12-1.06,8.14-2.68,12-4.49,9.04-4.25,10.47-7.38,8.95-17.07-.44-2.79-1.74-3.95-4.42-3.95-4.06,0-8.12-.02-12.85-.04h0ZM1108.37,147.39c-4.92,25.43-18.16,36.37-45,37.42-8.11.32-16.25.34-24.36.11-4.75-.14-6.34,1.7-6.26,6.34.19,12.18-.15,24.37.11,36.54.12,5.52-1.8,7.46-7.42,7.51-21.68.2-21.67.36-21.68-20.97,0-35.19.11-70.39-.15-105.58-.05-6.44,1.89-8.79,8.46-8.54,19.82.75,39.65-.13,59.5.86,20.79,1.04,37.71,16.65,37.08,43.01-.02.9-.11,1.8-.27,3.29M1054.18,160.96c2.9-.37,5.8-.74,8.7-1.12,9.87-1.28,15.8-8.02,15.65-17.77-.15-9.35-6.11-15.66-15.94-16.75-4.02-.45-8.05-.91-12.09-1.04q-17.68-.58-17.69,16.89,0,20.2,21.38,19.78h0ZM525.9,230.85c-37.18,17.81-89.03,1.88-92.2-56.14-1.07-19.55,2.08-38.24,14.39-54.41,21.84-28.69,73.81-30.05,94.89-2.41,3.59,4.71,5.92,10.07,8.01,15.58,1.23,3.24.64,5.17-2.87,6-6.58,1.55-13.15,3.18-19.72,4.76-2.51.6-4.11-.19-5.45-2.62-8.71-15.78-17.73-20.95-32.08-18.65-14.19,2.28-23.74,12.19-26.25,28.8-1.93,12.74-2.16,25.68,1.39,38.28,4.55,16.17,17.11,24.57,33.76,22.56,12.56-1.52,19.46-9.94,22.92-21.18,1.81-5.88,4.39-6.87,9.72-4.76,4.81,1.9,9.88,3.13,14.87,4.57,4.06,1.17,5.29,3.36,3.83,7.57-4.67,13.45-12.11,24.64-25.21,32.06h0ZM574.21,217.09c0-36.56.14-72.44-.11-108.33-.04-6.44,1.92-8.62,8.47-8.56,18.42.18,18.33-.08,18.48,18.48.08,9.2-.75,18.45.86,28.56,8.6-7.58,17.64-12.25,28.91-12.05,20.6.35,32.88,11.22,33.5,31.78.63,20.74.1,41.52.23,62.28.03,4.34-1.61,6.07-5.96,5.98-26.45-.57-21.13,3.86-21.64-20.21-.29-13.99-.05-27.98-.22-41.98-.12-10.59-3.41-15.19-11.32-16.47-9.87-1.59-18.21,2.6-21.49,11.26-2.6,6.84-2.71,14.16-2.85,21.35-.26,13.08-.22,26.18-.02,39.27.07,4.88-1.61,7.25-6.64,6.75-.89-.09-1.8,0-2.71,0q-17.47.09-17.48-18.12h0ZM730.12,156.41c-8.49-.59-15.55.59-19.18,8.93-.67,1.54-1.88,2.76-3.66,2.46-6.44-1.09-12.91-2.09-19.25-3.6-3.27-.78-1.93-3.56-1.18-5.61,4.9-13.39,14.8-20.9,28.64-22.65,10.05-1.27,20.27-1.5,30.31.6,16.73,3.51,23.92,12.01,24.26,29.16.27,13.53.36,27.08-.04,40.61-.28,9.59,1.88,18.67,5.15,28.7-8.59,0-16.18.2-23.76-.08-4.39-.16-3.19-5.58-6.86-7.96-7.18,5.02-15.23,9.18-24.59,10.36-20.56,2.59-37.49-10.69-37.27-29.52.15-12.48,7.22-21.97,19.63-26.33,10.47-3.68,21.61-4.57,32.2-7.7,3.49-1.03,9.08-.15,8.81-6.22-.27-6.11-3.58-10.06-9.94-10.91-.89-.12-1.8-.14-3.29-.23M741.52,190.62c-7.22.52-14.18,2.38-21.05,4.46-8.65,2.62-11.61,7.25-9.7,14.23,1.6,5.83,8.76,9.68,15.83,8.5,13.1-2.17,19.59-13.1,14.92-27.19ZM1159.56,203.56c0-24.15-.22-47.62.13-71.09.1-6.67-2.22-8.68-8.6-8.35-8.33.43-16.7-.04-25.04.12-4.28.08-6.09-1.53-6.04-5.92.26-21.89-2.34-17.78,17.03-17.97,27.53-.27,55.07.1,82.6-.2,6.49-.07,8.62,1.94,8.53,8.47-.23,15.59.05,15.59-15.71,15.6-5.64,0-11.3.27-16.92-.09-5.33-.34-7.05,1.65-7.02,6.97.2,31.37.11,62.74.11,94.11q0,9.97-10.11,10-18.93.07-18.94-18.79v-12.86ZM795.51,120.6c7.01-8.68,17.05-11.53,25.42-17.19l2.02,1.08c0,7.77-.01,15.55,0,23.32.02,9.03.04,9.42,8.76,9.03,6.78-.3,9.78,1.99,8.83,8.86-.15,1.11-.02,2.25-.02,3.38-.03,9.88-.04,10.24-10.15,9.97-6.12-.17-7.73,2.09-7.56,7.87.37,12.85.06,25.71.17,38.56.06,7.7,2.44,10.01,9.94,8.44,5.46-1.14,7.38-.16,8.17,5.7,1.95,14.47,1.73,15.14-12.55,17.37-5.22.81-10.34.58-15.44-.61-10.09-2.35-15.16-7.67-16.64-17.95-2.42-16.83-.84-33.78-1.14-50.68-.09-5.36-.31-9.57-7.37-8.74-2.23.26-4.08-.91-4.34-3.33-.56-5.17-.59-10.36.2-15.51.32-2.09,1.94-3.24,3.89-3.03,7.41.8,8.03-3.64,7.56-9.24-.19-2.23.09-4.5.25-7.32h0Z"/>
      <path class="cls-1" d="M255.37,173.5c-20.5-11.76-40.57-23.27-62.46-35.83,9.13-5.07,16.48-9.26,23.95-13.21,2-1.06,3.9.46,5.66,1.46,18.23,10.4,36.77,20.29,54.61,31.31,33.94,20.98,31.84,71.2-3.44,89.97-1.94,1.03-3.84,2.42-6.35,1.9-2.38-2.13-1.6-5.01-1.62-7.6-.07-16.93-.48-33.87.14-50.78.31-8.41-2.34-13.9-10.49-17.24h0ZM81.89,250.52c-5.06-10.58-7.58-21.03-5.15-32.09,3.17-1.05,4.89.79,6.76,1.84,15.7,8.89,31.51,17.6,46.97,26.9,6,3.61,10.92,3.61,16.89.1,18.66-10.97,37.56-21.55,56.4-32.23,2.26-1.28,4.3-3.41,8.24-2.51,0,8.11.11,16.37-.07,24.62-.05,2.53-2.42,3.59-4.4,4.73-17.22,9.86-34.33,19.92-51.68,29.55-26.95,14.97-57.08,6.49-73.97-20.92h0Z"/>
      <path class="cls-1" d="M82.68,199.98c-17.88-13.78-25.28-35.68-19.33-56.28,4.94-17.1,19.8-32.5,32.53-33.64,1.75,2.15,1.03,4.73,1.04,7.13.07,17.83.27,35.66-.07,53.49-.13,6.49,2.2,10.42,7.83,13.53,18.76,10.36,37.33,21.07,55.92,31.74,2.47,1.42,5.41,2.33,7.51,6-7.13,4.94-14.66,9.15-22.52,12.8-1.78.83-3.53-.41-5.08-1.3-19.3-11.12-38.57-22.27-57.83-33.46h0ZM181.29,131.2c-10.18,5.77-20.37,11.54-30.55,17.31,0-10.12-.1-18.54.08-26.94.04-1.91,1.97-2.91,3.56-3.81,18.84-10.69,37.32-22.08,56.6-31.89,35.32-17.98,77.53,10,75.64,49.57-.08,1.78.03,3.61-1.21,5.18-3.11,1.03-5.15-1.25-7.37-2.5-15.33-8.65-30.67-17.29-45.82-26.25-5.89-3.48-11.06-3.7-17.02-.08-10.98,6.67-22.3,12.81-33.91,19.41ZM229.84,288.12c-22.16,16.17-54.1,15.83-66.61-.71,3.14-3.62,7.63-5.39,11.62-7.72,13.84-8.07,27.74-16.03,41.76-23.77,4.92-2.72,7.03-6.34,6.99-11.97-.17-22.12-.08-44.24-.01-66.35,0-2.37-.76-4.95,1.6-7.73,7.78,3.09,14.73,8.01,21.97,12.36,1.97,1.19,1.64,3.57,1.64,5.59-.01,21.21.35,42.44-.2,63.64-.38,14.73-7.29,26.75-18.77,36.67h0Z"/>
      <path class="cls-1" d="M121.7,83.92c20.05-32.17,62.79-29.6,77.47-12.41-3.19,3.96-7.96,5.6-12.16,8.04-13.43,7.83-26.79,15.81-40.44,23.23-5.5,2.99-7.68,6.83-7.63,12.93.18,21.64.09,43.28.03,64.92,0,2.64.65,5.41-1.45,8.9-7.69-3.87-15.25-8.04-22.35-13.01-1.86-1.3-1.35-3.71-1.35-5.7,0-20.74-.09-41.48.09-62.21.08-8.76,3.18-16.74,7.79-24.69h0Z"/>
      <path class="cls-1" d="M182.7,213.85c-11.53-3.3-20.7-10.34-30.58-16.02-1.98-1.14-1.71-3.53-1.72-5.56-.02-8.34.13-16.68-.07-25.01-.09-3.89,1.44-6.24,4.8-8.06,7.32-3.98,14.56-8.1,21.72-12.38,3.05-1.82,5.73-1.89,8.81-.08,7.37,4.35,14.8,8.61,22.32,12.68,3.25,1.76,4.24,4.22,4.19,7.7-.13,8.33-.2,16.68.05,25,.12,3.99-1.64,6.18-4.92,7.97-8.1,4.42-16.1,9.04-24.6,13.75h0Z"/>
    </g>
  </g>
</svg>