<?xml version="1.0" encoding="UTF-8"?>
<svg id="Layer_2" data-name="Layer 2" xmlns="http://www.w3.org/2000/svg" viewBox="0 0 1278.76 352">
  <defs>
    <style>
      .cls-1 {
        fill: #fff;
        stroke-width: 0px;
      }
    </style>
  </defs>
  <g id="Layer_1-2" data-name="Layer 1">
    <g id="S0QMIs.tif">
      <g>
        <path class="cls-1" d="M180.26,0c1.74.3,3.47.62,5.21.9,14.29,2.27,26.08,9.02,35.53,19.87,6.7,7.7,10.9,16.74,12.88,26.68,2.11,10.61,1.3,21.1-2.43,31.33-6.02,16.49-17.31,27.94-33.41,34.63-5.04,2.1-10.34,3.63-15.91,3.81-.58.02-1.15.23-1.75.55,18.91,1.86,33.85,10.54,44.43,26.14,7.92,11.68,11.01,24.9,9.33,38.9-3.05,25.48-21.53,45.65-46.81,50.52-16.49,3.17-31.82-.16-45.44-10.04-13.59-9.86-21.34-23.39-23.69-40.04-.15.02-.3.04-.45.06-.05.78-.15,1.56-.15,2.34-.02,35.84.05,71.69-.07,107.53-.05,14.54-4.74,27.46-14.35,38.55-8.04,9.27-18.04,15.29-29.86,18.26-3.67.92-7.5,1.24-11.27,1.73-7.24.95-14.25-.62-21.06-2.65-7.46-2.23-14.17-6.02-20.14-11.16-7.19-6.19-12.6-13.61-16.2-22.3-2.22-5.35-3.69-10.95-4-16.79-.03-.64-.42-1.26-.64-1.89,0-2.63,0-5.25,0-7.88.24-1,.56-1.98.71-2.99,1.85-12.82,6.93-24.06,16-33.45,7.55-7.81,16.51-13.12,27.01-15.86,1.81-.47,3.66-.86,5.5-1.18,1.84-.32,3.7-.5,5.55-.74-1.03-.27-2.05-.42-3.07-.53-7.11-.79-13.83-2.91-20.15-6.2-7.53-3.93-13.87-9.3-19.07-16.05-6.86-8.9-10.83-18.91-11.86-30.09-.05-.5-.4-.98-.61-1.47,0-3.08,0-6.16,0-9.25.21-.43.52-.84.62-1.29.91-4.1,1.54-8.28,2.71-12.3,3.1-10.66,9.45-19.28,17.76-26.42,8.03-6.9,17.47-11.05,27.91-12.85,1.3-.22,2.6-.38,3.9-.56-.28-.34-.55-.42-.81-.47-.39-.07-.79-.11-1.19-.16-6.24-.69-12.17-2.54-17.77-5.29-11.63-5.71-20.49-14.32-26.48-25.83-2.75-5.28-4.63-10.87-5.65-16.75C.74,67.77.34,66.25,0,64.73c0-4,0-7.99,0-11.99.22-.49.52-.96.65-1.48.97-4.02,1.59-8.17,2.92-12.07,4.38-12.82,12.62-22.69,23.97-29.98,6.86-4.4,14.38-7.08,22.44-8.24,2.08-.3,4.15-.64,6.22-.97,41.35,0,82.71,0,124.06,0ZM117.74,168.88c.17.04.35.08.52.12,1.78-13.94,7.69-25.79,17.94-35.36,10.23-9.55,22.38-14.78,36.8-15.67-.57-.15-.71-.22-.85-.22-3.3,0-6.61.02-9.91.02-14.18,0-28.36.01-42.54-.07-1.72-.01-2.13.54-2.13,2.13.04,15.69.02,31.39.03,47.08,0,.66.09,1.32.15,1.98Z"/>
        <path class="cls-1" d="M453.74,0c.05.4.14.79.14,1.19,0,10.67,0,21.35.03,32.02,0,1.24-.43,1.82-1.68,1.75-.63-.03-1.26-.01-1.88-.01-34.38,0-68.77,0-103.15,0q-2.76,0-2.76,2.83c0,22.66,0,45.32,0,67.98q0,2.43,2.45,2.43c26.33,0,52.66,0,78.99,0q2.64,0,2.65,2.64c0,9.87,0,19.75,0,29.62,0,2.42,0,2.43-2.5,2.43-26.27,0-52.54,0-78.81,0q-2.78,0-2.78,2.78c0,40.87,0,81.73,0,122.6,0,.57-.04,1.15,0,1.71.14,1.55-.53,2.12-2.09,2.09-5.37-.08-10.73-.05-16.1-.07-5.08-.01-10.17-.07-15.25,0-1.64.02-2.35-.55-2.22-2.17.04-.51,0-1.03,0-1.54,0-88.24,0-176.48.01-264.72,0-1.18.22-2.37.33-3.55C357.33,0,405.53,0,453.74,0Z"/>
        <path class="cls-1" d="M838.34,105.43c13.68-16.76,31.21-23.17,51.81-21.1,20.5,2.06,36.15,12.32,47,30.04,1.89-2.37,3.59-4.64,5.43-6.78,7.85-9.13,17.4-15.89,28.76-19.96,7.42-2.66,15.11-3.7,23.01-3.57,6.5.11,12.8,1.07,18.98,3.08,9.88,3.21,18.29,8.68,25.34,16.26,6.95,7.48,11.72,16.22,14.87,25.89,2.83,8.69,4.14,17.61,4.14,26.73,0,37.9,0,75.79.03,113.69,0,1.67-.4,2.29-2.19,2.27-10.22-.08-20.44-.04-30.67-.04-2.46,0-2.47,0-2.47-2.47,0-37.07,0-74.14,0-111.21,0-11.34-3.54-21.31-11.86-29.25-7.49-7.15-16.42-10.51-26.87-10.21-16.11.47-29.87,12.47-34.04,27.16-1.07,3.77-1.37,7.59-1.37,11.49.03,36.98.02,73.97.02,110.95,0,.63-.03,1.26,0,1.88.05,1.13-.41,1.68-1.6,1.67-10.79-.02-21.59-.02-32.38,0-1.15,0-1.71-.43-1.67-1.61.03-.63,0-1.26,0-1.88,0-37.15-.01-74.3,0-111.44,0-9.96-3.24-18.73-9.99-26-8.58-9.24-19.25-13.6-31.87-11.77-15.24,2.22-25.2,11.15-30.43,25.45-1.49,4.09-2.01,8.38-2,12.76.03,37.32.02,74.65.02,111.97q0,2.5-2.57,2.51c-10.16,0-20.33,0-30.49,0-2.26,0-2.39-.12-2.39-2.45,0-59.22,0-118.43,0-177.65,0-2.43.1-2.53,2.48-2.53,10.22,0,20.45,0,30.67,0,2.29,0,2.3.01,2.3,2.27,0,4.44,0,8.88,0,13.85Z"/>
        <path class="cls-1" d="M714.37,235.28c-2.9,2.39-5.54,4.73-8.35,6.86-7.78,5.92-16.49,9.86-26.03,12.02-6.83,1.55-13.76,2.29-20.72,1.93-13.4-.69-25.89-4.54-37.19-11.9-11.93-7.77-20.99-18.14-27.55-30.75-4.97-9.56-8.12-19.7-9.49-30.35-1.65-12.89-1.15-25.71,2.33-38.32,4.33-15.68,12.09-29.35,23.97-40.55,5.97-5.63,12.72-10.17,20.25-13.52,9.12-4.05,18.63-6.25,28.63-6.6,10.76-.38,21.16,1.14,31.11,5.28,8.04,3.34,15.22,8.01,21.43,14.14.43.42.87.83,1.66,1.59,0-2.5,0-4.53,0-6.56,0-2.34,0-4.68,0-7.02,0-2.14.09-2.23,2.21-2.23,9.2,0,18.39,0,27.59,0,1.37,0,2.74.02,4.11,0,1-.02,1.49.43,1.48,1.43,0,.51.01,1.03.01,1.54,0,55.36.11,110.73-.05,166.09-.07,22.33-7.64,42.05-22.3,59-9.05,10.46-20.03,18.28-32.71,23.65-8.8,3.73-18.01,5.96-27.61,6.74-8.67.7-17.23.2-25.69-1.57-10.24-2.14-19.84-5.96-28.72-11.54-1.18-.74-1.52-1.3-.72-2.66,5.33-9.03,10.56-18.13,15.84-27.2,1.07-1.84,1.17-1.84,3-.66,9.33,6.02,19.42,9.43,30.64,9.11,14.01-.41,26.16-5.41,36.22-15.1,8.64-8.32,13.87-18.59,15.9-30.4.54-3.13.69-6.35.73-9.54.11-7.25.04-14.5.04-21.75,0-.33-.03-.66-.06-1.17ZM668.14,118.77c-14.21.24-25.37,5.23-34.24,14.87-12.37,13.43-16.61,29.43-13.02,47.19,3.43,16.94,12.8,29.72,28.84,36.89,10.36,4.63,21.1,4.81,31.83,1.09,9-3.11,16.23-8.67,21.96-16.22,9.42-12.41,12.45-26.42,10.11-41.64-1.18-7.63-3.98-14.72-8.42-21.1-9.23-13.27-21.76-20.56-37.06-21.09Z"/>
        <path class="cls-1" d="M1243.19,252.13c-2.79,2.39-5.36,4.79-8.13,6.94-10.04,7.78-21.16,13.34-33.64,16.1-11.74,2.6-23.5,2.83-35.32.73-14.28-2.54-27.01-8.55-38.24-17.65-9.55-7.74-17.11-17.2-22.87-28.07-4.32-8.15-7.43-16.74-9.5-25.72-2.12-9.23-2.95-18.61-2.59-28.01.81-21.27,7.23-40.73,20.09-57.85,9.15-12.19,20.69-21.49,34.72-27.56,9.82-4.24,20.08-6.6,30.83-6.94,9.9-.32,19.6.72,29.05,3.62,11.43,3.51,21.72,9.17,30.65,17.17,1.57,1.4,3.13,2.81,4.92,4.41.05-.65.13-1.1.13-1.56,0-5.42.05-10.84-.02-16.26-.02-1.61.47-2.2,2.14-2.19,10.45.06,20.9.06,31.36,0,1.58,0,2.03.49,2.02,2.05-.03,59.53-.03,119.06,0,178.59,0,1.55-.44,2.06-2.03,2.05-10.51-.06-21.01-.05-31.52,0-1.52,0-1.98-.55-1.97-2.01.06-5.36.02-10.73.02-16.09,0-.55-.05-1.09-.08-1.73ZM1185.7,242.52c7.51.15,14.61-1.44,21.43-4.47,15.18-6.74,25.49-18.15,31.65-33.37,3.73-9.22,5.11-18.82,4.25-28.81-.61-7.06-2.05-13.86-4.77-20.36-4.24-10.14-10.64-18.64-19.41-25.37-8.32-6.39-17.71-10.16-28.07-11.14-11-1.04-21.43,1.27-31.1,6.7-7.89,4.43-14.37,10.41-19.62,17.75-7.35,10.27-11.13,21.83-11.64,34.32-.22,5.41.55,10.93,1.5,16.29,1.91,10.71,6.62,20.23,13.78,28.43,11.1,12.7,24.95,19.76,42,20.03Z"/>
        <path class="cls-1" d="M534.08,180.76c0,29.5,0,59,0,88.5,0,2.69,0,2.68-2.61,2.68-10.16,0-20.33,0-30.49,0-2.31,0-2.38-.07-2.38-2.43,0-59.23,0-118.46,0-177.69,0-2.47.03-2.5,2.48-2.5,10.16,0,20.33,0,30.49,0q2.51,0,2.51,2.6c0,29.62,0,59.23,0,88.85Z"/>
        <path class="cls-1" d="M516.69,55.6c-11.63.19-23.11-9.14-23.11-23.2,0-12.3,9.69-22.52,22.69-22.75,12.38-.22,23.28,9.26,23.38,23.14.09,12.82-10.53,22.8-22.97,22.81Z"/>
      </g>
    </g>
  </g>
</svg>