<?xml version="1.0" encoding="UTF-8"?>
<svg id="Layer_2" data-name="Layer 2" xmlns="http://www.w3.org/2000/svg" viewBox="0 0 152.34 153.4">
  <defs>
    <style>
      .cls-1 {
        fill: none;
        stroke: #fff;
        stroke-miterlimit: 10;
        stroke-width: 2px;
      }
    </style>
  </defs>
  <g id="Layer_1-2" data-name="Layer 1">
    <g>
      <polyline class="cls-1" points="114.48 21.7 77.33 1.14 38.6 21.96"/>
      <polygon class="cls-1" points="76.21 43.89 38.6 22.52 38.6 65.47 76.21 87.49 76.21 43.89"/>
      <polygon class="cls-1" points="38.62 108.06 1 86.69 1 129.64 38.62 151.66 38.62 108.06"/>
      <polygon class="cls-1" points="113.81 108.06 76.2 86.69 76.2 129.64 113.81 151.66 113.81 108.06"/>
      <polygon class="cls-1" points="38.6 108.06 76.21 86.69 76.21 129.64 38.6 151.66 38.6 108.06"/>
      <polygon class="cls-1" points="76.2 43.89 113.81 22.52 113.81 65.47 76.2 87.49 76.2 43.89"/>
      <polygon class="cls-1" points="113.72 108.06 151.34 86.69 151.34 129.64 113.72 151.66 113.72 108.06"/>
      <line class="cls-1" x1="1" y1="86.69" x2="38.6" y2="65.47"/>
      <line class="cls-1" x1="113.81" y1="65.47" x2="151.34" y2="86.69"/>
    </g>
  </g>
</svg>