<?xml version="1.0" encoding="UTF-8"?>
<svg id="Layer_2" data-name="Layer 2" xmlns="http://www.w3.org/2000/svg" viewBox="0 0 1278.76 420.59">
  <defs>
    <style>
      .cls-1 {
        fill: #fff;
        stroke-width: 0px;
      }
    </style>
  </defs>
  <g id="Layer_1-2" data-name="Layer 1">
    <g id="jhvpeW.tif">
      <g>
        <path class="cls-1" d="M180.16,0c4.75.72,9.52,1.37,14.26,2.17,31.45,5.37,58.61,19.24,81.65,41.23.37.35.6.86.46.65-10.32,10.34-20.49,20.53-31.2,31.25-.49-.35-1.99-1.24-3.27-2.37-62.53-55.16-171.3-27.44-190.56,65.95-11.04,53.54,14.28,107.43,61.99,129.98,41.32,19.53,82.32,17.6,120.91-8.3,21.83-14.65,33.06-36.03,37-61.58.19-1.21.13-2.46.24-4.69h-105.07v-44.59h149.89c.73,6.53,1.97,13.01,2.1,19.51.72,36.08-6.12,70.27-28.62,99.53-20.49,26.65-47.23,44.55-80.21,52.39-41.21,9.79-81.34,6.55-119.06-13.14C42.16,282.67,11.49,242.98,2.39,188.82-5.86,139.69,7.38,95.62,40.01,57.79,67.16,26.33,101.7,7.91,142.75,1.54,145.91,1.05,149.06.52,152.22,0c9.31,0,18.63,0,27.94,0Z"/>
        <path class="cls-1" d="M800.02,358.06c13.42-5.55,26.38-10.92,39.75-16.45,1.41,2.47,2.46,4.29,3.48,6.12,16.47,29.45,46.55,37.54,75.55,25.79,9.8-3.97,17.04-11.08,22.05-20.35,7.08-13.12,10.39-37.53,6.69-49.73-1.17.96-2.27,1.77-3.26,2.7-17.39,16.17-38.25,22-61.43,19.59-44.36-4.61-80.52-39.4-89.35-82.49-12.31-60.02,27.3-115.64,82.56-125.69,26.27-4.78,49.75,1.06,69.54,19.58.51.47,1.13.82,2.56,1.85.34-5.64.63-10.61.96-16.1h43.59c.28,2.27.74,4.34.74,6.4.04,59.18.22,118.36-.09,177.54-.09,17.68-1.47,35.35-7.63,52.27-10.96,30.13-31.67,49.69-62.88,57.61-26.44,6.71-52.29,5.14-76.76-7.65-19.99-10.45-34.71-26.18-44.43-46.52-.53-1.11-.86-2.32-1.63-4.46ZM951.81,221.71c.43-.09.86-.18,1.3-.27-1.89-8.84-2.81-18.03-5.85-26.45-12.94-35.77-53.61-48.47-83.75-26.43-15.34,11.22-23.53,26.82-25.14,45.49-2.22,25.74,5.83,47.37,28.3,61.83,26.34,16.95,60,8.59,75.95-18.34,6.55-11.06,9.61-22.99,9.19-35.83Z"/>
        <path class="cls-1" d="M441.9,326.39c-59.9.01-106.11-45.96-106.06-105.5.05-59.18,46.36-105.17,105.91-105.19,59.83-.02,106.11,46.05,106.07,105.58-.04,59.19-46.3,105.1-105.92,105.11ZM382.92,225.33c.99,4.36,1.92,13.2,5,21.22,15.92,41.33,68.11,50.89,97.11,17.84,14.76-16.82,18-36.89,13.99-58.32-7.22-38.61-49.11-59.64-83.49-41.59-22.5,11.81-31.81,31.78-32.62,60.86Z"/>
        <path class="cls-1" d="M1278.76,195.18c-46.61,19.3-92.96,38.5-139.23,57.66,4.91,17.79,26.41,31.1,49.08,31.36,22.69.26,39.08-10.73,52.11-29,12.15,8.07,23.84,15.83,36.09,23.96-1.28,2.08-2.15,3.76-3.27,5.26-45.19,60.56-138.67,54.86-176.03-10.73-23.24-40.81-15.18-99.07,17.71-130.56,40.57-38.85,112.97-40.6,149.25,20.16,5.01,8.39,8.45,17.71,12.55,26.63.65,1.42,1,2.98,1.73,5.26ZM1131.66,216.97c31.16-12.92,61.38-25.46,92.46-38.35-2.29-3.33-3.72-5.99-5.69-8.16-8.92-9.8-20.66-13.71-33.33-13.18-21.55.91-37.45,11.87-47.74,30.6-4.68,8.52-6.98,17.82-5.7,29.08Z"/>
        <path class="cls-1" d="M669.66,326.25c-59.84.02-105.95-45.68-105.97-105.03-.02-59.48,46.04-105.62,105.69-105.32,58.46.29,105.84,43.36,105.74,105.31-.11,64.18-50.92,105.43-105.46,105.04ZM728.94,220.82c-1.04-6.32-1.57-12.77-3.21-18.93-11.01-41.48-60.29-57.9-92.77-31.05-25.54,21.12-30.31,62.24-10.37,89.38,19.79,26.94,55.7,32.37,82.13,11.92,16.59-12.83,23.36-30.61,24.22-51.32Z"/>
        <path class="cls-1" d="M1020.85,12.2h44.17v307.19h-44.17V12.2Z"/>
      </g>
    </g>
  </g>
</svg>