<svg width="956" height="956" viewBox="0 0 956 956" fill="none" xmlns="http://www.w3.org/2000/svg">
<path fill-rule="evenodd" clip-rule="evenodd" d="M454.579 422.616C455.283 422.578 455.987 422.543 456.693 422.509L318.595 80.7058L316.741 81.455L454.579 422.616ZM477 422.001C477.333 422 477.666 422 478 422C478.333 422 478.667 422 479 422.001V75.9154H477V422.001ZM500.409 422.563C501.118 422.599 501.827 422.637 502.534 422.676L668.034 32.7815L666.193 32L500.409 422.563ZM529.469 425.032C530.311 425.133 531.15 425.237 531.987 425.343L809.633 147.697L808.219 146.282L529.469 425.032ZM581.457 435.037C582.516 435.326 583.569 435.62 584.615 435.918L949.384 288.542L948.635 286.688L581.457 435.037ZM662.963 476.915C663.616 477.578 664.252 478.245 664.872 478.915H820V476.915H662.963ZM662.082 554.967C661.571 555.473 661.049 555.976 660.519 556.476L886.313 652.32L887.095 650.479L662.082 554.967ZM593.803 592.304C593.09 592.533 592.374 592.759 591.654 592.984L808.219 809.548L809.633 808.134L593.803 592.304ZM530.752 605.812C530.068 605.896 529.383 605.979 528.696 606.061L640.401 882.542L642.256 881.793L530.752 605.812ZM479 608.999C478.667 609 478.333 609 478 609C477.666 609 477.333 609 477 608.999V955.915H479V608.999ZM424.289 605.692C423.6 605.605 422.913 605.517 422.227 605.427L330.437 819.418L332.278 820.199L424.289 605.692ZM364.346 592.983C363.626 592.759 362.91 592.533 362.197 592.304L146.367 808.134L147.781 809.548L364.346 592.983ZM292.783 553.826C292.278 553.309 291.783 552.79 291.299 552.269L80.7906 637.319L81.5399 639.174L292.783 553.826ZM291.128 478.915C291.748 478.245 292.384 477.578 293.037 476.915H118V478.915H291.128ZM147.781 146.282L426.53 425.032C425.689 425.133 424.85 425.237 424.013 425.343L146.367 147.697L147.781 146.282ZM378.22 434.055L121.769 324.101L120.988 325.942L375.088 434.888C376.126 434.607 377.17 434.329 378.22 434.055Z" fill="url(#paint0_radial_776_991)"/>
<defs>
<radialGradient id="paint0_radial_776_991" cx="0" cy="0" r="1" gradientUnits="userSpaceOnUse" gradientTransform="translate(150.5 278.5) rotate(14.9168) scale(631.274 631.274)">
<stop stop-color="#9353FF" stop-opacity="0"/>
<stop offset="0.340572" stop-color="#9353FF"/>
<stop offset="0.695271" stop-color="#9353FF" stop-opacity="0"/>
<stop offset="0.874253" stop-color="#9353FF"/>
<stop offset="1" stop-color="#FAFAFA" stop-opacity="0"/>
</radialGradient>
</defs>
</svg>
