<?xml version="1.0" encoding="UTF-8"?>
<svg id="Layer_2" data-name="Layer 2" xmlns="http://www.w3.org/2000/svg" viewBox="0 0 1266.95 367.37">
  <defs>
    <style>
      .cls-1 {
        fill: #fff;
        stroke-width: 0px;
      }
    </style>
  </defs>
  <g id="Layer_1-2" data-name="Layer 1">
    <g>
      <path class="cls-1" d="M0,68.49h44.18v98.15h93.17v-98.15h44.23v240.93h-44.23v-100.21H44.18v100.21H0V68.49ZM321.54,230.94c0,20.17-16.43,36.58-36.59,36.58s-36.59-16.41-36.59-36.58v-103.73h-41.9v103.73c0,43.27,35.21,78.47,78.49,78.47s78.48-35.2,78.48-78.47v-103.73h-41.88v103.73M480.37,128.43c-20.78,0-35.29,6.03-49.3,19.78v-79.72h-42.03v147.75c0,55.3,39.99,93.18,84.91,93.18,49.94,0,93.7-38.55,93.7-90.49s-40.35-90.49-87.28-90.49h0ZM481.42,270.53c-28.48,0-50.26-23.79-50.26-51.61s21.78-51.62,50.26-51.62c24.13,0,45.92,23.79,45.92,51.62s-21.79,51.61-45.92,51.61ZM638.24,139.02c0-21.13,14.08-27.83,29.49-27.83,12.41,0,28.83,9.38,39.54,20.78l27.48-32.17c-13.73-18.43-41.54-31.17-64.34-31.17-45.59,0-78.43,26.48-78.43,70.39,0,81.44,100.22,55.62,100.22,101.22,0,14.06-13.74,26.47-29.48,26.47-24.81,0-32.86-12.07-44.25-24.81l-30.5,31.5c19.45,23.8,43.57,35.87,72.4,35.87,43.23,0,78.09-26.81,78.09-68.71,0-90.49-100.21-62.33-100.21-101.54M849.11,126.07c-44.92,0-84.91,37.85-84.91,93.17v148.13h42.03v-80.1c14.01,13.74,28.51,19.78,49.3,19.78,46.92,0,87.28-39.21,87.28-90.49s-43.77-90.49-93.7-90.49h0ZM856.58,268.18c-28.48,0-50.26-23.82-50.26-51.62s21.78-51.62,50.26-51.62c24.13,0,45.92,23.79,45.92,51.62s-21.79,51.62-45.92,51.62ZM1252.19,270.53c-24.79,0-31.83-10.72-31.83-27.15v-72.72h38.54v-36.86h-38.54v-48.6l-42.55,19.1v148.14c0,37.88,26.13,56.98,61.98,56.98,5.36,0,12.74-.35,16.77-1.34l10.39-38.2c-4.69.32-10.05.66-14.76.66"/>
      <path class="cls-1" d="M1141.35,172.8c-8.06-13.86-19.39-24.98-33.56-33.34-10.59-6.16-21.57-10.08-33.94-11.76v-44.05c12.37-5.25,20.05-16.88,20.05-30.45,0-18.49-14.83-33.47-33.3-33.47s-33.58,14.98-33.58,33.47c0,13.57,7.24,25.19,19.61,30.45v44.07c-9.9,1.43-20.16,4.52-29.54,9.26-19.15-14.54-81.93-62.24-118.65-90.11.87-3.14,1.54-6.38,1.54-9.79,0-20.48-16.59-37.08-37.07-37.08s-37.07,16.6-37.07,37.08,16.59,37.08,37.08,37.08c6.99,0,13.45-2.04,19.03-5.4l7.75,5.88,106.5,76.73c-5.63,5.17-10.87,11.05-15.07,17.65-8.5,13.45-13.69,28.25-13.69,44.39v3.37c0,11.33,2.15,22.03,5.82,32.08,3.23,8.78,7.95,16.75,13.8,23.97l-35.35,35.43c-10.46-3.89-22.23-1.31-30.11,6.6-5.39,5.36-8.41,12.66-8.38,20.27,0,7.65,2.98,14.85,8.4,20.26,5.36,5.39,12.66,8.42,20.26,8.4,7.61.02,14.91-3,20.27-8.4,5.39-5.36,8.41-12.66,8.39-20.26,0-2.96-.46-5.85-1.32-8.6l36.53-36.54c5.01,3.46,10.42,6.37,16.23,8.88,11.47,4.96,24.13,7.98,37.99,7.98h2.54c15.32,0,29.77-3.6,43.35-10.96,14.31-7.78,25.52-18.41,33.98-31.99,8.51-13.62,13.19-28.66,13.19-45.21v-.83c0-16.28-3.77-31.3-11.69-45.06h0ZM1096.71,249.45c-9.92,11.02-21.31,17.81-34.2,17.81h-2.12c-7.36,0-14.56-2.03-21.61-5.73-7.94-4.07-13.98-9.88-18.92-17.24-5.11-7.22-7.88-15.11-7.88-23.46v-2.54c0-8.22,1.58-16.01,5.55-23.37,4.25-8.05,9.99-14.3,17.62-19.27,7.49-4.94,15.5-7.36,24.41-7.36h.83c8.08,0,15.73,1.59,22.95,5.29,7.36,3.94,13.37,9.32,18.03,16.4,4.53,7.08,7.22,14.72,8.08,23.04.14,1.73.21,3.5.21,5.19,0,11.29-4.32,21.75-12.95,31.25h0Z"/>
    </g>
  </g>
</svg>