<svg width="40" height="40" viewBox="0 0 40 40" fill="none" xmlns="http://www.w3.org/2000/svg">
<path d="M15.9886 25.1387H8.93144L7.48966 29.6158C7.45172 29.7865 7.29995 29.9003 7.12922 29.8813H3.56271C3.35404 29.8813 3.29712 29.7675 3.35404 29.5399L9.46262 12.0299C9.51953 11.8402 9.57644 11.6694 9.65232 11.4418C9.72821 11.0434 9.76615 10.626 9.76615 10.2087C9.74718 10.1138 9.82306 10.019 9.91792 10H9.97483H14.8313C14.9641 10 15.059 10.0569 15.078 10.1518L22.0023 29.5019C22.0592 29.7106 22.0023 29.8055 21.8126 29.8055H17.8477C17.7149 29.8244 17.5821 29.7296 17.5442 29.5968L15.9886 25.0438V25.1387ZM10.0317 21.3635H14.8503C14.7365 20.9651 14.5847 20.4908 14.414 19.9976C14.2432 19.4854 14.0725 18.9352 13.9018 18.3661C13.7121 17.778 13.5413 17.2089 13.3516 16.6208C13.1619 16.0327 12.9912 15.4825 12.8394 14.9324C12.6876 14.4012 12.5548 13.908 12.4221 13.4527H12.3841C12.2134 14.2684 12.0047 15.0842 11.7391 15.8999C11.4545 16.8105 11.17 17.759 10.8665 18.7076C10.6198 19.6751 10.3163 20.5667 10.0317 21.3635Z" fill="#9999FF"/>
<path d="M33.176 23.4312H27.1623C27.2382 24.0193 27.4279 24.6074 27.7504 25.1196C28.0918 25.6318 28.5661 26.0302 29.1352 26.2578C29.8941 26.5803 30.7288 26.7511 31.5635 26.7321C32.2275 26.7131 32.8914 26.6562 33.5364 26.5234C34.1245 26.4475 34.6937 26.2958 35.2248 26.0871C35.3197 26.0112 35.3766 26.0492 35.3766 26.2389V29.1414C35.3766 29.2173 35.3576 29.2932 35.3387 29.369C35.3007 29.4259 35.2628 29.4639 35.2059 29.5018C34.5988 29.7674 33.9728 29.9571 33.3088 30.071C32.4172 30.2417 31.5255 30.3176 30.6149 30.2986C29.1732 30.2986 27.959 30.071 26.9726 29.6346C26.043 29.2362 25.2273 28.6102 24.5822 27.8324C23.9752 27.0925 23.5389 26.2578 23.2733 25.3472C23.0077 24.4556 22.8749 23.526 22.8749 22.5775C22.8749 21.5531 23.0266 20.5476 23.3491 19.5612C23.6527 18.6126 24.1269 17.74 24.772 16.9622C25.398 16.2033 26.1758 15.5963 27.0674 15.1599C27.959 14.7236 29.0214 14.5718 30.2355 14.5718C31.241 14.5529 32.2464 14.7426 33.176 15.1599C33.9538 15.5014 34.6367 16.0136 35.1679 16.6776C35.6612 17.3226 36.0596 18.0435 36.3062 18.8403C36.5528 19.5991 36.6666 20.3769 36.6666 21.1547C36.6666 21.61 36.6476 22.0084 36.6287 22.3688C36.5907 22.7293 36.5718 22.9949 36.5528 23.1656C36.5338 23.2984 36.42 23.4122 36.2872 23.4122C36.1734 23.4122 35.9647 23.4312 35.6612 23.4502C35.3576 23.4881 34.9972 23.5071 34.5609 23.5071C34.1245 23.5071 33.6692 23.4312 33.176 23.4312ZM27.1623 20.6615H31.1651C31.6583 20.6615 32.0188 20.6615 32.2464 20.6425C32.3982 20.6235 32.55 20.5856 32.6828 20.4907V20.301C32.6828 20.0544 32.6448 19.8267 32.5689 19.5991C32.2275 18.5367 31.222 17.8158 30.1027 17.8538C29.0593 17.7969 28.0729 18.347 27.5796 19.2956C27.352 19.7319 27.2192 20.1872 27.1623 20.6615Z" fill="#9999FF"/>
</svg>
