<svg width="40" height="40" viewBox="0 0 40 40" fill="none" xmlns="http://www.w3.org/2000/svg">
<path d="M18.2199 6.4175L5.79685 11.5564C5.10346 11.8396 5.11257 12.8253 5.80596 13.0988L18.2837 18.0463C19.3788 18.4844 20.6022 18.4844 21.6973 18.0463L34.175 13.0988C34.8684 12.8247 34.8782 11.839 34.1841 11.5564L21.7617 6.4175C20.6204 5.94287 19.3521 5.94287 18.2199 6.4175Z" fill="#FFBF00"/>
<path d="M21.0951 20.748V33.1072C21.0951 33.6912 21.6882 34.0929 22.2357 33.8833L36.1374 28.4885C36.457 28.3609 36.6667 28.0595 36.6667 27.7125V15.3539C36.6667 14.7699 36.0736 14.3681 35.526 14.5778L21.6244 19.9726C21.3054 20.1002 21.0951 20.401 21.0951 20.748Z" fill="#26B5F8"/>
<path d="M17.8455 21.3878L13.7197 23.3775L13.2998 23.578L4.59237 27.7494C4.04482 28.0144 3.33255 27.6127 3.33255 27.0013V15.3999C3.33255 15.1812 3.44193 14.9891 3.59754 14.8433C3.66134 14.7794 3.73426 14.7248 3.80718 14.6883C4.01682 14.5607 4.30915 14.5333 4.56502 14.6336L17.7733 19.8637C18.4484 20.128 18.5031 21.0681 17.8455 21.3878Z" fill="#ED3049"/>
<path d="M4.2636 14.5688C4.09953 14.5688 3.94392 14.6144 3.82543 14.6873C3.75251 14.7329 3.67959 14.7785 3.61578 14.8423L13.7204 23.3765L17.8462 21.3868C18.1568 21.2319 18.3117 20.9396 18.3117 20.6472C18.3117 20.3276 18.1294 19.9994 17.7824 19.862L4.57416 14.6327C4.47324 14.5871 4.36386 14.5688 4.2636 14.5688Z" fill="#B22437"/>
</svg>
