<svg width="40" height="40" viewBox="0 0 40 40" fill="none" xmlns="http://www.w3.org/2000/svg">
<path d="M15.001 35C17.7605 35 20 32.76 20 30V25H15.001C12.2416 25 10.002 27.24 10.002 30C10.002 32.76 12.2416 35 15.001 35Z" fill="#0ACF83"/>
<path d="M10.002 20C10.002 17.24 12.2416 15 15.001 15H20V25H15.001C12.2416 25 10.002 22.76 10.002 20Z" fill="#A259FF"/>
<path d="M10.0022 10C10.0022 7.24 12.2417 5 15.0012 5H20.0002V15H15.0012C12.2417 15 10.0022 12.76 10.0022 10Z" fill="#F24E1E"/>
<path d="M20 5H24.999C27.7584 5 29.998 7.24 29.998 10C29.998 12.76 27.7584 15 24.999 15H20V5Z" fill="#FF7262"/>
<path d="M29.998 20C29.998 22.76 27.7584 25 24.999 25C22.2396 25 20 22.76 20 20C20 17.24 22.2396 15 24.999 15C27.7584 15 29.998 17.24 29.998 20Z" fill="#1ABCFE"/>
</svg>
