<svg width="40" height="40" viewBox="0 0 40 40" fill="none" xmlns="http://www.w3.org/2000/svg">
<path d="M20.0122 27.366H11.2721L9.4865 32.8873C9.43951 33.0988 9.25155 33.2398 9.04009 33.2163H4.62305C4.36461 33.2163 4.29412 33.0753 4.36461 32.7934L11.93 11.0136C12.0005 10.7786 12.0709 10.5202 12.1649 10.2382C12.2589 9.74486 12.3059 9.22797 12.3059 8.71108C12.2824 8.59361 12.3764 8.47613 12.4938 8.45264H12.5643H18.579C18.767 8.45264 18.861 8.52312 18.8845 8.6406L27.4601 32.8403C27.5306 33.0988 27.4601 33.2163 27.2252 33.2163H22.3147C22.1503 33.2398 21.9858 33.1223 21.9388 32.9578L20.0122 27.366ZM12.6348 22.5966H18.6025C18.4616 22.1032 18.2736 21.5158 18.0621 20.9049C17.8507 20.2706 17.6392 19.5892 17.4278 18.8844C17.1928 18.156 16.9814 17.4512 16.7464 16.7228C16.5115 15.9945 16.3 15.3131 16.1121 14.6318C15.9241 13.9739 15.7596 13.3631 15.5952 12.7992H15.5482C15.3367 13.8095 15.0783 14.8198 14.7494 15.83C14.3969 16.9578 14.0445 18.1325 13.6686 19.3073C13.3397 20.5055 12.9872 21.6098 12.6348 22.5966Z" fill="#FF9A00"/>
<path d="M32.6995 12.564C31.9241 12.5875 31.1723 12.282 30.6084 11.7416C30.068 11.1543 29.7861 10.3789 29.8096 9.58012C29.7861 8.78129 30.0915 8.02945 30.6554 7.48907C31.2193 6.94869 31.9711 6.66675 32.7464 6.66675C33.6628 6.66675 34.3676 6.94869 34.8845 7.48907C35.4014 8.05295 35.6833 8.80478 35.6598 9.58012C35.6833 10.3789 35.4014 11.1543 34.8375 11.7416C34.2971 12.3055 33.4983 12.611 32.6995 12.564ZM30.068 32.9575V14.8665C30.068 14.6315 30.162 14.5375 30.3735 14.5375H35.0255C35.2369 14.5375 35.3309 14.655 35.3309 14.8665V32.9575C35.3309 33.216 35.2369 33.3335 35.0255 33.3335H30.4205C30.1855 33.3335 30.068 33.1925 30.068 32.9575Z" fill="#FF9A00"/>
</svg>
