<svg width="40" height="40" viewBox="0 0 40 40" fill="none" xmlns="http://www.w3.org/2000/svg">
<g clip-path="url(#clip0_843_1188)">
<path fill-rule="evenodd" clip-rule="evenodd" d="M31.9909 16.5652L35.8797 25.7519C36.6667 27.6109 35.8718 29.7889 34.1042 30.6166C32.3367 31.4443 30.2659 30.6082 29.479 28.7492L26.3353 21.3229L24.9498 24.7557V16.5652H31.9909Z" fill="#2AA8FF"/>
<path fill-rule="evenodd" clip-rule="evenodd" d="M32.4123 17.5608L33.2169 19.4615C32.731 19.2839 32.2088 19.1874 31.6653 19.1874C29.42 19.1874 27.5408 20.8338 27.0621 23.04L26.3353 21.3228L25.5649 23.2316V17.5608H32.4123Z" fill="#393939" fill-opacity="0.2"/>
<path fill-rule="evenodd" clip-rule="evenodd" d="M20.7089 16.4039V22.9094H14.2303L13.5587 21.3229L12.9184 22.9094H5.75232V21.8056L10.2437 10.6768C10.8118 9.26926 12.1141 8.42589 13.4822 8.43093C14.828 8.42599 16.1141 9.24159 16.6966 10.6178L19.9461 18.294L20.7089 16.4039Z" fill="#017ACE"/>
<path fill-rule="evenodd" clip-rule="evenodd" d="M19.9414 18.2829L19.9461 18.294L23.0203 10.6768C23.5883 9.26926 24.8907 8.42589 26.2588 8.43093C27.6045 8.42599 28.8907 9.24159 29.4732 10.6178L33.2136 19.4539C32.4593 18.7688 31.4766 18.3545 30.4018 18.3545C28.5343 18.3545 26.9446 19.6053 26.3484 21.354L26.3353 21.3229L23.3154 28.8056C22.5594 30.6788 20.5028 31.5528 18.7218 30.7576C18.5503 30.6812 18.3848 30.5905 18.2269 30.4865C17.5738 30.113 17.0281 29.5188 16.7024 28.7493L13.5709 21.3517C14.0422 21.4937 14.5401 21.5697 15.0549 21.5697C17.2209 21.5697 19.0881 20.2234 19.9414 18.2829H19.9414Z" fill="#AEDEFF"/>
<path fill-rule="evenodd" clip-rule="evenodd" d="M13.5393 21.3711L11.2841 26.9588C10.7342 27.2244 10.1214 27.3723 9.47528 27.3723C7.20897 27.3723 5.3516 25.5526 5.18222 23.2183L6.72981 19.3836C7.47504 18.7346 8.43181 18.3445 9.47528 18.3445C11.3535 18.3445 12.9508 19.6084 13.5393 21.3711Z" fill="black"/>
<path fill-rule="evenodd" clip-rule="evenodd" d="M12.8774 23.0112L10.5388 28.8057C9.78286 30.6789 7.7262 31.5528 5.94523 30.7577C4.16423 29.9626 3.33333 27.7995 4.08929 25.9263L6.68604 19.492C7.23574 19.2361 7.84371 19.094 8.48309 19.094C10.6906 19.094 12.5232 20.7879 12.8774 23.0112V23.0112Z" fill="#393939"/>
</g>
<defs>
<clipPath id="clip0_843_1188">
<rect width="33.3333" height="23.3333" fill="white" transform="translate(3.33333 8.33325)"/>
</clipPath>
</defs>
</svg>
