<svg width="40" height="40" viewBox="0 0 40 40" fill="none" xmlns="http://www.w3.org/2000/svg">
<path fill-rule="evenodd" clip-rule="evenodd" d="M9.57975 9.26516C10.6112 10.1032 10.9981 10.0392 12.935 9.90998L31.1946 8.81358C31.5819 8.81358 31.2599 8.42723 31.1307 8.36303L28.0982 6.17074C27.5171 5.71961 26.743 5.20298 25.2592 5.33222L7.57841 6.6218C6.93358 6.68574 6.8048 7.00815 7.06158 7.26656L9.57975 9.26516ZM10.676 13.5206V32.7329C10.676 33.7654 11.192 34.1517 12.3533 34.0879L32.4207 32.9267C33.5826 32.8628 33.712 32.1526 33.712 31.3138V12.2304C33.712 11.393 33.3899 10.9414 32.6786 11.0059L11.708 12.2304C10.9341 12.2955 10.676 12.6826 10.676 13.5206H10.676ZM30.4865 14.5512C30.6151 15.132 30.4865 15.7123 29.9045 15.7776L28.9377 15.9702V30.154C28.0982 30.6052 27.3241 30.8632 26.679 30.8632C25.6462 30.8632 25.3875 30.5405 24.6139 29.574L18.2894 19.6453V29.2516L20.2907 29.7032C20.2907 29.7032 20.2907 30.8632 18.676 30.8632L14.2248 31.1214C14.0955 30.8632 14.2248 30.219 14.6763 30.0899L15.8379 29.768V17.0666L14.2251 16.9373C14.0957 16.3565 14.4179 15.519 15.3219 15.4541L20.0971 15.1322L26.679 25.1902V16.2926L25.0008 16.1C24.8721 15.3899 25.3875 14.8744 26.0329 14.8104L30.4865 14.5512ZM6.09389 4.88116L24.4848 3.52679C26.7432 3.3331 27.3243 3.46286 28.7438 4.49396L34.6144 8.62014C35.5831 9.32968 35.9059 9.52285 35.9059 10.2963V32.9267C35.9059 34.345 35.3892 35.1837 33.5829 35.3121L12.2255 36.6018C10.8695 36.6664 10.2242 36.4732 9.51405 35.57L5.19085 29.9609C4.41627 28.9284 4.09412 28.1559 4.09412 27.2522V7.13686C4.09412 5.97704 4.61094 5.00955 6.09389 4.88116Z" fill="white"/>
</svg>
