<svg width="40" height="40" viewBox="0 0 40 40" fill="none" xmlns="http://www.w3.org/2000/svg">
<path d="M3.33337 31.6801V7.92805C3.33337 7.76647 3.40262 7.67414 3.5642 7.67414C3.95661 7.67414 4.32593 7.67414 4.85683 7.65106C5.41082 7.62798 5.98788 7.62798 6.61112 7.60489C7.23435 7.58181 7.90375 7.58181 8.61931 7.55873C9.33487 7.53564 10.0274 7.53564 10.7198 7.53564C12.6126 7.53564 14.1822 7.76647 15.4749 8.25121C16.629 8.64361 17.6908 9.28993 18.568 10.144C19.3066 10.8826 19.8837 11.7829 20.253 12.7754C20.5992 13.7449 20.7839 14.7374 20.7839 15.7762C20.7839 17.7613 20.3222 19.4001 19.3989 20.6928C18.4756 21.9854 17.183 22.9549 15.6826 23.5089C14.113 24.0859 12.3818 24.2937 10.489 24.2937C9.93502 24.2937 9.5657 24.2937 9.33487 24.2706C9.10405 24.2475 8.78089 24.2475 8.34232 24.2475V31.6571C8.3654 31.8186 8.24999 31.9571 8.08841 31.9802C8.06533 31.9802 8.04224 31.9802 7.99608 31.9802H3.61037C3.4257 31.9802 3.33337 31.8879 3.33337 31.6801ZM8.3654 12.1291V19.8849C8.68856 19.908 8.98863 19.9311 9.26563 19.9311H10.489C11.3892 19.9311 12.2895 19.7926 13.1435 19.5156C13.8822 19.3078 14.5285 18.8692 15.0363 18.2922C15.521 17.7151 15.7519 16.9303 15.7519 15.9147C15.7749 15.1991 15.5903 14.4835 15.221 13.8603C14.8286 13.2602 14.2746 12.7985 13.6052 12.5446C12.7511 12.1983 11.8278 12.0599 10.8814 12.0829C10.2813 12.0829 9.75036 12.0829 9.31179 12.106C8.85014 12.0829 8.52698 12.106 8.3654 12.1291Z" fill="#31A8FF"/>
<path d="M35.1875 18.4765C34.4951 18.1071 33.7564 17.8532 32.9716 17.6916C32.1175 17.507 31.2635 17.3916 30.3863 17.3916C29.9247 17.3685 29.44 17.4377 29.0014 17.5531C28.7013 17.6224 28.4474 17.784 28.2858 18.0148C28.1704 18.1995 28.1012 18.4303 28.1012 18.638C28.1012 18.8458 28.1935 19.0535 28.332 19.2382C28.5397 19.4921 28.8167 19.6998 29.1168 19.8614C29.6477 20.1384 30.2017 20.3923 30.7557 20.6231C32.0021 21.0386 33.2024 21.6157 34.3104 22.3082C35.0721 22.7929 35.6954 23.4392 36.1339 24.224C36.5033 24.9627 36.6879 25.7706 36.6648 26.6016C36.6879 27.6864 36.3648 28.7713 35.7646 29.6716C35.1183 30.5949 34.2181 31.3104 33.1794 31.7259C32.0483 32.2107 30.6633 32.4646 29.0014 32.4646C27.9396 32.4646 26.9009 32.3722 25.8621 32.1645C25.0542 32.026 24.2463 31.7721 23.5077 31.4258C23.3461 31.3335 23.2307 31.1719 23.2538 30.9873V26.9709C23.2538 26.9016 23.2769 26.8093 23.3461 26.7631C23.4154 26.717 23.4846 26.7401 23.5539 26.7862C24.4541 27.3171 25.4005 27.6864 26.4161 27.9173C27.2933 28.1481 28.2166 28.2635 29.1399 28.2635C30.017 28.2635 30.6403 28.1481 31.0557 27.9404C31.4251 27.7788 31.679 27.3864 31.679 26.9709C31.679 26.6477 31.4943 26.3477 31.125 26.0476C30.7557 25.7475 29.9939 25.4013 28.8629 24.9627C27.6857 24.5472 26.6008 23.9932 25.5851 23.3007C24.8696 22.7929 24.2694 22.1235 23.8309 21.3387C23.4615 20.6001 23.2769 19.7922 23.3 18.9843C23.3 17.9917 23.577 17.0453 24.0848 16.1913C24.6618 15.268 25.5159 14.5293 26.5085 14.0677C27.5933 13.5137 28.9552 13.2598 30.5941 13.2598C31.5405 13.2598 32.51 13.329 33.4563 13.4675C34.1488 13.5598 34.8182 13.7445 35.4415 13.9984C35.5338 14.0215 35.6261 14.1138 35.6723 14.2062C35.6954 14.2985 35.7184 14.3908 35.7184 14.4831V18.2456C35.7184 18.338 35.6723 18.4303 35.603 18.4765C35.3953 18.5226 35.2799 18.5226 35.1875 18.4765Z" fill="#31A8FF"/>
</svg>
