<svg width="40" height="40" viewBox="0 0 40 40" fill="none" xmlns="http://www.w3.org/2000/svg">
<path d="M10.361 24.406C10.361 26.3433 8.79639 27.9091 6.86057 27.9091C4.92474 27.9091 3.36017 26.3433 3.36017 24.406C3.36017 22.4686 4.92474 20.9028 6.86057 20.9028H10.361V24.406ZM12.1112 24.406C12.1112 22.4686 13.6757 20.9028 15.6116 20.9028C17.5474 20.9028 19.112 22.4686 19.112 24.406V33.1639C19.112 35.1012 17.5474 36.667 15.6116 36.667C13.6757 36.667 12.1112 35.1012 12.1112 33.1639V24.406Z" fill="#E01E5A"/>
<path d="M15.6112 10.3398C13.6754 10.3398 12.1108 8.77399 12.1108 6.83665C12.1108 4.8993 13.6754 3.3335 15.6112 3.3335C17.5471 3.3335 19.1116 4.8993 19.1116 6.83665V10.3398H15.6112ZM15.6112 12.1179C17.5471 12.1179 19.1116 13.6837 19.1116 15.6211C19.1116 17.5584 17.5471 19.1242 15.6112 19.1242H6.83371C4.89788 19.1242 3.33331 17.5584 3.33331 15.6211C3.33331 13.6837 4.89788 12.1179 6.83371 12.1179H15.6112Z" fill="#36C5F0"/>
<path d="M29.6395 15.6211C29.6395 13.6837 31.2041 12.1179 33.1399 12.1179C35.0757 12.1179 36.6403 13.6837 36.6403 15.6211C36.6403 17.5584 35.0757 19.1242 33.1399 19.1242H29.6395V15.6211ZM27.8893 15.6211C27.8893 17.5584 26.3247 19.1242 24.3889 19.1242C22.4531 19.1242 20.8885 17.5584 20.8885 15.6211V6.83665C20.8885 4.8993 22.4531 3.3335 24.3889 3.3335C26.3247 3.3335 27.8893 4.8993 27.8893 6.83665V15.6211Z" fill="#2EB67D"/>
<path d="M24.3889 29.6607C26.3247 29.6607 27.8893 31.2265 27.8893 33.1639C27.8893 35.1012 26.3247 36.667 24.3889 36.667C22.4531 36.667 20.8885 35.1012 20.8885 33.1639V29.6607H24.3889ZM24.3889 27.9091C22.4531 27.9091 20.8885 26.3433 20.8885 24.406C20.8885 22.4686 22.4531 20.9028 24.3889 20.9028H33.1664C35.1022 20.9028 36.6668 22.4686 36.6668 24.406C36.6668 26.3433 35.1022 27.9091 33.1664 27.9091H24.3889Z" fill="#ECB22E"/>
</svg>
