<svg width="40" height="40" viewBox="0 0 40 40" fill="none" xmlns="http://www.w3.org/2000/svg">
<path fill-rule="evenodd" clip-rule="evenodd" d="M36.6667 6.66683C36.6667 5.78277 36.3155 4.93493 35.6904 4.30981C35.0652 3.68469 34.2174 3.3335 33.3333 3.3335H6.66667C5.78261 3.3335 4.93477 3.68469 4.30964 4.30981C3.68452 4.93493 3.33333 5.78277 3.33333 6.66683L3.33333 33.3335C3.33333 34.2175 3.68452 35.0654 4.30964 35.6905C4.93477 36.3156 5.78261 36.6668 6.66667 36.6668H33.3333C34.2174 36.6668 35.0652 36.3156 35.6904 35.6905C36.3155 35.0654 36.6667 34.2175 36.6667 33.3335V6.66683ZM32.5 26.2502H7.5V32.5002H32.5V26.2502Z" fill="#FF4F00"/>
</svg>
