<?xml version="1.0" encoding="UTF-8"?>
<svg id="Layer_2" data-name="Layer 2" xmlns="http://www.w3.org/2000/svg" viewBox="0 0 1266.95 376.29">
  <defs>
    <style>
      .cls-1 {
        fill: #fff;
        stroke-width: 0px;
      }
    </style>
  </defs>
  <g id="Layer_1-2" data-name="Layer 1">
    <g id="_5RQam2.tif" data-name="5RQam2.tif">
      <g>
        <path class="cls-1" d="M63.91,0v200.33c1,.53,1.99,1.05,2.99,1.58,18.33-22.98,37.41-45.43,54.66-69.19,8.03-11.07,5.23-17.66-5.26-26.39-1.67-1.39-2.83-3.4-5.56-6.76h73.78c.39.79.79,1.58,1.18,2.37-12.24,7.61-25.23,14.28-36.53,23.1-12.08,9.43-22.87,20.59-33.65,31.54-10.43,10.59-20.14,21.89-31.39,34.22,30.36-4.28,50.05,7.78,63.77,31.84,7.61,13.34,15.27,26.85,24.69,38.89,6.27,8.01,14.77,15.52,23.91,19.79,15.34,7.16,30.75-1.63,34.65-18.07,1.5-6.33,1.89-13.05,1.91-19.6.13-62.94.14-125.87.02-188.81-.03-16.38-.45-32.85-22.26-37.49.2-.96.4-1.93.61-2.89C229.91,9.66,248.4,4.83,266.89,0c2.94,0,5.88,0,8.83,0-.05,84.54-.21,169.08-.06,253.62.03,19.12,5.38,24.92,24.81,30.22,1.46.4,2.65,1.81,6.89,4.83-6.94.47-10.66.93-14.39.93-42.26.05-84.53-.26-126.79.17-18.39.18-31.56-7.21-40.92-22.74-14.34-23.78-29.07-47.34-44.04-71.64-11.19,9.39-20.65,18.39-17.71,34.22.85,4.6.13,9.49.13,14.25q.03,27.01,21.86,43.23H.37c23.6-10.95,20.77-31.86,20.81-51.4.1-58.92-.05-117.85.06-176.77.03-17.35-.67-34.07-20.78-41.27-.3-.11-.2-1.35-.45-3.43C18.24,9.5,36.66,4.75,55.08,0h8.83Z"/>
        <path class="cls-1" d="M1266.36,0c-8.92,16.29-17.83,32.59-27.21,49.73,8.92,15.66,18.05,31.68,27.8,48.78h-146.21V0c48.54,0,97.08,0,145.62,0Z"/>
        <path class="cls-1" d="M584.05,288.03h-28.77c-10.2-28.97-19.99-57.61-30.38-86.04-7.78-21.27-16.03-42.39-24.67-63.33-5.77-13.99-12.97-27.2-28.03-33.82-1.03-.45-1.47-2.23-3.09-4.88h89.95c-2.13,2.35-3.26,4.78-4.97,5.29-9.57,2.86-12.35,9.59-11.43,18.6.41,3.98.61,8.11,1.87,11.85,13.1,39,26.4,77.94,40.39,119.09,9.86-26.48,18.97-50.87,28.03-75.28,4.58-12.33,9.31-24.61,13.55-37.05,6.89-20.2,3.83-27.46-14.98-37.78-1.27-.69-1.91-2.52-3.79-5.13h135.71c0,3.91,0,7.79,0,11.66,0,44.65,0,89.3,0,133.95,0,23.94,1.69,27.35,21.84,41.84h-85.01c20.63-10.55,21.05-28.84,20.95-47.62-.2-35.87-.18-71.73.02-107.6.06-10.33-.39-21.02-11.14-25.33-11.58-4.64-24.25-2.61-32.56,6.78-8.81,9.96-17.43,21.24-22.11,33.48-17.11,44.68-32.55,90-48.64,135.07-.73,2.03-1.74,3.97-2.75,6.24Z"/>
        <path class="cls-1" d="M939.73,193.82c.02-54.77,43.26-99.39,96.42-99.48,53.22-.08,97.7,45.45,97.6,99.9-.1,54.83-44.32,100.24-97.5,100.13-53.82-.12-96.53-44.61-96.51-100.55ZM1085.9,200.68c-.03-32.41-4.92-59.17-21.14-82.6-15.5-22.39-40.2-23.04-56.78-1.42-5.47,7.13-10.21,15.44-12.91,23.95-12.49,39.34-11.86,78.46,5.02,116.6,6.94,15.67,16.78,29.39,36.02,29.51,18.65.12,28.47-13.35,36.2-28,10.29-19.51,13.85-40.65,13.58-58.04Z"/>
        <path class="cls-1" d="M428.86,177.25c-1.97-17.12-2.34-33.35-5.98-48.81-5.07-21.56-25.28-32.19-44.74-25.67-12.79,4.29-18.85,13.76-16.79,26.99.95,6.12,2.84,12.1,3.95,18.2,1.99,10.98-4.2,19.85-15.61,22.77-11.42,2.92-21.59-1.71-25.24-11.92-4.88-13.66-1.47-26.11,7.15-37.09,28.45-36.22,84.94-33.37,111.9-12.93,17.4,13.2,23.11,32.79,23.99,53.37,1.18,27.78.83,55.62,1.12,83.44.04,4.03-.11,8.06.09,12.08.87,17.76,4.12,22.26,19.93,27.88-5.24,7.26-20.55,10.23-35.9,7.31-17.64-3.36-22.38-16.88-25.92-33.3-13.34,19.67-30.92,31.73-53.74,33.38-11.08.8-23.04-.1-33.52-3.51-26.79-8.71-36.06-43.2-19.03-66.38,13.18-17.94,32.92-25.36,52.85-31.69,17.37-5.52,35.37-9.09,55.5-14.13ZM427.19,187.28c-.91-1.2-1.83-2.39-2.74-3.59-18.44,9.2-37.75,17.03-55.03,28.03-13.15,8.37-15.12,23.35-12.14,38.42,2.94,14.87,13.7,23.63,28.74,23.34,21.52-.41,39.71-16.65,40.98-38.04.95-16,.19-32.11.19-48.16Z"/>
        <path class="cls-1" d="M758.2,99.69h86.73c-.09,1.66.08,2.88-.19,2.99-18.85,7.53-16.29,22.49-11.52,36.64,10.96,32.53,23.08,64.67,34.69,96.98,2.22,6.17,4.27,12.4,7.14,20.76,3.3-9.67,5.96-17.45,8.6-25.24,10.19-30.08,20.55-60.11,30.41-90.3,1.77-5.43,2.1-11.54,2.01-17.32-.15-9.59-3.79-17.01-14.6-18.9-1.89-.33-3.5-2.3-4.43-5.62h62.85c-.98,2.05-1.43,4.86-2.67,5.27-16.39,5.44-24.39,19.01-29.87,33.28-15.71,40.92-30.11,82.33-45.1,123.53-11.11,30.51-21.27,61.42-33.91,91.29-7.78,18.38-26.65,25.56-48.2,22.59-16.75-2.31-32.01-16.86-36.03-34.35-4.48-19.45,7.89-35.2,26.39-33.59,14.01,1.22,21.36,12.83,16.38,25.89-.39,1.02-.87,2.03-1.44,2.96-5.34,8.7-8.84,17.6,1.08,25.3,8.39,6.52,24.19,3.64,31.74-5.99,14.39-18.37,18.15-38.91,9.88-60.91-16.73-44.46-33.73-88.82-50.76-133.17-4.19-10.91-8.64-21.74-13.45-32.39-4.85-10.76-10.34-21.17-22.94-25.12-.94-.29-1.37-2.18-2.77-4.58Z"/>
        <path class="cls-1" d="M721.96,75.22c-14.62.03-26.59-11.19-26.72-25.06-.13-13.58,12.33-26.17,25.82-26.09,14.01.08,26.08,12.04,26.1,25.88.02,13.33-11.86,25.25-25.2,25.28Z"/>
      </g>
    </g>
  </g>
</svg>