<?xml version="1.0" encoding="UTF-8"?>
<svg id="Layer_2" data-name="Layer 2" xmlns="http://www.w3.org/2000/svg" viewBox="0 0 584.61 61.02">
  <defs>
    <style>
      .cls-1 {
        fill: #fff;
      }
    </style>
  </defs>
  <g id="Layer_1-2" data-name="Layer 1">
    <g>
      <path class="cls-1" d="M290.23,53.12c0,4.37-3.54,7.91-7.91,7.91s-7.91-3.54-7.91-7.91,3.54-7.91,7.91-7.91,7.91,3.54,7.91,7.91"/>
      <polygon class="cls-1" points="0 0 23.14 0 23.14 45.15 67.41 45.15 67.41 60.49 0 60.49 0 0"/>
      <path class="cls-1" d="M106.86,35.24h25.16l-12.53-23.93-12.62,23.93ZM103.44,0h34.71l33.4,60.49h-26.21l-5.7-10.78h-40.41l-5.7,10.78h-23.49L103.44,0Z"/>
      <polygon class="cls-1" points="204.51 29.81 173.92 0 203.2 0 220.56 17.27 238.44 0 266.84 0 234.76 29.1 268.33 60.49 237.3 60.49 218.63 42.08 200.83 60.49 172.43 60.49 204.51 29.81"/>
      <polygon class="cls-1" points="296.91 47.86 296.91 12.62 309.53 0 366.07 0 377.64 11.57 377.64 20.95 363.62 20.95 363.62 15.52 358.01 9.82 317.95 9.82 311.2 16.57 311.2 43.92 317.95 50.67 358.01 50.67 363.62 44.97 363.62 39.01 377.64 39.01 377.64 48.92 366.07 60.49 309.53 60.49 296.91 47.86"/>
      <path class="cls-1" d="M449.18,50.67l6.75-6.75v-27.35l-6.75-6.75h-40.24l-6.75,6.75v27.35l6.75,6.75h40.24ZM387.9,47.86V12.62l12.62-12.62h57.07l12.62,12.62v35.24l-12.62,12.62h-57.07l-12.62-12.62Z"/>
      <polygon class="cls-1" points="480.56 0 503.44 0 532.45 51.02 562 0 584.61 0 584.61 60.49 570.5 60.49 570.5 9.38 541.22 60.49 522.55 60.49 493.8 9.38 493.8 60.49 480.56 60.49 480.56 0"/>
    </g>
  </g>
</svg>