<?xml version="1.0" encoding="UTF-8"?>
<svg id="Layer_2" data-name="Layer 2" xmlns="http://www.w3.org/2000/svg" viewBox="0 0 1182.87 374.05">
  <defs>
    <style>
      .cls-1 {
        fill: #fff;
      }
    </style>
  </defs>
  <g id="Layer_1-2" data-name="Layer 1">
    <g id="Jgk5QH">
      <g>
        <path class="cls-1" d="M.49,192.83c-.59-7.79-.71-19.03,0-26.74,19.72-215.57,334.58-222.75,365.11-13.07C402.24,404.66,19.34,443.52.49,192.83ZM163.11,80.66c-106.51,16.59-109.14,184.21.61,202.95,161.29,27.55,165.12-228.77-.61-202.95Z"/>
        <path class="cls-1" d="M1182.87,213.63v20.8c-6.76,28.75-13.5,58.44-43.7,70.68-33.67,13.64-69.13,7.17-92.93-20.17l-.03,89.12h-56.45v-234.69h56.45l.03,20.79c38.62-42.32,110.72-33.36,129.85,23.11l6.77,30.36ZM1056.05,187.81c-15.93,17.36-13.16,70.84,13.85,77.89,47.86,12.49,66.24-26.15,52.03-66.88-8.57-24.55-51.07-27.14-65.88-11Z"/>
        <path class="cls-1" d="M656.41,134.31c73.16-6.27,124.5,47.53,102.56,120.36-21.9,72.74-151.17,77.84-179.74,8.53-25.89-62.82,8.97-123.05,77.17-128.89ZM637.16,187.8c-10.62,11.46-10.08,58.49.73,70.22,10.85,11.76,44.68,12.77,56.38,3.24,13.58-11.07,13.97-54.98,5.69-68.28-11.7-18.8-48.74-20.35-62.8-5.18Z"/>
        <path class="cls-1" d="M800.7,286.84c-19.55-19.55-24.44-51.2-21.98-77.79,9.8-106.07,202.43-104.73,190.22,26.84-7.43,80.09-119.86,99.35-168.24,50.95ZM864.29,178.77c-31.02,4.4-33.83,39.06-27.73,64.77,7.83,32.97,66.74,34.22,74.64-3.01,7.9-37.24-4.65-67.75-46.92-61.76Z"/>
        <rect class="cls-1" x="493.64" y="74" width="56.45" height="231.72"/>
      </g>
    </g>
  </g>
</svg>