<?xml version="1.0" encoding="UTF-8"?>
<svg id="Layer_2" data-name="Layer 2" xmlns="http://www.w3.org/2000/svg" viewBox="0 0 1278.76 257.67">
  <defs>
    <style>
      .cls-1 {
        fill: #fff;
        stroke-width: 0px;
      }
    </style>
  </defs>
  <g id="Layer_1-2" data-name="Layer 1">
    <g id="GBugR7.tif">
      <g>
        <path class="cls-1" d="M0,152.83c.78-6.04,1.46-12.09,2.35-18.12,4.71-32.02,15.18-61.9,33.57-88.75,9.27-13.53,20.53-25.2,34.73-33.64,28.9-17.16,57.77-16.07,86.16,1.21,14.86,9.04,26.49,21.73,37.64,34.85,1.45,1.71,2.87,3.45,4.67,5.63,1.79-2.15,3.4-4,4.91-5.93,10.9-13.87,22.59-26.9,37.71-36.42,13.01-8.19,27.04-12.59,42.51-11.11,17.09,1.63,32.08,8.43,45.23,19.34,20.33,16.87,33.5,38.69,43.1,62.84,8.41,21.15,13.3,43.16,14.58,65.9.55,9.81,1.08,19.67.66,29.47-.77,17.7-4.45,34.81-13.71,50.24-11.3,18.83-28.07,28.23-50.06,29.17-21.93.94-40.3-6.38-54.99-22.49-6.8-7.45-13.75-14.98-19.23-23.38-14.53-22.27-28.32-45.03-42.34-67.62-4.41-7.1-8.64-14.31-13.36-22.16-1.8,3.13-3.26,5.72-4.76,8.28-14.61,24.89-28.91,49.96-43.97,74.57-8.05,13.17-18.11,24.91-29.4,35.62-25.41,24.08-65.57,20.65-86.35,4.32-12.59-9.9-20.59-22.92-24.74-38.19-1.94-7.14-2.83-14.56-4.22-21.86-.15-.77-.45-1.51-.68-2.26,0-9.84,0-19.68,0-29.52ZM218.44,79.87c.71,1.45.99,2.19,1.4,2.85,16.14,26.14,32.17,52.35,48.48,78.38,9.1,14.53,18.03,29.23,29.46,42.14,6.63,7.49,14.26,13.26,25.19,12,13.65-1.58,20.95-7.87,24.79-21.07,2.82-9.71,3.32-19.74,2.98-29.61-.43-12.43-1.83-24.9-3.81-37.2-3.31-20.48-9.7-40.03-20.5-57.93-6.65-11.03-14.56-20.95-25.61-28.03-16.69-10.69-34.95-10.27-50.61,1.79-4.92,3.79-9.52,8.17-13.5,12.92-6.47,7.71-12.31,15.95-18.26,23.76ZM174.07,91.1c-4.14-5.51-7.87-10.84-11.97-15.88-8.33-10.23-17.05-20.1-28.75-26.77-16.19-9.22-35.16-7.1-48.9,5.39-11.23,10.21-19.47,22.52-25.59,36.26-12.44,27.94-17.86,57.25-16.33,87.77.42,8.4,2.42,16.55,6.53,24.05,5.47,10,16.23,15.11,27.58,13.42,7.18-1.07,13.03-4.45,18.24-9.22,9.51-8.71,16.94-19.13,23.95-29.79,15.94-24.22,31.63-48.62,47.41-72.95,2.52-3.89,4.99-7.81,7.83-12.27Z"/>
        <path class="cls-1" d="M468.79,253.09c0-81.63,0-163.01,0-244.63h49.46c27.23,49.13,54.47,98.28,82.01,147.96,27.56-49.72,54.81-98.87,82.02-147.95h47.79v244.96c-13.11.09-26.18.08-39.77,0V68.87c-.3-.07-.6-.14-.91-.22-23.6,42.31-47.19,84.63-70.84,127.03h-37.65c-23.49-42.15-46.97-84.28-70.45-126.41-.3.04-.6.07-.9.11v183.71h-40.76Z"/>
        <path class="cls-1" d="M1241.17,91.82v-20.96h37.59v182.19h-37.38v-23.95c-1.19,1.09-1.75,1.49-2.16,2.01-14.59,17.91-33.7,26.1-56.57,26.49-24.21.41-44.48-8.19-60.66-26.14-10.28-11.4-16.81-24.85-20.43-39.66-6.26-25.65-5.3-50.99,5.37-75.3,12.56-28.61,34.44-45.99,65.81-49.74,23.84-2.85,45.55,2.63,63.03,20.27,1.58,1.59,3.03,3.32,4.53,4.99l.86-.19ZM1240.29,162.14c0-8.11.05-16.22-.04-24.32-.02-1.69-.18-3.51-.83-5.03-3.83-9.01-9.73-16.43-17.76-22.1-10.49-7.4-22.32-9.61-34.9-8.87-21.12,1.24-36.04,11.56-43.78,31.11-7.58,19.15-7.15,38.75-.19,58.03,4.36,12.08,12.33,21.32,24.24,26.82,8.18,3.78,16.84,4.84,25.73,4.3,20.85-1.26,36.35-10.94,45.96-29.55.99-1.91,1.45-4.29,1.5-6.46.17-7.97.07-15.95.07-23.92Z"/>
        <path class="cls-1" d="M938.57,176.53h-132.97c0,1.39-.16,2.29.02,3.12,4.08,18.86,15.03,36.65,37.44,41.91,23.03,5.4,44.72,1.56,63.76-13.36,2.18-1.71,4.3-3.48,6.86-5.56,7.13,8.71,14.06,17.18,21.38,26.13-3.49,2.86-6.43,5.51-9.61,7.84-15.81,11.6-33.53,18.22-53.06,20.24-15.4,1.59-30.62,1.11-45.45-3.58-25.37-8.02-43.75-24.24-53.68-48.84-13.11-32.49-11.86-64.84,5.26-95.64,13.39-24.08,34.66-37.65,61.96-41.6,16.93-2.45,33.51-1.08,49.27,5.95,21.24,9.48,34.41,26.25,42.17,47.63,6.27,17.25,7.71,35.19,7.16,53.38-.02.63-.27,1.26-.53,2.38ZM900.18,146.79c-.24-2.15-.34-3.86-.63-5.53-2.15-12.83-7.06-24.16-17.66-32.43-16.68-13.02-49.35-12.98-65.78,10.26-5.85,8.28-9.48,17.37-10.89,27.7h94.96Z"/>
        <path class="cls-1" d="M1080.54,103.51h-54.68c-.18,1.59-.44,2.85-.44,4.1.02,28.18-.05,56.37.22,84.55.04,4.7,1.08,9.53,2.48,14.04,3.07,9.86,10.42,15.24,20.47,15.65,9.26.38,18.57-.67,27.86-1.1.79-.04,1.59-.18,2.38-.18.37,0,.75.21,1.47.44v31.77c-2.18.59-4.42,1.28-6.7,1.8-14.18,3.19-28.45,3.98-42.79,1.2-22.93-4.45-37.57-19.18-42.29-43.24-1.52-7.77-2.26-15.8-2.34-23.72-.28-26.45-.11-52.91-.11-79.37,0-1.71,0-3.42,0-5.72h-35.71v-33.17h35.74V17.33h39.16v53.04h55.22c.32,11.17.2,21.81.07,33.14Z"/>
      </g>
    </g>
  </g>
</svg>