<?xml version="1.0" encoding="UTF-8"?>
<svg id="Layer_2" data-name="Layer 2" xmlns="http://www.w3.org/2000/svg" viewBox="0 0 1278.76 273.09">
  <defs>
    <style>
      .cls-1 {
        fill: #fff;
        stroke-width: 0px;
      }
    </style>
  </defs>
  <g id="Layer_1-2" data-name="Layer 1">
    <g id="scwXCW">
      <g>
        <path class="cls-1" d="M.4.08h129.67c.15,1.59.41,3.02.41,4.44.04,9.02.02,18.04.02,27.06,0,30.89,0,61.78-.01,92.67,0,1.7-.16,3.4-.26,5.45-1.7.12-3.13.31-4.56.31-14.33.02-28.66.01-43,.01-25.7,0-51.4,0-77.1,0-1.59,0-3.17,0-5.13,0-.17-1.8-.42-3.22-.43-4.65-.04-8.03-.02-16.06-.02-24.09,0-32,0-64,.02-96C.02,3.6.26,1.93.4.08Z"/>
        <path class="cls-1" d="M143.91.27c1.85-.11,3.18-.26,4.51-.26C188.57,0,228.73,0,268.88,0c.37,0,.74,0,1.11,0,3.13.1,3.4.35,3.53,3.36.04.99.02,1.98.02,2.97,0,39.17,0,78.33,0,117.5,0,6.65.06,6.08-6.04,6.08-39.29,0-78.58,0-117.87,0-6.03,0-5.98.36-5.98-5.79,0-39.41,0-78.83.01-118.24,0-1.71.14-3.41.24-5.61Z"/>
        <path class="cls-1" d="M273.22,272.87c-1.86.09-3.2.21-4.54.21-40.03,0-80.07.01-120.1,0-4.9,0-4.92-.03-4.92-4.99,0-40.03,0-80.07,0-120.1,0-4.78.05-4.83,4.69-4.83,40.28,0,80.56,0,120.84,0,.74,0,1.48.02,2.22.06,1.36.06,1.99.86,2.06,2.14.06.99.06,1.98.06,2.96,0,39.79,0,79.57,0,119.36,0,1.57-.18,3.15-.31,5.2Z"/>
        <path class="cls-1" d="M381.84,94.16v4.41c0,37.94,0,75.88,0,113.82,0,6.68.14,6.37-6.21,6.37-5.31,0-10.63.02-15.94-.01-1.33,0-2.66-.17-4.34-.29-.13-1.78-.35-3.33-.35-4.88-.03-13.96-.02-27.93-.02-41.89,0-37.07,0-74.15.01-111.22,0-1.69.17-3.38.27-5.38,1.61-.12,2.93-.3,4.24-.3,10.75-.02,21.5-.02,32.25,0,4.07,0,4.07.03,5.6,3.91,14.76,37.35,29.51,74.69,44.27,112.04.49,1.23,1.03,2.43,1.9,4.47.86-1.81,1.42-2.83,1.85-3.91,8.91-21.85,17.81-43.71,26.72-65.56,6.39-15.68,12.79-31.35,19.18-47.02.28-.69.6-1.36.86-2.05.5-1.34,1.47-1.91,2.87-1.86.74.02,1.48-.02,2.22-.02,10.13,0,20.27,0,30.4,0,1.34,0,2.67.12,4.41.2.12,2.05.32,3.86.32,5.66.02,36.7.01,73.41.01,110.11,0,13.84,0,27.68,0,41.52,0,.99.03,1.98-.02,2.97-.14,3.04-.48,3.48-3.46,3.51-7.41.06-14.83.06-22.24,0-2.65-.02-2.95-.42-3.09-3.04-.06-1.11-.02-2.22-.02-3.34,0-38.06,0-76.13,0-114.19v-4.42c-1.56.78-1.61,2.1-2.01,3.09-9.73,24.45-19.42,48.92-29.12,73.39-5.78,14.59-11.57,29.17-17.36,43.76-.32.8-.7,1.59-.97,2.41-.53,1.63-1.6,2.37-3.32,2.36-5.07-.03-10.13-.06-15.2.02-2.13.03-3.03-1.13-3.73-2.91-2.5-6.32-5.09-12.6-7.63-18.9-13.44-33.35-26.87-66.7-40.31-100.05-.4-1-.9-1.96-1.35-2.93-.23.06-.47.13-.7.19Z"/>
        <path class="cls-1" d="M.73,208.03c0-19.65,0-39.3,0-58.95,0-5.2.02-5.23,5.1-5.23,39.67,0,79.35,0,119.02,0,4.85,0,4.94.09,4.94,5.02,0,39.67,0,79.35,0,119.02,0,.49.01.99,0,1.48-.13,3.09-.42,3.39-3.42,3.52-.86.04-1.73.01-2.6.01-39.06,0-78.11,0-117.17,0q-5.86,0-5.87-5.92c0-19.65,0-39.3,0-58.95Z"/>
        <path class="cls-1" d="M1278.16,101.2c.75,3.65.77,18.6.05,22.34-1.17.12-2.47.35-3.77.35-6.18.04-12.36.02-18.54.02-1.34,0-2.68,0-4.37,0-.21,1.36-.52,2.41-.52,3.46,0,18.29.01,36.58.11,54.87.01,2.07.39,4.19.9,6.21,1.46,5.72,5.12,8.81,10.97,9.46,4.14.46,8.13-.08,11.94-1.82.99-.45,1.99-.86,3.25-1.4.22.93.5,1.6.51,2.27.04,5.81-.04,11.62.06,17.42.04,2.24-.9,3.5-2.98,4.02-3.23.81-6.43,1.88-9.72,2.3-7.26.93-14.55,1.06-21.68-1.05-8.87-2.62-15.06-8.22-18.47-16.84-2.26-5.71-3.1-11.68-3.11-17.78-.02-18.54,0-37.08,0-55.61,0-1.58,0-3.17,0-4.89-1.18-.26-1.99-.58-2.8-.58-11.62-.03-23.23-.03-34.85-.01-.83,0-1.66.23-2.87.4-.11,1.78-.31,3.46-.31,5.15-.02,27.81,0,55.61-.03,83.42,0,1.7-.18,3.39-.28,5.12-3.26,1.3-6.36.59-9.39.71-2.96.12-5.93.04-8.9.02-3.07-.02-6.13-.09-8.95-.13-1.55-1.98-1.1-3.9-1.1-5.71-.03-27.81-.01-55.61-.03-83.42,0-1.68-.2-3.37-.32-5.3-6.31-.71-12.36.12-18.5-.55-.19-1.21-.47-2.15-.48-3.1-.04-5.31-.07-10.63,0-15.94.04-3.23.45-3.63,3.66-3.68,4.08-.07,8.16.02,12.23-.05,3.03-.05,3.32-.39,3.41-3.49.17-5.43.15-10.87.46-16.29,1.36-23.74,19.56-37.77,39.6-38.18,4.67-.1,9.35.45,14.03.73.61.04,1.22.21,1.81.37,2.86.79,3.21,1.16,3.27,4.06.07,3.34.02,6.67.02,10.01,0,2.47.03,4.94-.02,7.41-.02.94-.23,1.88-.39,3.11-1.22-.34-2.17-.53-3.05-.87-4-1.55-8.14-2.01-12.38-1.69-5.62.42-9.9,3.07-12.31,8.2-1.03,2.2-1.89,4.66-2.04,7.06-.36,5.54-.31,11.11-.29,16.67,0,2.4.48,2.88,2.85,2.89,11.86.05,23.73.02,35.59-.01.59,0,1.17-.24,2.08-.44.1-1.37.26-2.69.26-4.01.03-6.06,0-12.11.02-18.17.02-3.65.08-3.73,3.34-4.73,6.85-2.1,13.71-4.18,20.57-6.24,1.14-.34,2.32-.55,3.94-.93.13,1.74.31,3.04.32,4.35.03,7.91.01,15.82.01,23.73,0,.62,0,1.24,0,1.85.04,4.54.1,4.62,4.5,4.64,6.06.02,12.11-.01,18.17.02,1.45,0,2.9.17,4.5.28Z"/>
        <path class="cls-1" d="M1070.18,221.54c-8.66-.04-17.04-1.36-25.05-4.57-15.11-6.06-25.44-16.87-30.56-32.28-5.6-16.87-5.16-33.89.88-50.53,5.78-15.93,17-26.74,33.08-32.17,14.15-4.78,28.66-5.26,43.08-1.62,18.58,4.68,31.04,16.43,36.73,34.74,5.29,17.02,5.14,34.23-1.42,50.88-7.71,19.54-22.55,30.72-43.13,34.29-4.48.78-9.08.87-13.62,1.27ZM1102.66,159.87c.28-5.96-.44-11.96-2.29-17.78-3.36-10.6-10.18-17.68-21.31-19.93-2.87-.58-5.89-.54-8.85-.56-12.63-.09-23.2,7.38-27.53,20.27-1.47,4.38-2.19,8.87-2.6,13.42-.68,7.72,0,15.34,2.57,22.66,3.72,10.62,10.94,17.52,22.2,19.53,5.88,1.05,11.79.92,17.61-.77,6.38-1.86,11.2-5.71,14.52-11.36,1.42-2.42,2.53-5.1,3.37-7.79,1.8-5.69,2.53-11.57,2.29-17.7Z"/>
        <path class="cls-1" d="M846.98,221.53c-7.24-.08-14.32-.91-21.22-3.12-17.6-5.66-29.6-17.19-35.02-34.85-5.55-18.09-4.87-36.18,2.98-53.55,6.94-15.35,19.06-24.96,35.27-29.25,13.37-3.53,26.89-3.75,40.27-.1,17.52,4.78,29.4,15.98,35.13,33.11,5.83,17.42,5.79,35.1-1.01,52.26-7.73,19.53-22.6,30.68-43.16,34.26-4.36.76-8.83.85-13.25,1.25ZM848.27,121.39c-2.45.23-4.95.25-7.35.74-11.55,2.39-18.62,9.77-22.02,20.73-3.26,10.49-3.27,21.18-.74,31.85,1.24,5.24,3.67,9.89,7.18,14.05,10.11,11.97,32.16,11.57,41.84,3.88,5.06-4.02,8.17-9.27,9.79-15.35,1.01-3.79,1.5-7.75,2-11.66.97-7.57.21-15.06-1.76-22.39-1.85-6.88-5.39-12.71-11.37-16.84-5.29-3.64-11.22-4.98-17.57-5.02Z"/>
        <path class="cls-1" d="M921.87,188.09c1.12.7,2.23,1.4,3.35,2.09,8.35,5.14,17.29,8.55,27.2,8.69,3.54.05,7.17-.34,10.62-1.12,3.78-.85,6.85-3.1,7.57-7.26.82-4.74.35-9.29-4.11-12.22-3.08-2.03-6.35-3.81-9.66-5.44-6.09-2.99-12.33-5.71-18.41-8.72-2.19-1.09-4.24-2.56-6.14-4.11-9.65-7.9-12.32-18.46-10.97-30.29,1.2-10.54,6.99-18.27,15.74-23.95,6.24-4.05,13.16-6.2,20.48-7.11,10.07-1.25,19.95-.05,29.68,2.63,1.07.29,2.11.72,3.18,1,1.99.53,2.7,1.81,2.68,3.83-.07,6.8-.02,13.59-.05,20.39,0,.58-.21,1.16-.38,2.03-.97-.42-1.78-.66-2.47-1.08-7.36-4.46-15.43-6.54-23.94-7.01-3.74-.21-7.41.41-10.78,2.17-7.59,3.95-8.39,14.47-1.34,19.37,2.82,1.96,6.01,3.4,9.12,4.91,6.22,3.01,12.54,5.83,18.74,8.87,1.86.92,3.55,2.25,5.2,3.54,7.75,6.1,11.75,14.02,12.01,23.97.4,15.51-6.95,26.09-20.42,32.82-6.49,3.24-13.51,4.63-20.74,5.05-10.49.61-20.75-.63-30.69-3.96-7.71-2.58-6.25-1.87-6.35-8.66-.08-5.44-.02-10.87-.02-16.31v-3.64l.89-.5Z"/>
        <path class="cls-1" d="M696.33,130.71c-.86-.51-1.8-1-2.68-1.58-8.19-5.36-17.05-8.15-26.97-7.54-12.68.78-21.92,6.82-28.04,17.79-2.31,4.14-3.61,8.67-4.16,13.37-.88,7.54-.76,15.04,1.5,22.38,4.18,13.58,15.4,22.14,29.62,22.89,9.75.51,18.51-2.33,26.74-7.25,1.25-.75,2.49-1.53,4.08-2.51.3,1.16.66,1.93.67,2.7.05,6.55-.04,13.09.07,19.64.04,2.23-1.02,3.38-2.84,4.27-4.81,2.33-9.81,4.09-15.06,5.04-10.55,1.91-21.16,2.27-31.62-.3-21.04-5.17-34.65-18.4-40.37-39.2-4.47-16.24-3.1-32.4,3.63-47.84,7.59-17.41,21.24-27.86,39.47-32.35,12.58-3.1,25.21-2.76,37.72.66,2.37.65,4.66,1.62,6.95,2.52,1.23.48,2.04,1.39,2.03,2.81-.03,7.9-.06,15.8-.11,23.71,0,.18-.28.37-.65.82Z"/>
        <path class="cls-1" d="M745.16,218.09c-4.11.98-24.06.87-27.28-.12-.08-1.07-.26-2.26-.26-3.46-.01-36.45-.01-72.91-.01-109.36,0-.49-.02-.99.02-1.48.18-2.17.51-2.67,2.67-2.69,7.66-.06,15.32,0,22.98.03.47,0,.93.24,1.8.48.81,5.75-.05,11.64.55,18.37,1.05-1.9,1.69-3.02,2.31-4.16,4.28-7.83,10.34-13.54,19.17-15.75,5.34-1.34,10.79-1.18,16.16-.02,2.51.55,2.8,1.01,2.82,3.59.05,7.66.03,15.32,0,22.98,0,.56-.22,1.13-.33,1.66-3.24-1.04-6.25-2.05-9.29-2.95-1.17-.34-2.42-.45-3.65-.58-10.35-1.13-17.62,3.44-22.51,12.29-3.75,6.79-4.85,14.22-4.88,21.83-.07,16.68-.02,33.36-.02,50.05,0,1.98.03,3.95-.01,5.93-.02,1.09-.15,2.18-.24,3.37Z"/>
        <path class="cls-1" d="M558.33,101.24c1.9-.15,3.11-.32,4.31-.32,6.42-.03,12.85-.02,19.27,0,.86,0,1.73.03,2.59.11,1.14.11,1.78.8,1.89,1.92.09.98.12,1.97.12,2.96,0,35.95,0,71.89,0,107.84,0,.62.02,1.24-.03,1.85-.18,2.6-.54,3.09-3.09,3.11-7.53.07-15.07.02-22.6-.01-.59,0-1.18-.24-2.12-.44-.12-1.46-.33-2.89-.33-4.31-.03-11.24-.02-22.48-.02-33.72,0-24.58,0-49.17,0-73.75v-5.23Z"/>
        <path class="cls-1" d="M571.61,83.3c-.97-.18-2.84-.3-4.57-.88-5.92-2-9.95-5.88-10.97-12.24-1.07-6.69,1.15-12.15,6.74-16.08,7.56-5.33,18.34-3.55,23.75,3.87,7.21,9.86,1.05,23.79-11.13,25.15-.98.11-1.97.1-3.83.19Z"/>
      </g>
    </g>
  </g>
</svg>