<?xml version="1.0" encoding="UTF-8"?>
<svg id="Layer_2" data-name="Layer 2" xmlns="http://www.w3.org/2000/svg" viewBox="0 0 1193.43 213">
  <defs>
    <style>
      .cls-1 {
        fill: #fff;
      }
    </style>
  </defs>
  <g id="Layer_1-2" data-name="Layer 1">
    <g id="ZYDAWL">
      <g>
        <path class="cls-1" d="M244.99,163.71c-1.96,1.95-10.24,3.77-12.96,1.53-9.86-7.25-30.98-36.09-41.18-38.37-2.67-.6-5.53-.89-8.2-.09-5.89,1.76-34.56,43.54-41.12,51.69-2.65,3.29-12.1,15.48-14.68,16.25s-5.53.51-8.2-.08c-14.32-4.88-31.87-18.95-45.56-22.94-13.73-4-12.96,1.4-21.07,7.87-2.1,1.68-4.7,2.61-6.7,4.35-6.7,5.83-22.04,24.9-27.54,27.71-7.83,4-15.45-1.35-17.78-8.84L1.1,7.12c1.88-1.36,3.78-4.64,5.52-5.52C10.62-.43,49.11-.17,56.49.44c1.91.16,3.83-.11,5.49,1.14l62.93,105.02L187.85,1.59c3.95-1.98,40.66-1.79,47.65-1.15,5.01.46,11.49,2.19,12.12,7.77l.04,146c-.19,2.31-1.35,8.18-2.67,9.49Z"/>
        <path class="cls-1" d="M449.77,49.15c5.29,1.4,1.1,12.58,6.63,15.46,22.65-26.41,69.9-22.75,82.88,11.06,12.6-10.54,21.67-23.11,39.1-26.09,29.3-5,59.64,4.67,73.11,32.09,1.73,3.53,7.11,18.86,7.11,21.62v104.97h-36.46c-.23,0-3.31-3.08-3.31-3.31v-95.03c0-.59-3.84-9.32-4.7-10.77-9.96-16.69-33.28-14.72-46.08-2.44-1.35,1.3-8.89,12.41-8.89,13.21v95.03c0,4.37-17.02,3.7-21.09,3.41-6.59-.47-13.44-4.01-20.9-2.3v-96.13c0-.67-4.5-10.46-5.58-12.1-13.29-20.15-42.61-16.52-52.37,4.98-.7,1.55-3.93,10.93-3.93,11.54v91.71h-39.78V49.15h34.25Z"/>
        <path class="cls-1" d="M1193.43,206.06h-39.78v-91.71c0-1.11-6.36-14.47-7.8-16.51-6.02-8.52-18.27-13.88-28.68-13.48-12.79.49-29.45,11.24-34.73,22.87-.7,1.55-3.93,10.93-3.93,11.54v87.29h-36.46c-.23,0-3.31-3.08-3.31-3.31V52.47c0-1.37,3.53-3.11,5.46-3.38,8.56-1.18,19.66.78,28.59.27l3.31,3.31,1.31,16.36c8.82-8.78,21.59-16.19,33.65-19.39,30.76-8.16,63.6,8.75,76.18,37.75,1.14,2.63,6.2,16.86,6.2,18.11v100.55Z"/>
        <path class="cls-1" d="M857.51,206.06h-39.78v-91.71c0-1.11-6.36-14.47-7.8-16.51-15.77-22.31-52.66-14.18-63.4,9.39-.7,1.54-3.93,10.93-3.93,11.54v87.29h-39.78V52.47c0-.23,3.08-3.31,3.31-3.31h32.04l2.22,19.89c10.83-8.56,21.07-16.03,34.74-19.4,31.32-7.73,65.03,9,76.87,39.28,1.2,3.07,5.51,16.93,5.51,18.8v98.34Z"/>
        <path class="cls-1" d="M954.75,7.16v44.2h41.99v35.36h-41.99v71.82c0,3.56,10.55,13.16,14.76,14.07,6.97,1.5,18.59-6.29,22.91-3.13,2.08,1.52,9.45,27.99,8.61,30.89l-3.55,3.11c-30.25,8.91-66.7,7.51-79.22-26.14-1.52-4.1-5.51-18.22-5.51-21.01v-71.82h-28.73v-32.04c0-5.46,23.68-2.71,28.73-3.31,1.21-1.21-.82-28.65-.07-34.32.25-1.88.53-3.3,2.17-4.46l39.88-3.21Z"/>
      </g>
    </g>
  </g>
</svg>