<?xml version="1.0" encoding="UTF-8"?>
<svg id="Layer_2" data-name="Layer 2" xmlns="http://www.w3.org/2000/svg" viewBox="0 0 1200.3 323.04">
  <defs>
    <style>
      .cls-1 {
        fill: #fff;
      }
    </style>
  </defs>
  <g id="Layer_1-2" data-name="Layer 1">
    <g id="GOWQqj">
      <g>
        <path class="cls-1" d="M490.69,79.44c-25.09,2.94-79.2-8.32-98.15,8.61-13.02,11.63-10.96,37.16-18.37,53.41-3.74,8.19-10.29,13.25-14.31,20.84,28.49,20.28,10.51,70.04,46.96,79.93,23.51,6.38,17.76-6.13,28.89-21.45,44.82-61.65,142.81-5.54,110.22,65.75-24.75,54.16-105.87,46.14-119.73-11.41-27.43,2.33-58.55-12.28-69.83-38.03-6.33-14.45-4.27-32-12.59-45.23-11.37-18.08-34.24-16.06-53.05-13.75-19.59,62.46-108.69,64.16-124.69-.86l-38.48-.35c-13.48,58.61-99.77,66.18-121.88,10.6C-28.51,101.5,101.62,57.6,127.56,146.06l38.48-.35c15.16-65,105.57-63.22,124.69-.85,23.94,3.21,48.57,3.59,57.25-22.91,6.37-19.46,2.38-31.33,17.27-49.44,30.7-37.34,83.12-20.6,125.38-24.72,16.38-61.8,105.71-64.9,123.76-1.98,23.71,82.68-101.83,118.16-123.7,33.64ZM548.19,30.76c-42.34,6.6-35.97,71.92,10.35,66.06,41.75-5.28,32.68-72.77-10.35-66.06ZM58.93,128.64c-40.06,6.33-33.52,70.69,10.35,66.05,41.84-4.42,36.05-73.38-10.35-66.05ZM221.27,128.64c-39.32,6.22-33.58,70.69,10.35,66.05,42.48-4.49,36.09-73.4-10.35-66.05ZM479.18,226.48c-44.05,9.25-22.38,87.02,25.19,60.75,32.79-18.11,13.37-68.85-25.19-60.75Z"/>
        <path class="cls-1" d="M1019.39,73.32c19.26,19.8,14.45,51.95-10.29,64.82,20.71,13.09,29.44,25.67,26.66,51.16-5.29,48.41-94.82,52.36-116.11,13.79-13.99-25.35-1.09-52.11,22.66-64.95-41.44-24.77-20.37-74.59,23.41-78.93,17.54-1.74,40.89.96,53.68,14.11ZM975.17,81.93c-30.07,1.64-27.52,40.28-4.9,43.86,36.08,5.7,37.04-45.61,4.9-43.86ZM968.43,153.08c-27.32,5.54-27.24,51.67,8.39,50.83,38.64-.92,31.42-58.9-8.39-50.83Z"/>
        <path class="cls-1" d="M1200.3,225.97h-33.36v-78.94c0-4.12-8.22-16.28-12.21-18.92-9.86-6.51-26.73-5.84-35.67,2.17-2.38,2.13-9.93,16.83-9.93,18.97v76.72h-33.36v-125.64c0-5.38,25.95-3.05,30.92-3.11,1.1,3.89,1.29,8.22,2.39,12.1,2.67,9.41,4.69-.32,6.84-2.1,24.47-20.23,65.28-16.12,78.84,14.22.94,2.09,5.55,15.81,5.55,16.69v87.84Z"/>
        <path class="cls-1" d="M875.63,225.97h-33.36v-74.5c0-.72-3.26-12.39-3.91-13.88-8.28-18.75-38.41-18.36-49.13-1.36-.86,1.36-4.77,10.2-4.77,10.79v78.94h-33.36V96.99h31.13l2.25,15.56c26.56-28.35,75.32-23.51,87.41,15.97.69,2.24,3.74,15.22,3.74,16.27v81.17Z"/>
      </g>
    </g>
  </g>
</svg>