<?xml version="1.0" encoding="UTF-8"?>
<svg id="Layer_2" data-name="Layer 2" xmlns="http://www.w3.org/2000/svg" viewBox="0 0 1228.42 236.98">
  <defs>
    <style>
      .cls-1 {
        fill: #fff;
      }
    </style>
  </defs>
  <g id="Layer_1-2" data-name="Layer 1">
    <g id="mmOlq4.tif">
      <g>
        <path class="cls-1" d="M270.93,0l-37.35,74.44,20.59,20.34L301.1,0h28.49l-56.9,113.47,24.78,24.8L366.46,0h28.49l-86,172.04-14.01-.02-33.79-34.3-17.91,34.59-13.66-.29-28.76-28.73-1.4-.56-46.93,94.23h-28.49l37.38-73.96-24.81-24.73-49.44,98.69h-28.49l59.17-117.45c.15-.87-4.58-5-5.55-6.04-.45-.49-.65-1.21-1.1-1.69-4.22-4.5-8.88-8.62-13.14-13.09L28.22,236.42l-1.11.56H0v-1.13L85.51,66.39l16.17.23,28.2,28.17,14.29-28.39,15.8.03,33.31,32.82L242.44,0h28.49ZM169.26,138.28l9.46-19.73-20.07-19.86-9.98,19.8,19.19,19.23,1.4.56ZM232.39,138.28l9.46-19.73-20.07-19.86-9.25,18.93-.2,1.35,18.67,18.76,1.4.56Z"/>
        <path class="cls-1" d="M469.25,135.49V60.22h25.7v119.88h-22.07c-1.37-1.6-2.66-3.34-3.88-5.05-15.84-22.17-30.31-45.45-46.43-67.41-.67-.91-1.57-2.21-2.48-2.82v75.27h-25.7V60.22h22.62l50.86,74.13,1.37,1.14Z"/>
        <path class="cls-1" d="M1122.28,105.94c.76.16.62-.57.83-1.12,3.84-10.1,12.43-14.98,22.89-15.62,1.64-.1,1.83-.07,3.39,0,6.16.26,10.95,1.4,15.87,5.34,4,3.21,4.75,6.16,6.84,10.46.21.43.47.96,1.01.94,2.37-8.19,10.23-14.02,18.3-16.03,2.72-.68,4.35-.63,7.1-.72,1.46-.04,1.88-.06,3.39,0,9.88.42,18.52,4.56,23.27,13.57.83,1.59,3.24,8.12,3.24,9.59v67.74h-25.14v-59.38c-1.07-3.05-1.89-5.69-4.5-7.78-6.36-5.07-16.96-3.81-21.13,3.39-.28.48-1.75,4.15-1.75,4.39v59.38h-25.14v-59.94c0-.19-1.18-3.12-1.43-3.59-4.77-9.39-19.03-8.55-23.96.56-.36.67-1.99,4.86-1.99,5.27v57.71h-25.7v-89.77h24.58v15.61Z"/>
        <path class="cls-1" d="M841.85,60.22v44.05l5.02-6.98c5.57-6.01,12.51-8.05,20.43-8.65.55-.04,5.23.46,6.09.59,16.69,2.54,27.32,17.34,29.88,33.19,2.63,16.34.49,39.06-12.8,50.72-13.71,12.04-36.34,12.16-46.86-3.99l-2.31-3.55v14.5h-25.14V60.22h25.7ZM856.2,109.39c-16.64,2.83-17.86,30.26-11.81,42.24,4.31,8.53,14.21,12.23,22.99,7.95,13.92-6.78,14.13-37.76,2.68-46.96-3.63-2.92-9.28-4.01-13.86-3.23Z"/>
        <path class="cls-1" d="M748,60.22v45.72c2.02-1.84,2.67-4.74,4.46-6.98,5.65-7.04,12.69-9.5,21.49-9.77.54-.02,1.12-.52,1.7-.52s1.15.51,1.7.52c5.21.16,9.37.77,14.05,3.26,10.81,5.75,15.11,17.23,15.8,28.84l.02,58.81h-25.7v-56.59c0-.36-.99-3.63-1.24-4.34-1.64-4.66-5.99-7.9-10.79-8.75-9.93-1.76-18.55,3.49-20.35,13.66-.11.63-.58,3.68-.58,3.88v52.13h-25.14V60.22h24.58Z"/>
        <path class="cls-1" d="M1086.53,180.09h-24.02v-12.27c-1.77,1.69-3.02,4.39-4.73,6.15-10.15,10.47-32.73,10.23-43.6,1.1-12.08-10.13-11.63-32.26,1.76-41.19,11.03-7.36,24.9-6.11,37.33-8.46,2.59-.49,7.14-1.8,7.56-4.73.66-4.6-.79-9.48-5.18-11.54-6.87-3.23-16.79-1.8-21.33,4.6-.69.97-1.38,3.55-2.31,3.83-1.83.02-3.72.19-5.55.08-4.77-.29-10.99-.85-15.64-1.67-.63-.11-1.3,0-1.93-.02,1.91-12.03,11.83-21.58,23.33-24.95,2.35-.69,5.88-1.56,8.25-1.8,18.7-1.86,42.54,3.33,45.61,25.25.05.33.45.53.45.66v64.96ZM1061.39,138.83c-1.85,1.07-3.93,1.61-6,2.09-8.98,2.09-27.06,1.17-25.26,14.9,1.19,9.11,14.52,9.45,21.22,6.71,5.34-2.18,8.63-6.61,9.61-12.15.06-.34.44-.56.44-.67v-10.87Z"/>
        <path class="cls-1" d="M998.26,141.62h-61.45c.33,6.76,2.08,12.92,7.53,17.29,7.27,5.84,21.39,5.38,27.35-2.27.67-.86,2.3-4.28,2.88-4.4.76.14,1.34.51,2.16.55,4.66.24,9.36.2,14.01.51,2.16.14,4.55,1.05,6.96.58-3.06,14.07-14.01,23.46-27.79,26.62-10.46,2.4-23.73,1.82-33.67-2.37-34.66-14.62-32.38-75.58,4.32-87.14,3.99-1.26,10.9-2.34,14.96-2.34,3.53,0,9.17.86,12.71,1.8,20.76,5.47,28.9,22.46,30.01,42.53.16,2.86-.08,5.76.02,8.62ZM974.24,126.01c-.55-4.14-1.21-8.1-3.9-11.44-7.15-8.88-22.33-8.69-29.31.31-2.59,3.34-3.51,7.04-4.22,11.12h37.43Z"/>
        <path class="cls-1" d="M546.19,88.75c.85-.12,6.4.32,7.67.48,30.46,3.67,42.58,34.11,35.35,61.45-7.28,27.53-37.61,38.31-62.81,27.29-31.01-13.55-32.39-66.25-3.71-83.1,8.41-4.94,14.4-4.81,23.5-6.12ZM546.19,108.27c-19.46,1.56-21.18,29.31-15.05,43.22,5.64,12.8,22.15,14.79,29.63,2.59,6.42-10.48,6.32-31.27-2.14-40.62-3.22-3.56-7.71-5.03-12.44-5.19Z"/>
        <path class="cls-1" d="M696.05,68.58v21.75h16.76v18.96h-16.76v45.44c.81,1.27.54,2.71,1.66,3.92,2.77,3.02,9.2,1.96,12.87,1.37l3.89,18.64-.9.79c-6.63,1.93-13.18,1.9-20.05,1.78-8.18-1.01-16.89-5.25-20.48-13.02-.38-.83-2.13-5.76-2.13-6.24v-52.69h-12.29v-18.96h12.29v-21.75h25.14Z"/>
        <path class="cls-1" d="M653.03,89.77v22.3c-1.75-.24-3.53-.38-5.29-.58-4.88-.54-7.87-1.1-12.74.7-4.92,1.81-9.4,6.42-10.76,11.56-.17.63-.81,3.46-.81,3.65v52.69h-25.14v-89.77h24.58v15.61l2.69-5.96c1.7-3,5.61-7.03,8.66-8.64,5.81-3.07,12.56-3.19,18.82-1.57Z"/>
      </g>
    </g>
  </g>
</svg>