<?xml version="1.0" encoding="UTF-8"?>
<svg id="Layer_2" data-name="Layer 2" xmlns="http://www.w3.org/2000/svg" viewBox="0 0 1137.92 245.79">
  <defs>
    <style>
      .cls-1 {
        fill: #fff;
      }
    </style>
  </defs>
  <g id="Layer_1-2" data-name="Layer 1">
    <g id="uuid-8fd15063-73ed-458b-903d-9af9c40bdcf4" data-name="Layer 1-2">
      <g id="Okendo-Logo-RGB-Black-KO">
        <g>
          <path class="cls-1" d="M494.13,39.86h27.32v99.16l44.99-49.58h34.89l-53.25,55.54,55.33,57.83h-35.58l-46.36-51.19v51.19h-27.32V39.86h-.02Z"/>
          <path class="cls-1" d="M606.82,144.98c0-35.1,25.24-60.81,61.05-60.81s60.6,25.74,60.6,60.81v9.82h-92.96c3.67,16.84,16.3,25.74,32.36,25.74,12.16,0,21.12-3.5,26.85-11h29.14c-8.49,22-29.14,36.26-56.01,36.26-35.81,0-61.05-25.74-61.05-60.81h.02ZM699.54,132.58c-4.35-15.45-16.75-23.16-31.67-23.16s-27.32,7.95-31.67,23.16h63.35Z"/>
          <path class="cls-1" d="M746.38,146.21c0-37.87,22.49-59.75,56.01-59.75s56.01,21.64,56.01,59.75v56.63h-27.32v-56.63c0-21.57-11.47-34.27-28.69-34.27s-28.69,12.7-28.69,34.27v56.63h-27.32v-56.63Z"/>
          <path class="cls-1" d="M970.62,39.86v106.28h0c0,19.96-13.32,34.2-33.28,34.2s-33.52-14.24-33.52-34.2c0-18.07,13.55-32.95,33.52-32.95,8.52,0,15.78,2.6,21.36,7.12v-25.24c-7.24-4.8-16.08-7.33-25.95-7.33-27.53,0-56.46,18.5-56.46,57.29,0,36.03,25.24,60.84,61.29,60.84s60.37-23.87,60.37-60.6V39.86h-27.32Z"/>
          <path class="cls-1" d="M1076.87,83.81c-35.81,0-61.05,25.83-61.05,61.05s25.24,61.05,61.05,61.05,61.05-25.83,61.05-61.05-25.24-61.05-61.05-61.05ZM1076.87,180.2c-19.51,0-35.34-15.82-35.34-35.34s15.82-35.34,35.34-35.34,35.34,15.82,35.34,35.34-15.82,35.34-35.34,35.34Z"/>
          <path class="cls-1" d="M393.7,46.13c-46.83,0-79.88,33.83-79.88,79.88s33.04,79.88,79.88,79.88,79.88-33.83,79.88-79.88-33.04-79.88-79.88-79.88ZM393.7,178.37c-28.93,0-52.37-23.44-52.37-52.37s23.44-52.37,52.37-52.37,52.37,23.44,52.37,52.37-23.44,52.37-52.37,52.37Z"/>
        </g>
        <path class="cls-1" d="M0,0v245.79h245.79V0H0ZM59.35,51.26h63.53c39.57,0,71.62,32.07,71.62,71.62s-32.07,71.62-71.62,71.62-71.62-32.07-71.62-71.62c0-8.37,1.47-16.39,4.09-23.84h12.7c-3.19,7.31-4.97,15.38-4.97,23.84,0,32.97,26.82,59.8,59.8,59.8s59.8-26.82,59.8-59.8-26.82-59.8-59.8-59.8H48.09c3.41-4.26,7.17-8.21,11.26-11.83ZM39.88,75.15h83c26.37,0,47.73,21.38,47.73,47.73s-21.38,47.73-47.73,47.73-47.73-21.38-47.73-47.73c0-8.7,2.34-16.84,6.43-23.84h14.55c-5.65,6.34-9.13,14.69-9.13,23.84,0,19.8,16.11,35.91,35.91,35.91s35.91-16.11,35.91-35.91-16.11-35.91-35.91-35.91H34.09c1.66-4.09,3.6-8.04,5.77-11.83h.02ZM122.91,218.68c-52.89,0-95.8-42.88-95.8-95.8,0-8.23,1.04-16.23,3-23.84h12.3c-2.25,7.57-3.48,15.56-3.48,23.84,0,46.29,37.66,83.97,83.97,83.97s83.97-37.66,83.97-83.97-37.66-83.97-83.97-83.97h-46.1c13.67-7.52,29.38-11.83,46.1-11.83,52.89,0,95.8,42.88,95.8,95.8s-42.88,95.8-95.8,95.8Z"/>
      </g>
    </g>
  </g>
</svg>