<?xml version="1.0" encoding="UTF-8"?>
<svg id="Layer_2" data-name="Layer 2" xmlns="http://www.w3.org/2000/svg" viewBox="0 0 1278.84 400.67">
  <defs>
    <style>
      .cls-1 {
        fill: #fff;
      }
    </style>
  </defs>
  <g id="Layer_1-2" data-name="Layer 1">
    <g id="bD3SFZ.tif">
      <g>
        <path class="cls-1" d="M1089.66,0l18.55,2.15c83.62,12.63,152.12,78.52,167.21,161.65l3.24,23.79c-.41,8.34.56,17.16,0,25.44-6.83,101.57-89.59,182.53-191.61,187.64l-1086.79-.04c.6-40.08-.77-80.26-.04-120.34,1.08-58.89,1.85-143.77,31.01-195.86C79.89-2.5,195.85,2.79,282.26,1.12c2.1-.04,2.41-1.11,2.56-1.12h804.84ZM913.4,147.32h23.89c.44,0,7.32-3.13,7.96-3.71,4.84-4.33,4.66-16.18-1.09-20.11-2.54-1.73-11.29-4.02-14.24-3.74-3.62.34-11.46,2.54-13.86,5.31-.35.41-2.66,4.49-2.66,4.77v17.49ZM146.79,224.69h36.63c2.22,0,9.59-1.67,12.47-2.39,17.68-4.38,29.64-15.28,33.45-33.38,6.9-32.77-7.16-58.67-40.85-64.69-1.45-.26-7.75-1.29-8.26-1.29h-68.49v142.02h35.04v-40.27ZM519.48,134.6h-26.54c-1.18,5.07-.33,18.77-3.69,22.29-3.18,3.33-13.13,1.71-17.55,2.09v25.44h15.93v54.58c0,2.45,4.57,11.52,6.36,13.79,8.91,11.3,22.21,12.71,35.54,14.33l22.87-2.16v-25.44c-1.71.03-2.92.98-4.73,1.11-4.26.3-15.24.59-18.98-.23-5.88-1.29-7.73-5.75-9.21-10.95v-45.04h33.45c.11,0,1.59-1.48,1.59-1.59v-23.85h-33.45c-.11,0-1.59-1.48-1.59-1.59v-22.79ZM1133.19,134.6h-27.61c.75,3.99-.6,7.62-1.03,11.16-.21,1.74.21,3.57-.06,5.24-1.78,11.13-11.68,7.42-20.15,7.97v25.44h15.93v51.4c2.27,8.8,4.27,16.36,11.73,22.2,11.62,9.11,32.13,9.59,46.1,7.97,2.35-.27,6.54-1.04,8-2.61v-23.85c-1.38-.51-2.5,1.06-2.65,1.06h-21.24c-.24,0-3.69-1.66-4.29-2.07-.99-.69-4.73-5.1-4.73-5.87v-48.22h33.98v-25.44h-33.98v-24.38ZM283.47,157.1c-33.81,3.49-51.1,29.02-48.6,61.81,3.17,41.51,48.07,56.6,83.16,43.71,30.76-11.31,39.9-46.61,28.14-75.31-10.1-24.67-37.88-32.76-62.7-30.2ZM463.21,195.02c.4-15.55-6.69-27.58-21.23-33.4-23.85-9.54-71.42-7.05-81.53,21.45-3.73,10.53-.44,25.29,9.64,31.24,9.78,5.76,28.28,6.9,39.53,8.24,6.44.77,13.33.48,19.64,2.65,3.71,1.28,5.77,3.46,6.14,7.64.1,1.16-1.37,4.88-2.06,6.04-1.95,3.26-5.58,4.87-9.1,5.75-6.97,1.74-17.03,1.74-24,0-8.24-2.06-11.89-7.37-12.42-15.69h-28.67c-.81,9.4,3.84,20.51,11.13,26.51,17.99,14.8,65.74,14.78,84.39,1.54,17.09-12.12,18.6-39.83-2.08-48.73-16.26-7-35.79-4.14-52.35-8.16-5.18-1.26-8.25-3.67-9.09-9.03-.25-1.57,1.43-6.46,2.5-7.71,6.11-7.13,30.37-7.53,36.67-.57,2.63,2.91,3.72,8.39,4.21,12.23h28.67ZM667.07,195.02c-.48-15.42-6.59-27.37-21.23-33.4-21.95-9.03-67.29-6.86-79.85,16.76-4.98,9.37-4.54,22.64,2.31,30.95,12.01,14.56,42.78,10.98,59.77,14.53,7.66,1.6,12.04,4.14,10.14,12.83-.77,3.53-6.79,7.17-10.08,7.95-7.06,1.67-16.99,1.73-24.03-.03-7.47-1.87-12.99-7.72-12.42-15.69h-28.67c-1.6,16.07,9.01,27.89,23.35,33.39,19.14,7.35,57.31,6.29,73.82-6.88,9.85-7.86,14.22-22.01,9.55-33.94-7.99-20.39-40.53-17.54-58.37-20.16-3.23-.47-8.34-1.29-11.2-2.6-9.12-4.21-5.52-15.9,3.17-19.12,9.07-3.36,31.18-3.33,33.83,8.69.35,1.56-.22,6.71,1.77,6.71h28.14ZM783.87,203.49c.8-21.54-11.79-38.68-32.65-44.25-45.26-12.07-82.54,18.86-73.29,65.74,6.93,35.12,39.62,47.4,72.02,39.49,17.03-4.16,30.95-16.33,33.69-34.2.52-3.38-.48-6.82,1.3-9.83h-29.73c1.5,21.44-27.6,28.77-39.76,12.66-8.38-11.1-8.32-38.54,3.69-47.08,7.55-5.36,21.08-5.48,28.6,0,4.94,3.6,7.78,11.49,7.47,17.45h28.67ZM899.6,219.39c-.89-3.89.9-7.69,1.11-11.08,1.34-22.61-3.05-48.96-30.26-51.49-21.51-2-36.4,10.25-40.92,30.78-2.84-.15,0-3.41,0-3.71v-24.91h-31.85v105.99h32.92v-57.76c0-.42,2.19-6.81,2.65-7.96,2.27-5.67,8.47-13.88,14.88-14.82,5.14-.75,13.86-.41,17.55,3.66.9.99,3.77,6.41,4.03,7.64.44,2.08,1.31,8.36,1.31,10.42,0,4.05-2.12,8.74-1.13,13.25h29.73ZM995.16,178.06v-19.08h-32.92v148.38h32.92l-1.06-60.41,4.83,7.36c13.63,15.76,41.36,15.67,58.2,5.21,24.14-15.01,29.06-56.52,15.75-80.08-14.03-24.83-53.25-31.25-72.88-9.81l-4.83,8.42ZM945.26,158.98h-32.92v105.99h32.92v-105.99Z"/>
        <path class="cls-1" d="M1015.02,182.51c11.24-1.9,21.22.28,27.77,10.01,6.37,9.45,5.86,27.29.36,37.16-7.21,12.94-22.96,15.17-35.62,8.64-20.39-10.52-14.76-52.05,7.49-55.8Z"/>
        <path class="cls-1" d="M146.79,200.31v-48.22c0-.11,1.48-1.59,1.59-1.59h25.48c.25,0,.64.78,1.26.86,5.31.74,9.07,1,13.62,4.42,12.22,9.17,12.29,33.33-.58,41.86-.78.52-5.49,2.68-5.81,2.68h-35.57Z"/>
        <path class="cls-1" d="M285.57,182.51c11.17-1.89,21.73-.06,27.75,10.03,8.85,14.84,6.06,45.43-14.37,48.9-24.71,4.19-33.07-15.13-31.15-36.39.83-9.16,8.19-20.92,17.77-22.53Z"/>
      </g>
    </g>
  </g>
</svg>