<?xml version="1.0" encoding="UTF-8"?>
<svg id="Layer_2" data-name="Layer 2" xmlns="http://www.w3.org/2000/svg" viewBox="0 0 1157.67 293.54">
  <defs>
    <style>
      .cls-1 {
        fill-rule: evenodd;
      }

      .cls-1, .cls-2 {
        fill: #fff;
      }
    </style>
  </defs>
  <g id="Layer_1-2" data-name="Layer 1">
    <g>
      <path class="cls-1" d="M298.38,146.77c0,81.06-66.79,146.77-149.19,146.77S0,227.83,0,146.77,66.79,0,149.19,0s149.19,65.71,149.19,146.77ZM115.61,128.4l-1.81-1.91c-5.15-4.93-11.88-7.62-18.98-7.62-15.09,0-27.53,12.31-27.53,27.64s12.45,27.64,27.53,27.64c7.13,0,13.88-2.71,19.04-7.68l57.3-57.02.06-.06.06-.06c9.56-8.99,22.09-13.97,35.26-13.97,28.45,0,51.41,23.12,51.41,51.34s-22.97,51.34-51.41,51.34c-13.17,0-25.7-4.97-35.26-13.97l-.04-.04-.04-.04-.14-.14-.05-.05-.05-.05-3.11-3.2-3.9-4.01,3.96-3.96,8.65-8.66,4.21-4.21,4.15,4.27,2.95,3.04c5.11,4.74,11.72,7.33,18.67,7.33,15.09,0,27.53-12.31,27.53-27.65s-12.45-27.64-27.53-27.64c-6.97,0-13.6,2.6-18.71,7.37l-57.17,56.9-.03.03-.03.03c-9.63,9.31-22.34,14.46-35.77,14.46-28.45,0-51.41-23.12-51.41-51.34s22.97-51.34,51.41-51.34c13.43,0,26.15,5.15,35.77,14.46h0s.08.08.08.08l.09.09.09.09,1.93,2.04,3.8,4.01-3.91,3.91-8.65,8.65-4.27,4.27-4.15-4.38Z"/>
      <path class="cls-2" d="M357.51,237.7h43.3v-58.67h20.29l31.42,58.67h48.25l-34.39-60.86c-4.21-7.3-6.68-10.47-6.68-10.47v-.49c17.57-8.76,26.48-28.97,26.48-47.47,0-25.32-12.62-43.09-32.66-50.63-7.67-2.92-16.33-4.14-34.39-4.14h-61.61v174.05ZM400.82,142.52v-42.36h14.6c21.77,0,26.72,7.79,26.72,20.94,0,13.87-8.66,21.42-22.52,21.42h-18.81ZM526.18,237.7h114.32v-36.51h-71.01v-32.86h53.94v-36.51h-53.94v-31.65h67.55v-36.51h-110.85v174.05ZM671.64,237.7h65.08c35.14,0,67.3-13.88,67.3-51.85,0-15.34-7.42-33.11-27.71-39.19v-.49c13.36-7.55,20.54-22.4,20.54-37,0-29.94-24.74-45.52-60.13-45.52h-65.08v174.05ZM714.95,131.08v-30.92h21.53c11.63,0,16.33,6.82,16.33,14.85s-4.7,16.07-15.59,16.07h-22.27ZM714.95,201.19v-36.03h26.23c12.62,0,18.56,8.03,18.56,17.77s-6.19,18.26-18.81,18.26h-25.98ZM832.27,173.68c0,39.19,29.2,66.94,74.23,66.94s73.73-27.75,73.73-66.94V63.65h-43.3v110.03c0,18.26-12.13,27.99-30.68,27.99s-30.69-9.74-30.69-27.99V63.65h-43.3v110.03ZM1055.98,237.7h43.3v-71.32l58.39-102.73h-49.24l-19.79,41.87c-5.7,11.93-10.64,25.07-10.64,25.07h-.5s-4.95-13.15-10.64-25.07l-20.05-41.87h-49.24l58.4,102.73v71.32Z"/>
    </g>
  </g>
</svg>