<?xml version="1.0" encoding="UTF-8"?>
<svg id="Layer_2" data-name="Layer 2" xmlns="http://www.w3.org/2000/svg" viewBox="0 0 715.33 70.97">
  <defs>
    <style>
      .cls-1 {
        fill: #f6f7f7;
        stroke-width: 0px;
      }
    </style>
  </defs>
  <g id="Layer_1-2" data-name="Layer 1">
    <g>
      <path class="cls-1" d="M42.22,42.47c3.6-1.73,6.37-4.23,8.31-7.5,1.94-3.26,2.91-7.21,2.91-11.83,0-7.14-2.09-12.58-6.27-16.32-4.18-3.74-10.08-5.61-17.69-5.61H0v68.53h13.87v-24.68h9.1l16.09,24.68h16.11l-17.5-25.64c1.61-.41,3.13-.96,4.55-1.64ZM13.87,13.15h14.38c3.47,0,6.15.87,8.06,2.6s2.86,4.2,2.86,7.39-.95,5.76-2.86,7.5-4.59,2.6-8.06,2.6h-14.38V13.15Z"/>
      <polygon class="cls-1" points="91.77 40.79 115.64 40.79 115.64 29.27 91.77 29.27 91.77 13.15 125.43 13.15 125.43 1.22 77.5 1.22 77.5 69.75 126.65 69.75 126.65 57.82 91.77 57.82 91.77 40.79"/>
      <polygon class="cls-1" points="150.51 69.75 164.79 69.75 164.79 42.62 188.65 42.62 188.65 30.8 164.79 30.8 164.79 13.46 198.44 13.46 198.44 1.22 150.51 1.22 150.51 69.75"/>
      <path class="cls-1" d="M263.29,42.47c3.6-1.73,6.37-4.23,8.31-7.5,1.94-3.26,2.91-7.21,2.91-11.83,0-7.14-2.09-12.58-6.27-16.32-4.18-3.74-10.08-5.61-17.69-5.61h-29.47v68.53h13.87v-24.68h9.1l16.09,24.68h16.11l-17.5-25.64c1.61-.41,3.13-.96,4.55-1.64ZM234.94,13.15h14.38c3.47,0,6.15.87,8.06,2.6s2.86,4.2,2.86,7.39-.95,5.76-2.86,7.5-4.59,2.6-8.06,2.6h-14.38V13.15Z"/>
      <path class="cls-1" d="M322.43,1.22l-28.14,68.53h14.79l5.94-15.4h29.19l5.97,15.4h14.79L336.71,1.22h-14.28ZM319.46,42.83l10.11-26.21,10.16,26.21h-20.27Z"/>
      <path class="cls-1" d="M402.74,15.4c3.02-1.84,6.64-2.75,10.86-2.75s7.78.88,10.5,2.65c2.72,1.77,5.06,4.05,7.04,6.83l12.24-6.22c-6.53-10.61-16.59-15.91-30.18-15.91-7.21,0-13.38,1.41-18.51,4.23-5.13,2.82-9.08,6.88-11.83,12.19-2.75,5.3-4.13,11.66-4.13,19.07s1.38,13.77,4.13,19.07c2.75,5.3,6.7,9.37,11.83,12.19,5.13,2.82,11.3,4.23,18.51,4.23,13.6,0,23.66-5.3,30.18-15.91l-12.24-6.22c-1.97,2.79-4.32,5.05-7.04,6.78-2.72,1.73-6.22,2.6-10.5,2.6-6.39,0-11.35-2-14.89-6.02-3.54-4.01-5.3-9.58-5.3-16.72,0-4.76.8-8.84,2.4-12.24,1.6-3.4,3.91-6.02,6.93-7.85Z"/>
      <polygon class="cls-1" points="462.34 13.46 483.65 13.46 483.65 69.75 497.82 69.75 497.82 13.46 519.24 13.46 519.24 1.22 462.34 1.22 462.34 13.46"/>
      <rect class="cls-1" x="541.47" y="1.22" width="14.28" height="68.53"/>
      <polygon class="cls-1" points="610.91 52.72 591.94 1.22 576.85 1.22 603.77 69.75 618.05 69.75 645.07 1.22 629.98 1.22 610.91 52.72"/>
      <polygon class="cls-1" points="680.46 57.82 680.46 40.79 704.32 40.79 704.32 29.27 680.46 29.27 680.46 13.15 714.11 13.15 714.11 1.22 666.18 1.22 666.18 69.75 715.33 69.75 715.33 57.82 680.46 57.82"/>
    </g>
  </g>
</svg>