<?xml version="1.0" encoding="UTF-8"?>
<svg id="Layer_2" data-name="Layer 2" xmlns="http://www.w3.org/2000/svg" viewBox="0 0 622.37 135.88">
  <defs>
    <style>
      .cls-1 {
        fill: #fff;
      }
    </style>
  </defs>
  <g id="Layer_1-2" data-name="Layer 1">
    <g id="caXyJ2.tif">
      <g>
        <g>
          <g>
            <path class="cls-1" d="M315.32,43.51c8.63-.8,20.58,1.8,28.16,6.09,2.43,1.37,4.29,2.18,3.02,5.13-.7,1.64-4.49,8.16-5.56,9.5-2.18,2.76-3.73.71-6.08-.21-6.28-2.47-15.64-5.81-22.06-2.62-2.77,1.38-3.91,4.6-2,7.21,2.04,2.79,16.59,5.83,20.79,7.41,8.44,3.18,16.44,8.24,17.39,18.09,2.86,29.77-32.74,29.05-52.23,20.57-1.57-.69-5.99-2.68-7.11-3.59-.55-.45-.9-.68-1.01-1.46-.21-1.53,3.28-7.65,4.31-9.29.63-1,2.27-3.7,3.34-3.98,1.37-.35,4.97,1.99,6.48,2.59,7.64,3.01,16.1,5.44,24.34,3.44,5.86-1.42,6.45-6.84,1.28-10.08-4.74-2.96-13.76-4.16-19.43-6.34-25.34-9.7-19.73-40.05,6.35-42.47Z"/>
            <g>
              <path class="cls-1" d="M149.53,116.68V46.76c1.01-.21,1.54-.86,2.65-1,1.42-.18,11.24-.21,12.12.09,1.2.4,1.81,6.45,2.19,8.02.13.53-.24,1.28.55,1.14,3.06-5.18,9.78-9.44,15.65-10.84,7.14-1.7,17.16-.22,22.79,4.77,1.62,1.44,2.54,2.28,1.68,4.6-1.31,1.21-6.05,9.87-6.86,10.14-2.26.76-2.76-.73-4.21-1.48-14.71-7.63-27.54.93-28.56,16.85-.78,12.31.78,25.27-.24,37.63-.19.28-.42.58-.73.73-.92.45-12.1.44-13.9.27-1.38-.13-1.94-.58-3.13-1Z"/>
              <path class="cls-1" d="M226.39,89.01c1.13,6.02,8.93,13.1,14.96,13.96,4.64.66,8.85.09,13.1-1.73,2.28-.97,6.58-4.5,8.57-3.9.65.2,6.51,8.31,7.07,9.47,1.18,2.46.16,2.94-1.63,4.53-12.12,10.67-31.24,10.73-44.46,2.16-25.4-16.48-22.33-55.23,5.81-66.95,17.5-7.29,37.74-.71,46.59,16.11,2.7,5.13,6.5,18.34,3.24,23.43-.63.98-3.32,2.93-4.36,2.93h-48.89ZM261.91,75.41c-.83-5.51-5.66-11.33-10.93-13.13-10.16-3.48-23.46,1.96-25.07,13.13h36Z"/>
            </g>
          </g>
          <path class="cls-1" d="M479.28,81.69c0,21.18-17.2,38.36-38.43,38.36s-38.43-17.17-38.43-38.36,17.2-38.36,38.43-38.36,38.43,17.17,38.43,38.36ZM461.44,81.65c0-11.33-9.2-20.51-20.55-20.51s-20.55,9.18-20.55,20.51,9.2,20.51,20.55,20.51,20.55-9.18,20.55-20.51Z"/>
          <path class="cls-1" d="M382.55,45.79h18.24c.09,0,1.22,1.13,1.22,1.21v15.05c0,.05-.68.73-.73.73h-18c-.05,0-.73.68-.73.73v52.92c0,.35-1.18,1.11-1.71,1.2-2.29.4-11.67.34-14.13.04-.91-.11-2.16-.79-2.16-1.73v-52.44c0-.05-.68-.73-.73-.73h-8.76c-.05,0-.73-.68-.73-.73v-15.05c0-.09,1.13-1.21,1.22-1.21h9v-21.12c0-.48,1.07-1.5,1.59-1.81,3.84-2.28,10.26-3.38,14.33-5.65.61-.39,2.07.85,2.07,1.15v27.43Z"/>
          <g>
            <path class="cls-1" d="M567.89,89.01c.58,3.72,3.91,7.62,6.8,9.96,6.32,5.12,13.94,5.29,21.26,2.27,1.94-.8,5.62-3.54,6.84-3.87.99-.27,1.94-.22,2.58.61,1.07,2.61,7.47,8.53,6.73,11.08-.89,3.05-12.32,8.42-15.5,9.32-30.2,8.54-57.47-21.97-45.81-51.07,13.81-34.49,65.4-30.46,71.06,7.43.44,2.93.97,7.27-.09,10-.59,1.51-3.42,4.27-4.96,4.27h-48.89ZM603.41,75.41c-2.56-11.19-12.75-16.5-23.73-13.25-5.8,1.72-11.78,6.99-12.27,13.25h36Z"/>
            <path class="cls-1" d="M508.06,55.01l4.85-5.1c8.25-6.96,20.24-8.44,30.02-3.72,2.2,1.06,6.55,3.9,6,6.63-1.26,1.46-6.12,10.52-7.13,10.87-2.26.77-2.93-.85-4.53-1.64-13.92-6.84-27.17.68-28.23,16.04-.86,12.44.72,25.74-.09,38.26-.27.76-.82,1.16-1.62,1.3-1.57.26-13.27.27-14.49-.08-.47-.14-.82-.47-1.07-.87l-.15-69.59c.27-.76.82-1.16,1.62-1.3,1.29-.22,12.39-.17,12.91.2l1.92,9.01Z"/>
          </g>
        </g>
        <g>
          <path class="cls-1" d="M49.45,0c14.98,10.64,25.13,25.6,26.25,44.38.43,7.23-4.35,19.18,8.05,9.72,3.68-2.8,4.08-5.53,6.17-9.06.3-.5.02-1.67,1.44-1.07,3.51,1.47,9.81,12.92,11.24,16.68,6.1,16.03,4.55,34-4.2,48.67-1.78,2.99-4.74,9.47-7.32,4.24l-31.47-48.06c-.38-.31-.82-.42-1.3-.47-3.27-.33-9.62,9.07-12.67,11.12-.76.51-1.15,1.01-2.16.46l-30.41-29.8c-.41-1.88,8.07-8.01,9.71-9.59C33.57,26.8,43.96,14.46,48.61,0h.85Z"/>
          <path class="cls-1" d="M11.33,49.88l35.72,55.64c3.87,2.65,12.61-12.56,16.22-11.61,3.34.88,20.44,21.81,25.19,24.83,2.06,1.95-2.42,4.98-4,6.22C39.97,159.97-21.99,103.91,7.81,53.53c.5-.85,2.07-4.69,3.52-3.65Z"/>
        </g>
      </g>
    </g>
  </g>
</svg>