<?xml version="1.0" encoding="UTF-8"?>
<svg id="Layer_2" data-name="Layer 2" xmlns="http://www.w3.org/2000/svg" viewBox="0 0 1199.41 224.56">
  <defs>
    <style>
      .cls-1 {
        fill: #fff;
      }
    </style>
  </defs>
  <g id="Layer_1-2" data-name="Layer 1">
    <g id="A30mWM">
      <g>
        <path class="cls-1" d="M226.83,35.49c6.7.47,11.89-3.77,18.64-4.4,24.92-2.33,50.63,4.27,66.55,24.61,42.04,53.72-4.68,125-69.61,113.25-5.8,14.64-26.1,25.06-41.36,26.45-7.15.65-16.55-4.13-23.97-4.28-7.86,7.63-13.55,17.72-22.82,23.94-30.58,20.53-75.92,6.36-87.37-28.54-29.79,7.84-62.39-14.8-66.5-45.55-2.65-19.85,8.1-43.88,26.45-52.22,1.64-1.44-3.81-15.19-4.24-18.81C15.12,6.2,98.05-25.23,136.82,24.5c27.55-26.47,63.2-22.89,87.76,5.52,1.39,1.61,2.06,3.38,2.25,5.47Z"/>
        <path class="cls-1" d="M526.29,97.75c1.56-19.03-15.12-19.25-30.04-17.84-13.35,1.26-23.02,13.75-25.32-9.66,2.32-8.29,37.62-11.02,45.29-10.14,45.7,5.25,29.62,62.03,32.02,93.99-.78,2.62-5.3,4.6-7.97,5.35-15.7,4.41-38.39,6.36-54.01,1.63-24.92-7.54-29.72-40.66-8.73-55.49,2.05-1.45,15.45-7.84,16.57-7.84h32.18ZM526.3,115.49c-12.5,1.16-29.83-4.5-37.41,8.09-7.89,13.1,3.81,21.69,16.42,22.93,7.59.75,13.46-3.19,21-2.16v-28.86Z"/>
        <path class="cls-1" d="M872.49,22.29l-6.56,16.76-3.36,1.07c-14.89-7.42-26.62,7.39-25.59,22.11,4.97.94,21.96-3.1,21.18,4.41-2.05,19.64-8.91,12.19-25.59,13.36l-13.88,82.66c-7.51,32.8-20.09,50.64-57.14,41.57l4.3-16.74c4.34-3.13,8.37,1.07,11.95.79,10.03-.77,13.87-8.41,16.45-16.79,6.17-20.04,14.74-65.09,16.2-85.89.13-1.86-.19-3.78-.08-5.62h-15.54s3.22-15.64,3.22-15.64l16.73-2.12c1.36-32.49,26.48-49.78,57.72-39.93Z"/>
        <path class="cls-1" d="M1198.71,117.72h-64.36c-1.75,31.88,31.78,30.1,54.21,22.26,3.47.7,7.26,16.03,5.6,17.58-8.43,3.18-18.47,6.15-27.54,6.85-5.52.42-18.59-1.37-24.13-2.68-10.23-2.43-23.39-13.67-27.64-23.41-14.22-32.59.87-77.27,40.52-78.4,33.69-.97,47.42,27.52,43.33,57.8ZM1176.52,99.96c-.54-29.89-38.67-28.15-42.16,0h42.16Z"/>
        <path class="cls-1" d="M692.73,117.72h-64.36c-.57,30.18,32.2,31.12,54.16,22.29l7.54,14.39c-1.26,2.33-3.19,3.88-5.55,5.05-6.25,3.08-25.7,5.45-32.77,4.79-17.61-1.64-34.94-9.72-42.28-26.5-3.22-7.37-2.58-11.51-3.36-18.82-.25-2.32-2.08-4.51-2.08-6.74,0-2.39,1.94-14.08,2.59-17.32,8.55-42.82,75.14-47.84,85.67-4.43.59,2.43,2.59,13.31,2.59,15.09,0,3.34-3.53,7.83-2.15,12.21ZM672.76,99.96c-5.65-29.01-38.04-29.34-44.38,0h44.38Z"/>
        <path class="cls-1" d="M896.28,60.51c25.87-3.73,50.76,11.49,53.79,38.42,2.8,24.85-2.28,53.4-28.66,62.16-27.06,8.99-58.38-6.09-62.19-35.68-3.66-28.49,4.87-60.27,37.05-64.91ZM896.18,80.38c-7.65,1.65-13.15,13.93-14.37,21.14-2.18,12.83.26,40.47,16.22,42.81,17.91,2.62,26.93-3.79,29.44-21.55,3.36-23.72-1.63-48.78-31.29-42.39Z"/>
        <path class="cls-1" d="M734.23,60.46c13.89-2.35,33.95.58,44.93,9.74l-7.63,16.36c-12.38-6.65-36.16-16.51-42.76,1.19-.08,10.5,27.12,15.02,35.6,19.35,6.05,3.09,15.24,9.68,16.75,16.54,7.95,36.23-29.21,45.46-57.41,37.44-15.94-4.53-23.95-9.61-12.05-25.61,15.56,7.2,40.01,20.47,49.34-1.11-.05-9.97-27.04-14.07-35.02-17.71-29.35-13.38-20.64-51.31,8.26-56.19Z"/>
        <path class="cls-1" d="M453.05,68.92l-7.75,17.64c-12.49-6.78-36.08-16.31-43.43,1.2.02,12.68,38.81,16.26,47.8,27.79,7.24,9.28,7.14,20.61,2.31,31.05-11.39,24.58-57.26,20.93-73.95,3.36l4.01-14.49c12.08,1.77,21.49,10.14,34.53,11.15,10.05.78,23.38-10.31,14.34-18.96-5.75-5.5-30.15-8.44-39.92-15.56-17.58-12.83-11.14-41,8.79-48.76,19.18-7.47,35.45-2.19,53.27,5.58Z"/>
        <path class="cls-1" d="M1105.5,64.46l-7.99,17.62c-17.51-3.88-36.91-6.41-44.23,13.38-7.32,19.79-2.17,46.67,22.16,48.97,9.18.87,16.66-1.79,25.51-2.21l4.48,14.2c-.71,2.64-7.67,4.64-10.38,5.21-16.59,3.51-35.15,2.77-49.4-7.37-17.93-12.76-21.37-43.6-14.56-63.24,11.25-32.42,45.27-36.33,74.41-26.56Z"/>
        <path class="cls-1" d="M588.43,22.29v136.48c0,4.83-22.19,4.83-22.19,0V25.62c0-4.95,17.74-3.07,22.19-3.33Z"/>
        <path class="cls-1" d="M965.69,65.57c1.45-5.47,16.92-2.78,22.15-3.3l1.15,6.63c5.32-3.76,14.13-7.9,20.52-8.52,4.97-.48,10.44,3.35,16.11,1.86.83,5.1-2.76,18.77-8.03,19.75-8.25-3.91-21.98,1.45-25.76,9.71-.7,1.53-3.94,10.98-3.94,11.59v55.48c0,4.83-22.19,4.83-22.19,0v-93.21Z"/>
      </g>
    </g>
  </g>
</svg>