<?xml version="1.0" encoding="UTF-8"?>
<svg id="Layer_2" data-name="Layer 2" xmlns="http://www.w3.org/2000/svg" viewBox="0 0 1278.76 169.74">
  <defs>
    <style>
      .cls-1 {
        fill: #fff;
        stroke-width: 0px;
      }
    </style>
  </defs>
  <g id="Layer_1-2" data-name="Layer 1">
    <g id="keKXnq.tif">
      <g>
        <path class="cls-1" d="M203.72,0c3.24.53,6.48,1.03,9.72,1.58,15.46,2.65,29.62,8.27,41.77,18.37,12.39,10.29,20.73,23.27,25.2,38.69,6.36,21.97,4.53,43.32-5.88,63.68-11.65,22.79-30.27,37.24-54.94,43.95-13.04,3.55-26.35,3.83-39.77,3.23-25.14-1.12-49.28-6.71-72.68-15.67-18.98-7.27-37.24-15.95-53.65-28.12-2.26-1.68-4.43-3.5-6.54-5.36-1.58-1.39-2.92-3.07-2.07-5.37.85-2.3,2.94-2.29,4.95-2.29,14.58,0,29.17.01,43.75-.01,2.28,0,5.03.32,5.73-2.63.7-2.95-1.7-4.21-3.9-5.28-22.77-11.09-44.92-23.28-65.9-37.5-9.29-6.29-18.17-13.09-26.18-20.97-.37-.36-.75-.71-1.08-1.1-1.55-1.82-2.95-3.81-1.83-6.26,1.06-2.31,3.36-2.27,5.56-2.27,32.34.02,64.69.01,97.03,0,.94,0,1.9.06,2.83-.05,1.87-.22,3.64-.78,4.08-2.89.45-2.14-.92-3.38-2.65-4.17-2.8-1.28-5.66-2.41-8.48-3.63-11.87-5.12-23.5-10.69-34.22-17.98-.28-.19-.53-.43-.8-.64-3.24-2.56-3.4-4.41-.6-7.33,46.85,0,93.71,0,140.56,0ZM199.63,141.46c32.11,0,57.84-25.44,57.87-57.23.03-31.95-25.54-57.56-57.51-57.55-32.5.01-58.03,25.57-58.62,55.92-.64,33.34,27.2,59.29,58.26,58.86Z"/>
        <path class="cls-1" d="M1278.76,138.14c-.47.17-.94.5-1.42.5-7.8.03-15.6.02-23.75.02v-42.45h-65.33v42.06c-.53.18-.84.37-1.15.37-8.06.02-16.13,0-24.19.05-1.57,0-2.21-.64-2.09-2.16.03-.43,0-.86,0-1.28,0-34.06.03-68.11-.05-102.17,0-2.54.6-3.44,3.28-3.38,7.12.18,14.24.13,21.36.02,2.17-.03,2.79.72,2.78,2.82-.08,11.64-.04,23.27-.04,34.91v3.21h65.35v-2.94c0-11.64.06-23.28-.05-34.91-.02-2.33.6-3.15,3.03-3.1,6.52.15,13.04.03,19.56.08.9,0,1.8.33,2.7.51v107.84Z"/>
        <path class="cls-1" d="M741.26,138.52h-26.33V50.03c-.23-.06-.46-.13-.69-.19-.4.82-.91,1.6-1.2,2.46-6.41,19.52-12.79,39.05-19.18,58.58-2.76,8.44-5.55,16.87-8.23,25.33-.57,1.81-1.42,2.52-3.41,2.51-11.93-.1-23.85-.05-35.78-.05h-2.34c-9.74-29.71-19.43-59.24-29.12-88.78-.3.03-.6.05-.89.08v2.78c0,27.47,0,54.94,0,82.41q0,3.5-3.55,3.51c-7.28,0-14.56,0-22.23,0v-2.9c0-34.23.03-68.46-.05-102.69,0-2.54.61-3.4,3.28-3.37,13.73.13,27.46.1,41.18.02,1.93-.01,2.88.53,3.49,2.42,5.55,17.4,11.2,34.77,16.81,52.15,3.84,11.91,7.66,23.82,11.48,35.73.12.37.27.74.65,1.79.67-1.16,1.18-1.76,1.4-2.45,5.89-18.44,11.72-36.9,17.62-55.33,3.48-10.87,7.12-21.69,10.56-32.58.5-1.58,1.36-1.69,2.64-1.69,13.73.01,27.46.05,41.18-.04,2.21-.01,2.76.78,2.75,2.84-.06,17.29-.04,34.57-.04,51.86v50.83c0,1.01,0,2.02,0,3.26Z"/>
        <path class="cls-1" d="M791.7,101.93v36.5c-.71.09-1.29.23-1.86.23-7.46.02-14.93-.03-22.39.04-1.85.02-2.59-.52-2.59-2.47.04-34.65.04-69.3,0-103.95,0-1.88.61-2.54,2.52-2.54,25.82.05,51.64-.1,77.46.11,8.18.07,16.28,1.44,23.29,6.2,7.94,5.39,12.56,13.01,14.14,22.39,1.35,7.94.79,15.78-2.75,23.13-5.02,10.42-13.65,16.34-24.67,19.15-.39.1-.75.28-1.3.49,3.91,4.69,7.7,9.25,11.49,13.8,4.95,5.93,9.92,11.83,14.85,17.77,1.35,1.63,3.61,2.88,2.66,5.9-3.15,0-6.39,0-9.63,0-6.09,0-12.18.05-18.27-.06-.92-.02-2.11-.53-2.69-1.23-7.76-9.32-15.44-18.71-23.14-28.08-1.67-2.03-3.27-4.13-5.07-6.06-.68-.73-1.8-1.47-2.73-1.48-9.35-.1-18.7-.06-28.05-.05-.32,0-.65.1-1.3.21ZM791.87,79.3c.45.1.69.2.93.2,17.65-.14,35.31.12,52.94-.59,11.46-.46,13.73-12,9.66-19.65-2.49-4.68-7.15-6.24-12.06-6.29-16.56-.16-33.11-.06-49.67-.05-.57,0-1.14.12-1.8.19v26.19Z"/>
        <path class="cls-1" d="M1139.77,62.98c-2.92-1.18-5.39-2.19-7.87-3.2-9.23-3.75-18.79-6.29-28.7-7.37-5.74-.63-11.53-1.53-17.27-1.38-7.59.2-15.31.05-22.64,2.88-5.46,2.11-7.87,7.68-4.69,11.99,2.07,2.81,5.41,3.9,8.68,4.3,8.86,1.07,17.76,1.75,26.63,2.72,10.44,1.14,21.02,1.52,31.06,5.09,6.88,2.45,13.12,5.95,16.68,12.57,1.77,3.28,3.22,7,3.66,10.66,1.72,14.49-5.07,26.32-18.14,32.95-8.39,4.26-17.28,6.49-26.6,7.05-5.88.35-11.81.78-17.68.43-12.67-.76-25.06-3.22-36.82-8.15-4.14-1.73-8.1-3.91-12.05-6.04-.82-.44-1.79-1.57-1.81-2.4-.14-7.53-.08-15.06-.06-22.59,0-.31.19-.61.37-1.12,3.83,1.99,7.48,4.06,11.26,5.83,11.29,5.28,23.08,8.95,35.58,9.83,6.76.48,13.58.74,20.35.44,5.63-.24,11.3-1.01,16.21-4.44,5.3-3.71,5.13-11.12-.72-13.88-2.91-1.38-6.27-2.12-9.5-2.47-8.54-.92-17.14-1.31-25.68-2.2-9.59-1.01-19.25-1.61-28.47-5.01-7.04-2.6-12.9-6.58-16.65-13.1-1.53-2.65-2.56-5.73-3.17-8.74-1.03-5.12-.53-10.24,1.13-15.26,2.63-7.96,8.18-13.39,15.21-17.42,7.47-4.28,15.66-6.45,24.2-7.24,11.56-1.07,23.08-.82,34.59.92,9.86,1.49,19.38,4.05,28.61,7.81,4.26,1.74,4.31,1.63,4.31,6.17v20.39Z"/>
        <path class="cls-1" d="M335.5,101.24c3.49,1.88,6.54,3.68,9.73,5.21,10.53,5.04,21.5,8.74,33.16,10.1,4.97.58,9.99,1.55,14.95,1.34,7.83-.33,15.89.11,23.27-3.41,6.06-2.89,7.64-7.59,4.72-12.87-1.77-3.21-5.52-3.98-8.83-4.39-7.76-.96-15.58-1.39-23.36-2.22-11.71-1.25-23.61-1.42-34.82-5.64-10.89-4.1-18.48-11.29-19.73-23.31-1.31-12.59,3.07-22.7,14.89-30.14,7.91-4.98,16.7-7.55,25.95-8.16,7.84-.52,15.77-.96,23.59-.42,14.62,1.01,28.89,3.99,42.18,10.51.61.3,1.41,1.05,1.41,1.61.09,7.77.06,15.54.06,23.32-5.4-2-10.57-4.09-15.85-5.85-8.15-2.71-16.54-4.37-25.11-5.03-3.81-.29-7.64-.96-11.44-.82-8.53.33-17.24-.32-25.27,3.58-3.03,1.47-4.75,3.91-4.64,7.23.11,3.51,2.23,6.02,5.5,6.85,4.65,1.18,9.42,2,14.18,2.58,8.18,1,16.4,1.61,24.58,2.57,6.23.73,12.52,1.34,18.61,2.72,8.56,1.94,16.28,5.78,21.28,13.39,3.92,5.96,4.87,12.63,3.88,19.72-1.08,7.75-4.42,14.21-10.29,19.29-6.63,5.75-14.61,8.79-23.07,10.68-9.74,2.17-19.65,2.58-29.54,1.99-12.93-.77-25.53-3.47-37.49-8.62-3.58-1.54-7.01-3.41-10.49-5.18-1.32-.67-2.1-1.57-2.07-3.34.14-7.61.06-15.23.06-23.29Z"/>
        <path class="cls-1" d="M565.49,94.55h-74.24v21.48c.98,0,2.05,0,3.12,0,23.17,0,46.33,0,69.5,0q3.36,0,3.36,3.43c0,5.56-.03,11.13.02,16.69.02,1.63-.32,2.54-2.25,2.54-32.86-.04-65.72-.04-98.58-.05-.25,0-.5-.08-1.05-.17-.04-.86-.12-1.76-.12-2.66,0-34.32.02-68.63-.06-102.95,0-2.52.8-3.16,3.23-3.15,31.92.07,63.83.07,95.75,0,2.33,0,3.16.59,3.11,3.02-.16,6.41-.05,12.82-.05,19.58h-76.03v19.95h74.28v22.28Z"/>
        <path class="cls-1" d="M1013.67,29.76c0,1.17,0,2,0,2.83-.01,19.08.3,38.17-.16,57.25-.3,12.16-4.04,23.39-12.02,33.01-8.64,10.42-19.93,15.91-33.03,17.82-6.05.88-12.28,1.38-18.35.95-12.72-.91-24.59-4.44-34.57-13.05-9.21-7.95-14.53-18.02-16.67-29.72-1.1-6.06-1.49-12.31-1.57-18.48-.21-15.83-.02-31.66-.12-47.49-.02-2.53.8-3.2,3.24-3.15,6.86.14,13.73.14,20.59,0,2.36-.05,3.1.63,3.09,3.04-.09,18.83-.13,37.65,0,56.48.04,6.58,2.16,12.59,6.18,17.91,4.05,5.35,9.59,8.38,15.92,9.77,8.09,1.77,16.14,1.47,23.97-1.8,8.2-3.42,13.34-9.54,15.51-17.92,1.12-4.3,1.55-8.87,1.59-13.32.18-17.03.11-34.06.02-51.09-.01-2.35.65-3.12,3.05-3.08,7.63.14,15.26.05,23.34.05Z"/>
        <path class="cls-1" d="M235.65,89.83c-.51,0-1.03,0-1.54,0-5.61-.11-6.99-1.43-7.74-6.95-1.9-14.03-11.45-24.95-26.58-25.95-3.52-.23-4.93-1.53-5.28-5.05-.25-2.52-.21-5.1.04-7.63.26-2.59,1.9-3.98,4.52-3.94,18.05.28,31.86,7.83,40.74,23.78,3.3,5.93,5.04,12.28,5.06,19.08.01,4.8-1.05,5.98-5.89,6.51-1.1.12-2.22.14-3.33.2,0-.02,0-.04,0-.06Z"/>
      </g>
    </g>
  </g>
</svg>