<?xml version="1.0" encoding="UTF-8"?>
<svg id="Layer_2" data-name="Layer 2" xmlns="http://www.w3.org/2000/svg" viewBox="0 0 1244.55 191.47">
  <defs>
    <style>
      .cls-1 {
        fill: #fff;
      }
    </style>
  </defs>
  <g id="Layer_1-2" data-name="Layer 1">
    <g>
      <path class="cls-1" d="M195.18,81.06c-14.06,0-25.46-11.18-25.46-24.98,0-6.89,2.85-13.14,7.45-17.66l-21.15-20.75c-4.61,4.52-10.97,7.31-18,7.31-14.06,0-25.46-11.18-25.46-24.98h-29.91c0,13.8-11.4,24.99-25.46,24.99-7.03,0-13.39-2.8-18-7.31l-21.15,20.75c4.61,4.52,7.45,10.76,7.45,17.66,0,13.79-11.4,24.98-25.46,24.98v29.35c14.06,0,25.46,11.18,25.46,24.98,0,6.89-2.85,13.14-7.45,17.66l21.15,20.75c4.61-4.52,10.97-7.31,18-7.31,14.06,0,25.46,11.18,25.46,24.98h29.91c0-13.8,11.4-24.99,25.46-24.99,7.03,0,13.39,2.79,18,7.31l21.15-20.75c-4.61-4.52-7.45-10.76-7.45-17.66,0-13.79,11.4-24.98,25.46-24.98v-29.35ZM146.61,123.5l-49.02,27.76-49.02-27.76v-55.52l49.02-27.76,49.02,27.76v55.52Z"/>
      <path class="cls-1" d="M304.42,31.54c20.36,0,34.72,11.59,42.17,25.85l-17.63,10.17c-7.27-10.52-14-15.33-24.36-15.33s-17.82,5.71-17.82,14.26c0,6.6,5.27,11.77,15.63,15.51l8.72,3.21c27.45,9.45,38.9,20.33,38.9,37.62,0,11.59-4.54,20.68-13.63,27.28-9.09,6.6-19.63,9.81-31.45,9.81-11.09,0-20.9-2.85-29.45-8.56-8.36-5.71-14-13.01-16.9-22.11l18.36-9.45c5.63,12.66,15.09,18.9,27.99,18.9,12.18,0,20.37-5.71,20.37-16.23,0-8.74-5.27-12.3-20.72-18.01l-8-3.03c-21.63-7.67-33.45-17.3-33.45-35.66,0-10.34,4-18.55,11.82-24.78,7.82-6.24,17.63-9.45,29.45-9.45v-.02Z"/>
      <path class="cls-1" d="M419.84,63.64c9.63,0,17.82,3.39,24.72,10.34,7.09,6.96,10.54,17.12,10.54,30.67v53.49h-23.45v-52.07c0-14.97-8.72-22.29-20.36-22.29-6.37,0-11.82,2.32-15.99,6.78-4.18,4.45-6.54,8.74-6.73,12.84v54.74h-23.45V32.08h23.45v51.53c1.27-4.1,4.72-8.38,10.37-13.01,5.63-4.63,12.53-6.96,20.9-6.96Z"/>
      <path class="cls-1" d="M473.28,32.08h23.45v21.93h-23.45v-21.93ZM473.28,65.43h23.45v92.72h-23.45v-92.72Z"/>
      <path class="cls-1" d="M568.71,63.64c11.82,0,22.54,4.28,32.18,12.84,9.63,8.38,14.54,20.15,14.54,35.3s-4.91,26.93-14.54,35.48c-9.64,8.38-20.36,12.66-32.18,12.66-14.54,0-25.26-7.67-29.08-14.98h-1.28v46.48h-23.45v-126h23.45v13.19h1.28c3.81-7.31,14.54-14.97,29.08-14.97ZM545.99,132.3c5.63,4.81,12,7.31,19.45,7.31s13.81-2.49,19.08-7.31c5.46-4.81,8.18-11.77,8.18-20.51s-2.72-15.69-8.18-20.51c-5.27-4.81-11.64-7.31-19.08-7.31s-13.81,2.49-19.45,7.31c-5.45,4.81-8.19,11.77-8.19,20.51s2.73,15.69,8.19,20.51Z"/>
      <path class="cls-1" d="M669.35,31.54c20.36,0,34.72,11.59,42.17,25.85l-17.63,10.17c-7.28-10.52-14-15.33-24.36-15.33s-17.82,5.71-17.82,14.26c0,6.6,5.27,11.77,15.63,15.51l8.73,3.21c27.45,9.45,38.9,20.33,38.9,37.62,0,11.59-4.54,20.68-13.63,27.28-9.09,6.6-19.63,9.81-31.45,9.81-11.09,0-20.9-2.85-29.45-8.56-8.36-5.71-14-13.01-16.9-22.11l18.36-9.45c5.63,12.66,15.09,18.9,27.99,18.9,12.18,0,20.37-5.71,20.37-16.23,0-8.74-5.27-12.3-20.73-18.01l-8-3.03c-21.63-7.67-33.45-17.3-33.45-35.66,0-10.34,4-18.55,11.82-24.78,7.82-6.24,17.63-9.45,29.45-9.45v-.02Z"/>
      <path class="cls-1" d="M777.41,65.43v18.9h-20.17v45.82c0,5.88,3.09,8.74,9.09,8.74,3.09,0,6.91-.71,11.09-1.96v18.73c-4.91,2.32-10.72,3.56-17.63,3.56-16.54,0-25.82-6.07-25.82-24.07v-50.82h-13.27v-18.9h13.27v-23.71h23.27v23.71h20.17Z"/>
      <path class="cls-1" d="M830.47,159.93c-11.81,0-22.72-4.28-32.35-12.66-9.64-8.56-14.37-20.33-14.37-35.48s4.73-26.92,14.37-35.3c9.63-8.56,20.54-12.84,32.35-12.84,14.54,0,25.27,7.67,29.08,14.97h1.27v-13.19h23.27v92.72h-23.27v-13.19h-1.27c-3.81,7.31-14.54,14.97-29.08,14.97ZM814.47,132.3c5.45,4.81,11.81,7.31,19.27,7.31s13.81-2.49,19.27-7.31c5.63-4.81,8.36-11.77,8.36-20.51s-2.72-15.69-8.36-20.51c-5.45-4.81-11.82-7.31-19.27-7.31s-13.82,2.49-19.27,7.31c-5.27,4.81-8,11.77-8,20.51s2.72,15.69,8,20.51Z"/>
      <path class="cls-1" d="M953.65,65.43v18.9h-20.17v45.82c0,5.88,3.09,8.74,9.09,8.74,3.09,0,6.91-.71,11.09-1.96v18.73c-4.91,2.32-10.73,3.56-17.63,3.56-16.54,0-25.81-6.07-25.81-24.07v-50.82h-13.27v-18.9h13.27v-23.71h23.27v23.71h20.17Z"/>
      <path class="cls-1" d="M966.49,32.08h23.45v21.93h-23.45v-21.93ZM966.49,65.43h23.45v92.72h-23.45v-92.72Z"/>
      <path class="cls-1" d="M1035.59,66.86c11.45-4.28,22.35-4.28,33.81,0,11.45,4.1,21.82,11.23,27.81,24.07,6.37,12.66,6.37,29.42,0,42.08-6,12.66-16.36,19.79-27.81,23.89-11.45,4.1-22.36,4.1-33.81,0-11.46-4.1-21.64-11.23-28-23.89-6-12.66-6-29.42,0-42.08,6.37-12.84,16.54-19.97,28-24.07ZM1025.77,111.97c0,8.56,2.72,15.33,8.18,20.33,5.45,4.81,11.64,7.31,18.54,7.31s13.27-2.49,18.73-7.31c5.45-4.99,8.18-11.77,8.18-20.33s-2.72-15.51-8.18-20.51c-5.45-4.99-11.64-7.49-18.73-7.49s-13.27,2.49-18.73,7.49c-5.27,4.99-8,11.77-8,20.51Z"/>
      <path class="cls-1" d="M1169.82,63.64c9.64,0,17.82,3.39,24.72,10.34,7.09,6.96,10.55,17.12,10.55,30.67v53.49h-23.45v-52.07c0-14.97-8.73-22.29-20.36-22.29-6.37,0-11.82,2.32-16,6.78-4.18,4.45-6.54,8.74-6.72,12.84v54.74h-23.45v-92.73h23.45v18.19c1.27-4.1,4.72-8.38,10.36-13.01,5.63-4.63,12.54-6.95,20.9-6.95Z"/>
      <path class="cls-1" d="M1234.59,60.95c2.59,0,4.88.93,6.9,2.79,2.02,1.86,3.05,4.19,3.05,6.98s-1.03,5.12-3.05,6.98c-2.02,1.86-4.3,2.79-6.9,2.79-1.68,0-3.27-.41-4.79-1.2-1.52-.8-2.73-1.97-3.74-3.48-.97-1.53-1.45-3.23-1.45-5.09s.49-3.56,1.45-5.06c1.97-3.06,5.19-4.7,8.53-4.7ZM1234.59,78.47c2.02,0,3.85-.74,5.42-2.19,1.59-1.48,2.39-3.34,2.39-5.56s-.79-4.08-2.39-5.53c-1.57-1.48-3.39-2.22-5.42-2.22s-3.87.74-5.48,2.22c-1.57,1.45-2.36,3.31-2.36,5.53s.8,4.08,2.36,5.56c1.59,1.45,3.42,2.19,5.48,2.19ZM1230.89,65.47h3.53c2.48,0,4.07,1.37,4.07,3.23,0,1.62-.83,2.66-2.46,3.17l3.02,3.88h-1.88l-2.82-3.81h-1.82v3.81h-1.65v-10.29h0ZM1234.56,66.86h-2.05v3.75h2.05c1.52,0,2.25-.63,2.25-1.86s-.85-1.89-2.25-1.89Z"/>
    </g>
  </g>
</svg>