<?xml version="1.0" encoding="UTF-8"?>
<svg id="Layer_2" data-name="Layer 2" xmlns="http://www.w3.org/2000/svg" viewBox="0 0 1266.95 360.66">
  <defs>
    <style>
      .cls-1 {
        fill: #fff;
        stroke-width: 0px;
      }
    </style>
  </defs>
  <g id="Layer_1-2" data-name="Layer 1">
    <g id="HhM5ns.tif">
      <g>
        <path class="cls-1" d="M1266.95,141.39c-2.35,4.63-4.83,9.2-7.04,13.89-16.84,35.83-33.29,71.84-50.53,107.47-11.63,24.03-25.3,46.91-43.36,66.87-13.09,14.47-28.68,25.06-47.53,30.61-.61.18-1.25.23-2.36.43-3.97-12.02-7.9-23.93-11.88-35.98,5.54-2.59,10.83-4.8,15.87-7.49,12.76-6.8,23.15-16.18,30.61-28.68,2.13-3.57,2.67-7.11,1.89-11.28-7.86-41.79-15.55-83.6-23.28-125.41-.71-3.82-1.4-7.65-2.2-12.01,5.61,0,10.53,0,15.46,0,8.58,0,17.16.09,25.73-.05,3-.05,4.3.66,4.63,4.02,3.23,33.04,6.67,66.06,10.17,100.27.88-2.41,1.38-3.84,1.91-5.25,11.8-31.68,23.66-63.34,35.31-95.08,1.29-3.51,3.16-4.25,6.54-4.22,13.35.11,26.71-.04,40.07-.09v1.98Z"/>
        <path class="cls-1" d="M204.81,351.85c-1.74.16-3.55.73-5.2.42-60.1-11.15-120.19-22.39-180.28-33.61-5.18-.97-10.35-2.04-15.55-2.87-3.06-.49-4.11-1.87-3.69-5.02,4.16-31.13,8.25-62.26,12.31-93.4,3.46-26.57,6.86-53.16,10.3-79.74,1.35-10.44,2.79-20.86,4.07-31.31.63-5.13,3.08-8.32,8.24-9.81,9.81-2.83,19.47-6.22,29.3-8.98,3.97-1.11,5.92-3.06,6.99-7.08,5.26-19.72,13.05-38.36,25.69-54.59C106.83,13.2,118.92,3.67,135.31.66c9.56-1.75,17.97-.2,24.99,6.99,1.16,1.19,3.01,2.26,4.61,2.37,13.71.97,22.84,8.58,29.33,19.93,2.68,4.69,4.79,9.7,7.24,14.71,5.07-.96,10.16-1.93,15.25-2.89-.65,12.12-1.35,24.25-1.95,36.37-1.05,21.14-2.09,42.29-3.03,63.44-.78,17.55-1.37,35.1-2.09,52.65-.3,7.38-.69,14.75-1.09,22.13-.92,17.04-1.92,34.07-2.78,51.11-.48,9.67-.63,19.36-1.13,29.03-.46,9.01-1.26,18-1.78,27-.45,7.7-.75,15.41-1.04,23.12-.08,2.26-.42,4.84,2.96,5.22ZM57.47,247.96c-.62,1.03-1.07,1.53-1.25,2.11-2.55,8.17-5.26,16.3-7.41,24.57-.46,1.75.55,4.75,1.94,5.95,4.2,3.65,8.6,7.32,13.5,9.86,16.5,8.55,33.91,12.11,52.07,6.18,24.55-8.02,35.07-32.42,33.51-56.78-1-15.65-9.25-27.48-21.13-37.08-7.04-5.69-14.57-10.84-21.19-16.98-8.45-7.82-5.73-20.06,4.96-24.38,5.79-2.34,11.9-2.95,17.99-1.73,6.74,1.35,13.39,3.18,20.87,5,4.23-12.73,8.55-25.71,12.83-38.6-1.29-.78-1.82-1.18-2.41-1.43-1.06-.44-2.15-.83-3.25-1.17-11.76-3.7-23.71-3.36-35.75-1.85-27.67,3.47-49.18,22.25-55.11,48.87-3.29,14.76-3.08,29.47,7.18,41.78,5.32,6.39,12.37,11.32,18.24,17.3,3.86,3.94,7.65,8.22,10.29,13,2.76,5.01,2.08,10.54-1.75,15.28-3.88,4.81-9.23,6.22-14.7,4.63-6.58-1.91-12.92-4.79-19.13-7.73-3.52-1.66-6.57-4.3-10.29-6.8ZM148.06,13.96c-3.61-2.92-7.27-2.17-10.69-1.58-12,2.07-21.03,9.01-28.45,18.21-11.34,14.05-18.31,30.3-23.57,47.38-.22.7-.03,1.52-.03,3.07,8.79-2.78,17.08-5.29,25.27-8.11,1.03-.35,1.83-2.16,2.22-3.45,1.38-4.55,2.35-9.24,3.82-13.76,4.76-14.65,11.87-27.8,24.63-37.18,2.07-1.52,4.26-2.88,6.8-4.58ZM126.6,67.99c10.91-3.37,21.26-6.59,31.62-9.74,2.63-.8,3.05-2.75,2.84-5.02-.56-6.04-1.03-12.09-1.88-18.09-.47-3.3-1.66-6.5-2.51-9.69-12.06,2.6-27.64,24.52-30.07,42.55ZM170.31,23.11c1.24,10.1,2.45,19.88,3.71,30.13,5.3-1.68,10.39-3.29,15.4-4.88-1.9-12.32-10.44-23.54-19.11-25.24Z"/>
        <path class="cls-1" d="M204.81,351.85c-3.38-.38-3.05-2.96-2.96-5.22.29-7.71.59-15.42,1.04-23.12.52-9.01,1.32-18,1.78-27,.5-9.67.64-19.36,1.13-29.03.85-17.04,1.86-34.07,2.78-51.11.4-7.37.79-14.75,1.09-22.13.72-17.55,1.31-35.1,2.09-52.65.93-21.15,1.98-42.29,3.03-63.44.6-12.13,1.3-24.25,1.95-36.37,1.52.83,3.3,1.4,4.52,2.55,5.64,5.3,11,10.89,16.73,16.09,1.66,1.51,4.12,2.66,6.34,2.93,7.51.9,15.08,1.44,22.64,1.91,3.57.22,5.48,1.93,5.98,5.32,3.03,20.47,6.02,40.94,9.04,61.41,3.81,25.83,7.62,51.66,11.43,77.49,4.12,27.95,8.23,55.89,12.36,83.84,1.51,10.24,2.95,20.49,4.66,30.7.64,3.8-.11,5.44-4.31,6.32-32.82,6.89-65.58,14.09-98.37,21.17-.96.21-1.96.23-2.94.34Z"/>
        <path class="cls-1" d="M810.5,139.64h37.97c-.71,7.22-1.39,14.18-2.17,22.13,2.2-2.49,3.81-4.39,5.5-6.22,9.98-10.78,22-17.77,36.88-18.87,22.32-1.64,39.13,10.77,45.14,33.72,8.9,33.96-4.08,83.66-35.73,108.88-16.62,13.24-43.28,22.28-71.02,10.49-1.97,10.55-3.9,21-5.88,31.43-1.99,10.45-4.04,20.89-6.12,31.6h-42.81c12.31-71.19,28.2-141.46,38.24-213.17ZM891.28,194.84c-.67-3.04-1.21-8.51-3.13-13.45-2.89-7.46-9.9-10.44-17.78-8.81-6.29,1.3-11.07,4.88-15.17,9.54-6.55,7.45-10.84,16.18-12.91,25.74-3.15,14.59-5.42,29.37-8.46,43.98-.8,3.86.24,5.67,3.48,7.39,11.99,6.36,24.43,3.95,34.07-7.38,13.36-15.7,18.47-34.47,19.9-57.01Z"/>
        <path class="cls-1" d="M520.24,292.47c-12.64,0-25.32,0-38-.01-1.29,0-2.58-.15-4.61-.28,13.96-73.11,27.86-145.91,41.76-218.74h43.06c-5.44,28.3-10.81,56.26-16.18,84.23.23.17.46.33.68.5,1.54-1.54,3.06-3.11,4.62-4.63,11.47-11.24,25.13-17.24,41.33-16.97,18.63.31,31.5,12.4,33.62,30.94,1.58,13.8-.82,27.22-3.3,40.63-5.07,27.45-10.4,54.85-15.63,82.27-.09.47-.28.93-.53,1.72h-42.81c1.42-7.79,2.81-15.46,4.23-23.13,4.3-23.08,8.75-46.14,12.81-69.26.9-5.13.9-10.52.54-15.74-.64-9.49-8.29-14.3-17.67-11.53-6.64,1.96-11.4,6.47-15.42,11.82-8.01,10.64-11.86,22.99-14.31,35.84-4.4,23.06-8.73,46.14-13.12,69.21-.18.95-.63,1.86-1.08,3.15Z"/>
        <path class="cls-1" d="M637.79,234.14c.98-29.28,9.63-54.95,30.75-75.23,19.05-18.29,42.08-25.24,68.15-21.24,23.07,3.55,40.6,20.81,43.89,44.74,4.76,34.67-3.76,65.92-29.29,90.79-20.2,19.68-44.95,26.05-72.51,19.47-23.53-5.61-37.67-25.21-40.35-48.77-.39-3.43-.45-6.9-.63-9.77ZM738.47,195.67c-.32-2.5-.45-5.99-1.25-9.31-1.98-8.21-6.35-14.6-15.28-16.13-9.85-1.68-17.52,2.73-23,10.39-13.48,18.84-18.46,40.1-15.84,62.94.93,8.11,4.79,15.17,13.57,17.7,8.62,2.48,16.01-.09,21.8-6.67,3.12-3.54,5.97-7.47,8.21-11.61,7.82-14.43,10.8-30.15,11.8-47.32Z"/>
        <path class="cls-1" d="M1082.98,172.69c-7.66,40.25-15.21,79.88-22.76,119.53h-43.05c7.54-39.8,15.02-79.24,22.63-119.39h-19.98c2.24-11.45,4.33-22.13,6.47-33.03,5.49,0,10.44-.23,15.35.07,3.78.23,5.04-1.16,5.65-4.85,2.44-14.89,6.85-29.1,16.24-41.3,11.24-14.61,26.46-22.09,44.53-23.23,8.27-.52,16.68,1,25.02,1.73,1.56.14,3.06.94,4.97,1.56-2.75,11.26-5.42,22.2-8.22,33.63-10.25-2.17-20.44-4.12-28.96,4.01-7.86,7.51-10.06,17.35-11.57,28.15h29.52c-2.16,11.38-4.2,22.11-6.29,33.12h-29.56Z"/>
        <path class="cls-1" d="M360.16,284.6c3.61-10.38,7-20.12,10.53-30.29,1.32.48,2.47.85,3.58,1.32,10.06,4.26,20.34,7.6,31.45,7.47,1.48-.02,2.99.05,4.44-.17,6.19-.92,11.55-3.31,13.72-9.68,2.19-6.41.34-12.1-4.66-16.5-3.07-2.7-6.63-4.83-10.01-7.17-5.13-3.56-10.61-6.7-15.37-10.69-22.77-19.06-17.02-47.16-2.49-62.55,10.56-11.18,24.01-16.67,38.89-18.48,13.3-1.62,26.67-1.24,39.68,2.62,2.78.82,5.42,2.11,8.58,3.36-3.4,10.39-6.64,20.3-9.86,30.15-6.63-1.57-12.77-3.61-19.06-4.35-5.46-.64-11.18-.33-16.64.49-5.51.84-9.73,4.24-11.12,9.94-1.41,5.8,1.31,10.29,5.69,13.78,2.69,2.14,5.72,3.85,8.58,5.78,5.45,3.67,11.24,6.94,16.29,11.11,22.48,18.58,22.08,50.88-.62,69.34-10.29,8.37-22.39,12.46-35.28,14.13-16.58,2.15-32.88.74-48.48-5.78-2.55-1.07-4.99-2.42-7.87-3.84Z"/>
        <path class="cls-1" d="M1009.49,140.13c-9.73,51.04-19.31,101.3-28.95,151.86h-43.08c9.61-50.79,19.17-101.31,28.73-151.86h43.3Z"/>
        <path class="cls-1" d="M1018.68,97.21c-.32,15-10.76,24.7-26.26,24.42-11.95-.22-19.69-9.16-19.46-22.5.23-13.54,11.65-24.2,25.58-23.88,12.27.29,20.42,9.18,20.15,21.97Z"/>
      </g>
    </g>
  </g>
</svg>