<?xml version="1.0" encoding="UTF-8"?>
<svg id="Layer_2" data-name="Layer 2" xmlns="http://www.w3.org/2000/svg" viewBox="0 0 1221.63 304.32">
  <defs>
    <style>
      .cls-1 {
        fill: #fff;
      }
    </style>
  </defs>
  <g id="Layer_1-2" data-name="Layer 1">
    <g id="ObopBe">
      <g>
        <polygon class="cls-1" points="1094.99 4.99 1094.99 149.72 1152.66 84.14 1217.11 84.14 1144.76 168.94 1214.87 248.07 1221.63 260.53 1157.18 260.53 1094.99 185.9 1094.99 257.14 1091.6 260.53 1044.11 260.53 1040.72 257.14 1040.72 8.38 1044.11 4.99 1094.99 4.99"/>
        <path class="cls-1" d="M767.09,260.53v-18.09c-48.94,45.68-117.4,11.61-130.71-49.07-9.79-44.63,14.24-98.02,60.49-110.47,16.61-4.47,36.47-2.63,52.17,4.6,6.71,3.09,12.06,8.37,18.04,12.48v-15.83h54.28v173l-3.39,3.39h-50.88ZM721.2,129.85c-15.6,2.8-33.31,18.59-35.42,34.66-6.26,47.51,52.37,65.71,80.22,30.48,1.81-3.56,1.96-36.19,1.13-41.91-.52-3.6-9.1-12.19-12.44-14.7-8.59-6.45-22.89-10.44-33.49-8.53Z"/>
        <path class="cls-1" d="M479.45,202.16c-18.62-9.66-40.69-10.12-59.92-18.08-39.03-16.17-42.81-62.96-10.89-88.65,28.29-22.76,81.01-18.92,110.49.35,8.37,5.47,5.53,7.29,2.57,15.48-1.38,3.81-9.25,24.45-11.35,24.89-13.4-8.05-63.38-26.51-72.34-9.1-4.3,11.12,1.5,13.27,10.23,17.03,17.8,7.66,38.14,9.24,55.84,18.79,26.24,14.16,35.24,40.36,21.48,67.57-18.35,36.28-73.08,36.57-107.23,27.23-5.89-1.61-35.08-13.98-35.33-18.58l16.63-35.07c17.56,14.14,43.22,20.19,65.67,18.16,10.31-.93,21.43-9.72,14.17-20.01Z"/>
        <path class="cls-1" d="M1018.11,129.35l-41.88,22.24c-15.04-15.93-28.37-27.01-51.43-19.42-26.47,8.72-36.7,37.98-22.48,62.1,15.26,25.89,57.88,26.16,70.72-1.43l3.17-.23,40.82,22.66c1.62,1.23-.65,3.89-1.55,5.32-23.41,37.13-71.2,52.29-112.02,35.85-75.7-30.5-75.97-137.98-.7-168.92,23.83-9.79,48.08-9.56,71.68.7,18.6,8.08,34.54,23.11,43.66,41.13Z"/>
        <polygon class="cls-1" points="556.78 4.99 607.66 4.99 611.06 8.38 611.06 257.14 607.66 260.53 560.17 260.53 556.78 257.14 556.78 4.99"/>
        <path class="cls-1" d="M106.1,161.5c17.68-3.06,34.51,10.37,36.76,27.88,3.51,27.33-2.02,61.78-.39,89.88-11.88,37.33-59.29,31.67-62.91-8.49-1.71-18.93-2.05-62.69.61-80.95,2.02-13.87,11.71-25.87,25.94-28.33Z"/>
        <path class="cls-1" d="M182.92.87c16.52-3.72,34.19,4.73,39.13,21.13l-.37,99.05c-11.97,33.18-57.28,26.58-60.73-8.56-1.89-19.26-2.26-67.19.17-85.92,1.32-10.22,11.59-23.4,21.79-25.7Z"/>
        <path class="cls-1" d="M187.52,161.5c27.3,1.17,58.74-3.18,85.54-.55,36.43,3.57,42.71,50.93,6.67,61.1l-96.79-.37c-31.47-11.49-27.52-52.92,4.58-60.18Z"/>
        <path class="cls-1" d="M22.37,82.29h98.68c30.56,13.41,26.85,54.43-6.85,60.17-16.33,2.79-63.51,2.12-81.01.55-37.36-3.37-46.02-47.01-10.82-60.72Z"/>
        <path class="cls-1" d="M61.54,161.03v39.57c0,.58-4.71,8.69-5.73,10.1-13.16,18.14-37.84,16.48-50.83-1.02-7.82-10.54-6.2-30.47,3.36-39.67,1.95-1.87,14.18-8.98,15.9-8.98h37.31Z"/>
        <path class="cls-1" d="M242.45,142.94v-39.57c0-3.07,10.22-15.69,13.65-18,7.9-5.33,25.85-5.33,33.75,0,18.35,12.39,18.69,39.47.02,51.86-1.66,1.1-11.69,5.72-12.37,5.72h-35.05Z"/>
        <path class="cls-1" d="M161.04,242.44h39.57c1.29,0,11.79,6.99,13.64,8.97,11.26,12,11.02,32.87-1.13,44.25-9.05,8.48-25.78,11.42-36.17,4.36-3.83-2.6-15.91-16.63-15.91-20.27v-37.31Z"/>
        <path class="cls-1" d="M103.78.88c23.81-5.08,37.41,12.88,39.25,34.56.41,4.83,1.01,22.91-2.23,25.07-17.75,1.52-42.94,5.19-54.05-11.76-11-16.77-3.47-43.49,17.03-47.87Z"/>
      </g>
    </g>
  </g>
</svg>