<svg width="605" height="136" viewBox="0 0 605 136" fill="none" xmlns="http://www.w3.org/2000/svg">
<rect width="605" height="135.939" rx="24" fill="url(#paint0_linear_991_559)"/>
<rect x="32.0041" y="32.0041" width="71.9312" height="71.9312" rx="21.5766" fill="#DBFE52"/>
<path fill-rule="evenodd" clip-rule="evenodd" d="M80.4486 57.071L84.2633 60.8857L64.3732 80.7758L53.4744 69.8771L57.2892 66.0624L63.1016 71.8748C63.8039 72.5771 64.9425 72.5771 65.6448 71.8748L80.4486 57.071Z" fill="#0B0D01"/>
<path d="M148.461 83.9718H152.742L145.461 71.6502C150.221 70.5701 151.861 67.0896 151.861 63.8892C151.861 59.7287 149.901 55.5681 142.46 55.5681H131.939V83.9718H135.739V72.1703H141.5L148.461 83.9718ZM135.739 58.7685H142.02C146.381 58.7685 147.861 60.9688 147.861 63.8892C147.861 66.7296 146.421 68.9699 142.02 68.9699H135.739V58.7685Z" fill="white"/>
<path d="M173.165 72.5703C173.165 66.5695 170.044 63.4891 164.643 63.4891C158.923 63.4891 155.562 67.5297 155.562 74.2105C155.562 80.8114 158.963 84.4519 164.683 84.4519C168.724 84.4519 171.644 82.5316 173.045 78.8911L170.244 77.651C169.364 80.0913 167.484 81.4515 164.923 81.4515C161.363 81.4515 159.003 78.8911 158.963 74.9706H173.165V72.5703ZM169.724 72.2103H158.963C159.043 68.4498 161.043 66.1695 164.563 66.1695C167.844 66.1695 169.724 68.0897 169.724 71.7702V72.2103Z" fill="white"/>
<path d="M185.092 84.4519C188.213 84.4519 190.373 82.9317 191.573 80.2513V83.9718H194.774V54.968H191.373V66.9296C190.093 64.5693 188.133 63.4891 185.492 63.4891C180.492 63.4891 176.971 67.8097 176.971 73.9705C176.971 80.2513 180.252 84.4519 185.092 84.4519ZM186.012 81.4515C182.612 81.4515 180.572 78.6511 180.572 73.9705C180.572 69.2499 182.612 66.4895 186.012 66.4895C189.373 66.4895 191.453 69.1699 191.453 73.5304V74.4506C191.453 78.7311 189.333 81.4515 186.012 81.4515Z" fill="white"/>
<path d="M217.975 72.5703C217.975 66.5695 214.855 63.4891 209.454 63.4891C203.733 63.4891 200.373 67.5297 200.373 74.2105C200.373 80.8114 203.773 84.4519 209.494 84.4519C213.534 84.4519 216.455 82.5316 217.855 78.8911L215.055 77.651C214.175 80.0913 212.294 81.4515 209.734 81.4515C206.174 81.4515 203.813 78.8911 203.773 74.9706H217.975V72.5703ZM214.535 72.2103H203.773C203.853 68.4498 205.853 66.1695 209.374 66.1695C212.654 66.1695 214.535 68.0897 214.535 71.7702V72.2103Z" fill="white"/>
<path d="M230.223 84.4519C235.103 84.4519 237.864 81.9315 237.864 78.3311C237.864 75.4107 236.264 73.5704 232.663 72.8904L228.783 72.1703C226.822 71.8102 225.702 71.0101 225.702 69.3299C225.702 67.3696 227.262 66.2495 229.823 66.2495C232.543 66.2495 234.103 67.6497 234.543 69.6499L237.904 68.8898C237.504 65.5294 234.463 63.4891 229.983 63.4891C225.262 63.4891 222.382 66.0495 222.382 69.4899C222.382 72.5303 224.302 74.4506 227.703 75.0906L231.623 75.8107C233.423 76.1308 234.503 76.8509 234.503 78.6111C234.503 80.3313 233.023 81.6515 230.343 81.6515C227.422 81.6515 225.542 80.2113 225.062 77.691L221.622 78.2911C222.302 82.2516 225.502 84.4519 230.223 84.4519Z" fill="white"/>
<path d="M243.11 60.2487H246.991V55.9682H243.11V60.2487ZM243.35 83.9718H246.751V63.9692H243.35V83.9718Z" fill="white"/>
<path d="M269.299 63.6492C269.86 63.6492 270.34 63.7292 270.74 63.8092V60.8488C270.3 60.7288 269.86 60.6888 269.419 60.6888C266.739 60.6888 265.259 62.289 264.659 64.3293C263.539 63.8092 262.259 63.4891 260.738 63.4891C256.098 63.4891 253.337 66.3695 253.337 70.25C253.337 72.2103 254.017 73.8905 255.298 75.1306C253.617 75.7707 252.457 77.1309 252.457 79.1312C252.457 80.5714 253.097 81.8515 254.778 82.6116C252.657 83.2917 251.537 84.8919 251.537 86.7722C251.537 89.6125 253.497 92.2529 260.538 92.2529C267.499 92.2529 270.46 89.6525 270.46 85.892C270.46 82.2916 268.179 80.2513 263.659 80.2513H258.778C256.298 80.2513 255.458 79.3312 255.458 78.211C255.458 77.2909 256.058 76.6108 256.898 76.2508C257.978 76.7709 259.258 77.0909 260.738 77.0909C265.379 77.0909 268.139 74.1305 268.139 70.25C268.139 68.3698 267.499 66.7296 266.299 65.5294C266.779 64.2492 267.779 63.6492 269.299 63.6492ZM260.738 74.4906C258.178 74.4906 256.538 72.6903 256.538 70.25C256.538 67.8097 258.178 66.0895 260.738 66.0895C263.299 66.0895 264.939 67.8497 264.939 70.29C264.939 72.7303 263.299 74.4906 260.738 74.4906ZM262.899 83.2517C265.659 83.2517 267.059 84.2518 267.059 86.1321C267.059 87.9323 265.819 89.4525 260.938 89.4525C257.338 89.4525 254.858 88.6524 254.858 86.1721C254.858 84.9719 255.538 83.8118 256.978 83.1717C257.498 83.2117 258.058 83.2517 258.658 83.2517H262.899Z" fill="white"/>
<path d="M274.37 83.9718H277.77V73.5304C277.77 69.0899 279.811 66.4095 283.131 66.4095C286.051 66.4095 287.531 68.2098 287.531 71.7302V83.9718H290.932V71.5302C290.932 66.1695 288.652 63.4091 284.251 63.4091C281.091 63.4091 278.89 64.8893 277.57 67.9297V63.9692H274.37V83.9718Z" fill="white"/>
<path d="M312.889 84.4519C316.17 84.4519 318.69 82.8917 319.61 80.3313C319.65 81.6115 319.77 82.9317 319.93 83.9718H323.491C323.011 82.4116 322.811 80.2913 322.811 77.2109V71.8102C322.811 65.9695 320.41 63.4891 314.93 63.4891C310.249 63.4891 307.049 66.1695 306.769 70.25H310.409C310.569 67.7297 312.249 66.2895 314.97 66.2895C318.05 66.2895 319.37 67.7697 319.37 71.4502V71.7702L315.65 72.2103C312.369 72.6103 310.449 73.0904 308.929 73.8505C307.129 74.8506 306.129 76.5708 306.129 78.5711C306.129 82.1316 308.809 84.4519 312.889 84.4519ZM313.65 81.6515C311.209 81.6515 309.729 80.4513 309.729 78.4911C309.729 76.5308 311.009 75.4907 313.97 75.0506L319.41 74.2505V75.2507C319.41 79.1312 317.13 81.6515 313.65 81.6515Z" fill="white"/>
<path d="M333.095 54.968H329.694V83.9718H333.095V54.968Z" fill="white"/>
<path d="M344.112 54.968H340.711V83.9718H344.112V54.968Z" fill="white"/>
<path d="M369.441 84.4519C375.082 84.4519 378.762 80.4913 378.762 73.9705C378.762 67.4497 375.082 63.4891 369.441 63.4891C363.8 63.4891 360.12 67.4497 360.12 73.9705C360.12 80.4913 363.8 84.4519 369.441 84.4519ZM369.441 81.4915C365.841 81.4915 363.72 78.9311 363.72 73.9705C363.72 69.0099 365.841 66.4495 369.441 66.4495C373.042 66.4495 375.162 69.0099 375.162 73.9705C375.162 78.9311 373.042 81.4915 369.441 81.4915Z" fill="white"/>
<path d="M393.431 63.9692H388.43V61.2889C388.43 58.8485 389.27 57.7284 391.311 57.7284C391.951 57.7284 392.711 57.8084 393.431 57.9284V55.008C392.671 54.808 391.831 54.728 390.87 54.728C387.31 54.728 385.03 57.1683 385.03 60.8088V63.9692H381.349V66.7696H385.03V83.9718H388.43V66.7696H393.431V63.9692Z" fill="white"/>
<path d="M408.171 60.2487H412.051V55.9682H408.171V60.2487ZM408.411 83.9718H411.811V63.9692H408.411V83.9718Z" fill="white"/>
<path d="M415.997 66.7696H419.718V77.971C419.718 81.6915 420.838 84.3318 425.159 84.3318C426.439 84.3318 427.239 84.2118 428.119 83.9718V80.8514C427.439 81.0114 426.919 81.1314 426.039 81.1314C423.999 81.1314 423.118 80.1313 423.118 77.851V66.7696H428.119V63.9692H423.118V57.2883L419.718 58.7285V63.9692H415.997V66.7696Z" fill="white"/>
<path d="M434.501 76.6909H436.902L437.902 54.968H433.501L434.501 76.6909ZM437.822 79.7312H433.581V83.9718H437.822V79.7312Z" fill="white"/>
<rect x="0.5" y="0.5" width="604" height="134.939" rx="23.5" stroke="white" stroke-opacity="0.16"/>
<defs>
<linearGradient id="paint0_linear_991_559" x1="302.5" y1="0" x2="302.5" y2="135.939" gradientUnits="userSpaceOnUse">
<stop stop-color="#343434"/>
<stop offset="1" stop-color="#111308"/>
</linearGradient>
</defs>
</svg>
