<svg width="605" height="136" viewBox="0 0 605 136" fill="none" xmlns="http://www.w3.org/2000/svg">
<rect width="605" height="135.939" rx="24" fill="url(#paint0_linear_991_560)"/>
<rect x="32.0041" y="32.0041" width="71.9312" height="71.9312" rx="21.5766" fill="#DBFE52"/>
<path fill-rule="evenodd" clip-rule="evenodd" d="M80.4486 57.071L84.2633 60.8857L64.3732 80.7758L53.4744 69.8771L57.2892 66.0624L63.1016 71.8748C63.8039 72.5771 64.9425 72.5771 65.6448 71.8748L80.4486 57.071Z" fill="#0B0D01"/>
<path d="M146.501 69.2899C149.741 68.3698 151.261 65.8094 151.261 63.1291C151.261 59.7686 149.301 55.5681 141.82 55.5681H131.939V83.9718H142.66C149.861 83.9718 152.062 79.8112 152.062 76.1708C152.062 72.3703 149.901 69.8899 146.501 69.2899ZM141.82 58.7685C146.421 58.7685 147.501 61.1688 147.501 63.4091C147.501 65.3694 146.701 67.8897 141.82 67.8897H135.739V58.7685H141.82ZM142.46 80.7714H135.739V71.0901H142.86C146.741 71.0901 148.301 73.1704 148.301 75.8107C148.301 78.371 146.901 80.7714 142.46 80.7714Z" fill="white"/>
<path d="M164.111 84.4518C166.912 84.4518 169.392 82.6516 170.312 80.2113V83.9718H173.512V63.9692H170.112V74.7306C170.112 78.8111 167.952 81.5315 164.751 81.5315C162.111 81.5315 160.671 79.6912 160.671 76.3308V63.9692H157.27V76.7308C157.27 81.4114 159.071 84.4518 164.111 84.4518Z" fill="white"/>
<path d="M180.485 60.2487H184.365V55.9681H180.485V60.2487ZM180.725 83.9718H184.125V63.9692H180.725V83.9718Z" fill="white"/>
<path d="M194.913 54.968H191.512V83.9718H194.913V54.968Z" fill="white"/>
<path d="M208.65 84.4518C211.77 84.4518 213.931 82.9316 215.131 80.2513V83.9718H218.331V54.968H214.931V66.9296C213.651 64.5693 211.69 63.4891 209.05 63.4891C204.049 63.4891 200.529 67.8097 200.529 73.9705C200.529 80.2513 203.809 84.4518 208.65 84.4518ZM209.57 81.4514C206.17 81.4514 204.129 78.6511 204.129 73.9705C204.129 69.2499 206.17 66.4895 209.57 66.4895C212.931 66.4895 215.011 69.1699 215.011 73.5304V74.4505C215.011 78.7311 212.891 81.4514 209.57 81.4514Z" fill="white"/>
<path d="M233.122 66.7695H236.843V77.971C236.843 81.6915 237.963 84.3318 242.283 84.3318C243.564 84.3318 244.364 84.2118 245.244 83.9718V80.8514C244.564 81.0114 244.044 81.1314 243.164 81.1314C241.123 81.1314 240.243 80.1313 240.243 77.851V66.7695H245.244V63.9692H240.243V57.2883L236.843 58.7285V63.9692H233.122V66.7695Z" fill="white"/>
<path d="M250.426 83.9718H253.827V73.5304C253.827 69.0098 255.787 66.4095 259.227 66.4095C262.108 66.4095 263.588 68.2497 263.588 71.7702V83.9718H266.988V71.5302C266.988 66.2095 264.708 63.4091 260.387 63.4091C257.267 63.4091 255.027 64.8893 253.827 67.7297V54.968H250.426V83.9718Z" fill="white"/>
<path d="M289.39 72.5703C289.39 66.5695 286.27 63.4891 280.869 63.4891C275.149 63.4891 271.788 67.5296 271.788 74.2105C271.788 80.8114 275.189 84.4518 280.909 84.4518C284.95 84.4518 287.87 82.5316 289.27 78.8911L286.47 77.6509C285.59 80.0913 283.71 81.4514 281.149 81.4514C277.589 81.4514 275.229 78.8911 275.189 74.9706H289.39V72.5703ZM285.95 72.2102H275.189C275.269 68.4498 277.269 66.1695 280.789 66.1695C284.07 66.1695 285.95 68.0897 285.95 71.7702V72.2102Z" fill="white"/>
<path d="M308.99 54.968H305.589V83.9718H308.99V54.968Z" fill="white"/>
<path d="M321.367 84.4518C324.648 84.4518 327.168 82.8916 328.088 80.3313C328.128 81.6115 328.248 82.9316 328.408 83.9718H331.968C331.488 82.4116 331.288 80.2913 331.288 77.2109V71.8102C331.288 65.9694 328.888 63.4891 323.407 63.4891C318.727 63.4891 315.526 66.1695 315.246 70.25H318.887C319.047 67.7297 320.727 66.2895 323.447 66.2895C326.528 66.2895 327.848 67.7697 327.848 71.4501V71.7702L324.127 72.2102C320.847 72.6103 318.927 73.0904 317.407 73.8505C315.606 74.8506 314.606 76.5708 314.606 78.5711C314.606 82.1315 317.287 84.4518 321.367 84.4518ZM322.127 81.6515C319.687 81.6515 318.207 80.4513 318.207 78.4911C318.207 76.5308 319.487 75.4907 322.447 75.0506L327.888 74.2505V75.2506C327.888 79.1311 325.608 81.6515 322.127 81.6515Z" fill="white"/>
<path d="M337.972 83.9718H341.372V73.5304C341.372 69.0898 343.412 66.4095 346.733 66.4095C349.653 66.4095 351.133 68.2097 351.133 71.7302V83.9718H354.534V71.5302C354.534 66.1695 352.254 63.4091 347.853 63.4091C344.693 63.4091 342.492 64.8893 341.172 67.9297V63.9692H337.972V83.9718Z" fill="white"/>
<path d="M367.46 84.4518C370.58 84.4518 372.74 82.9316 373.94 80.2513V83.9718H377.141V54.968H373.74V66.9296C372.46 64.5693 370.5 63.4891 367.86 63.4891C362.859 63.4891 359.339 67.8097 359.339 73.9705C359.339 80.2513 362.619 84.4518 367.46 84.4518ZM368.38 81.4514C364.979 81.4514 362.939 78.6511 362.939 73.9705C362.939 69.2499 364.979 66.4895 368.38 66.4895C371.74 66.4895 373.82 69.1699 373.82 73.5304V74.4505C373.82 78.7311 371.7 81.4514 368.38 81.4514Z" fill="white"/>
<path d="M384.3 60.2487H388.181V55.9681H384.3V60.2487ZM384.54 83.9718H387.941V63.9692H384.54V83.9718Z" fill="white"/>
<path d="M395.128 83.9718H398.528V73.5304C398.528 69.0898 400.568 66.4095 403.889 66.4095C406.809 66.4095 408.289 68.2097 408.289 71.7302V83.9718H411.69V71.5302C411.69 66.1695 409.409 63.4091 405.009 63.4091C401.848 63.4091 399.648 64.8893 398.328 67.9297V63.9692H395.128V83.9718Z" fill="white"/>
<path d="M433.657 63.6491C434.217 63.6491 434.697 63.7292 435.097 63.8092V60.8488C434.657 60.7288 434.217 60.6888 433.777 60.6888C431.096 60.6888 429.616 62.289 429.016 64.3292C427.896 63.8092 426.616 63.4891 425.096 63.4891C420.455 63.4891 417.695 66.3695 417.695 70.25C417.695 72.2102 418.375 73.8905 419.655 75.1306C417.975 75.7707 416.814 77.1309 416.814 79.1311C416.814 80.5713 417.455 81.8515 419.135 82.6116C417.014 83.2917 415.894 84.8919 415.894 86.7721C415.894 89.6125 417.855 92.2528 424.896 92.2528C431.856 92.2528 434.817 89.6525 434.817 85.892C434.817 82.2915 432.536 80.2513 428.016 80.2513H423.135C420.655 80.2513 419.815 79.3312 419.815 78.211C419.815 77.2909 420.415 76.6108 421.255 76.2508C422.335 76.7708 423.615 77.0909 425.096 77.0909C429.736 77.0909 432.496 74.1305 432.496 70.25C432.496 68.3698 431.856 66.7295 430.656 65.5294C431.136 64.2492 432.136 63.6491 433.657 63.6491ZM425.096 74.4905C422.535 74.4905 420.895 72.6903 420.895 70.25C420.895 67.8097 422.535 66.0895 425.096 66.0895C427.656 66.0895 429.296 67.8497 429.296 70.29C429.296 72.7303 427.656 74.4905 425.096 74.4905ZM427.256 83.2517C430.016 83.2517 431.416 84.2518 431.416 86.132C431.416 87.9323 430.176 89.4525 425.296 89.4525C421.695 89.4525 419.215 88.6524 419.215 86.1721C419.215 84.9719 419.895 83.8117 421.335 83.1717C421.855 83.2117 422.415 83.2517 423.015 83.2517H427.256Z" fill="white"/>
<path d="M449.9 91.7728H453.301V80.8114C454.181 82.7716 456.341 84.4518 459.422 84.4518C464.262 84.4518 467.703 80.3713 467.703 73.9705C467.703 67.6497 464.462 63.4891 459.622 63.4891C456.701 63.4891 454.381 64.9293 453.101 67.6897V63.9692H449.9V91.7728ZM458.621 81.4514C455.301 81.4514 453.221 78.7311 453.221 74.4105V73.4504C453.221 69.1298 455.381 66.4895 458.741 66.4895C462.102 66.4895 464.102 69.2499 464.102 73.9705C464.102 78.6511 462.022 81.4514 458.621 81.4514Z" fill="white"/>
<path d="M477.872 84.4518C481.152 84.4518 483.672 82.8916 484.593 80.3313C484.633 81.6115 484.753 82.9316 484.913 83.9718H488.473C487.993 82.4116 487.793 80.2913 487.793 77.2109V71.8102C487.793 65.9694 485.393 63.4891 479.912 63.4891C475.231 63.4891 472.031 66.1695 471.751 70.25H475.391C475.551 67.7297 477.232 66.2895 479.952 66.2895C483.032 66.2895 484.353 67.7697 484.353 71.4501V71.7702L480.632 72.2102C477.352 72.6103 475.431 73.0904 473.911 73.8505C472.111 74.8506 471.111 76.5708 471.111 78.5711C471.111 82.1315 473.791 84.4518 477.872 84.4518ZM478.632 81.6515C476.191 81.6515 474.711 80.4513 474.711 78.4911C474.711 76.5308 475.991 75.4907 478.952 75.0506L484.393 74.2505V75.2506C484.393 79.1311 482.112 81.6515 478.632 81.6515Z" fill="white"/>
<path d="M509.448 63.6491C510.008 63.6491 510.488 63.7292 510.888 63.8092V60.8488C510.448 60.7288 510.008 60.6888 509.568 60.6888C506.887 60.6888 505.407 62.289 504.807 64.3292C503.687 63.8092 502.407 63.4891 500.887 63.4891C496.246 63.4891 493.486 66.3695 493.486 70.25C493.486 72.2102 494.166 73.8905 495.446 75.1306C493.766 75.7707 492.605 77.1309 492.605 79.1311C492.605 80.5713 493.246 81.8515 494.926 82.6116C492.806 83.2917 491.685 84.8919 491.685 86.7721C491.685 89.6125 493.646 92.2528 500.687 92.2528C507.647 92.2528 510.608 89.6525 510.608 85.892C510.608 82.2915 508.328 80.2513 503.807 80.2513H498.926C496.446 80.2513 495.606 79.3312 495.606 78.211C495.606 77.2909 496.206 76.6108 497.046 76.2508C498.126 76.7708 499.406 77.0909 500.887 77.0909C505.527 77.0909 508.287 74.1305 508.287 70.25C508.287 68.3698 507.647 66.7295 506.447 65.5294C506.927 64.2492 507.927 63.6491 509.448 63.6491ZM500.887 74.4905C498.326 74.4905 496.686 72.6903 496.686 70.25C496.686 67.8097 498.326 66.0895 500.887 66.0895C503.447 66.0895 505.087 67.8497 505.087 70.29C505.087 72.7303 503.447 74.4905 500.887 74.4905ZM503.047 83.2517C505.807 83.2517 507.207 84.2518 507.207 86.132C507.207 87.9323 505.967 89.4525 501.087 89.4525C497.486 89.4525 495.006 88.6524 495.006 86.1721C495.006 84.9719 495.686 83.8117 497.126 83.1717C497.646 83.2117 498.206 83.2517 498.806 83.2517H503.047Z" fill="white"/>
<path d="M530.515 72.5703C530.515 66.5695 527.395 63.4891 521.994 63.4891C516.274 63.4891 512.913 67.5296 512.913 74.2105C512.913 80.8114 516.314 84.4518 522.034 84.4518C526.075 84.4518 528.995 82.5316 530.395 78.8911L527.595 77.6509C526.715 80.0913 524.835 81.4514 522.274 81.4514C518.714 81.4514 516.354 78.8911 516.314 74.9706H530.515V72.5703ZM527.075 72.2102H516.314C516.394 68.4498 518.394 66.1695 521.914 66.1695C525.195 66.1695 527.075 68.0897 527.075 71.7702V72.2102Z" fill="white"/>
<path d="M538.632 76.5308H542.032V75.4107C542.032 73.4904 542.472 72.4903 543.672 71.3701L545.673 69.4899C547.553 67.7297 549.433 65.3294 549.433 62.489C549.433 57.6084 546.193 54.888 540.752 54.888C534.831 54.888 531.711 58.2484 531.711 62.889C531.711 63.3291 531.711 64.0092 531.911 65.0493L535.551 65.4894C535.311 64.3692 535.311 63.9292 535.311 63.3691C535.311 59.9287 537.512 58.0084 540.632 58.0084C543.832 58.0084 545.633 59.7686 545.633 62.489C545.633 65.0093 544.232 66.6095 542.872 67.8897L540.912 69.7299C538.712 71.7702 538.632 73.5304 538.632 74.8506V76.5308ZM538.272 83.9718H542.472V79.7312H538.272V83.9718Z" fill="white"/>
<rect x="0.5" y="0.5" width="604" height="134.939" rx="23.5" stroke="white" stroke-opacity="0.16"/>
<defs>
<linearGradient id="paint0_linear_991_560" x1="302.5" y1="0" x2="302.5" y2="135.939" gradientUnits="userSpaceOnUse">
<stop stop-color="#343434"/>
<stop offset="1" stop-color="#111308"/>
</linearGradient>
</defs>
</svg>
