<svg width="605" height="136" viewBox="0 0 605 136" fill="none" xmlns="http://www.w3.org/2000/svg">
<rect width="605" height="135.939" rx="24" fill="url(#paint0_linear_991_561)"/>
<rect x="32.0041" y="32.0041" width="71.9312" height="71.9312" rx="21.5766" fill="#DBFE52"/>
<path fill-rule="evenodd" clip-rule="evenodd" d="M80.4486 57.071L84.2633 60.8857L64.3732 80.7758L53.4744 69.8771L57.2892 66.0624L63.1016 71.8748C63.8039 72.5771 64.9425 72.5771 65.6448 71.8748L80.4486 57.071Z" fill="#0B0D01"/>
<path d="M131.939 83.9718H141.18C149.461 83.9718 154.742 78.011 154.742 69.7299C154.742 61.2889 149.421 55.5681 141.26 55.5681H131.939V83.9718ZM135.739 80.7714V58.7685H141.18C147.301 58.7685 150.701 63.4091 150.701 69.7299C150.701 75.8107 147.221 80.7714 141.1 80.7714H135.739Z" fill="white"/>
<path d="M175.938 72.5703C175.938 66.5695 172.818 63.4891 167.417 63.4891C161.697 63.4891 158.336 67.5297 158.336 74.2105C158.336 80.8114 161.737 84.4518 167.457 84.4518C171.498 84.4518 174.418 82.5316 175.818 78.8911L173.018 77.651C172.138 80.0913 170.258 81.4515 167.697 81.4515C164.137 81.4515 161.777 78.8911 161.737 74.9706H175.938V72.5703ZM172.498 72.2103H161.737C161.817 68.4498 163.817 66.1695 167.337 66.1695C170.618 66.1695 172.498 68.0897 172.498 71.7702V72.2103Z" fill="white"/>
<path d="M188.186 84.4518C193.067 84.4518 195.827 81.9315 195.827 78.3311C195.827 75.4107 194.227 73.5704 190.626 72.8904L186.746 72.1703C184.786 71.8102 183.666 71.0101 183.666 69.3299C183.666 67.3696 185.226 66.2495 187.786 66.2495C190.506 66.2495 192.067 67.6497 192.507 69.6499L195.867 68.8898C195.467 65.5294 192.427 63.4891 187.946 63.4891C183.226 63.4891 180.345 66.0495 180.345 69.4899C180.345 72.5303 182.265 74.4506 185.666 75.0906L189.586 75.8107C191.387 76.1308 192.467 76.8509 192.467 78.6111C192.467 80.3313 190.987 81.6515 188.306 81.6515C185.386 81.6515 183.506 80.2113 183.026 77.691L179.585 78.291C180.265 82.2516 183.466 84.4518 188.186 84.4518Z" fill="white"/>
<path d="M201.073 60.2487H204.954V55.9682H201.073V60.2487ZM201.313 83.9718H204.714V63.9692H201.313V83.9718Z" fill="white"/>
<path d="M227.263 63.6492C227.823 63.6492 228.303 63.7292 228.703 63.8092V60.8488C228.263 60.7288 227.823 60.6888 227.383 60.6888C224.702 60.6888 223.222 62.289 222.622 64.3292C221.502 63.8092 220.222 63.4891 218.702 63.4891C214.061 63.4891 211.301 66.3695 211.301 70.25C211.301 72.2103 211.981 73.8905 213.261 75.1306C211.581 75.7707 210.421 77.1309 210.421 79.1312C210.421 80.5713 211.061 81.8515 212.741 82.6116C210.621 83.2917 209.5 84.8919 209.5 86.7721C209.5 89.6125 211.461 92.2528 218.502 92.2528C225.463 92.2528 228.423 89.6525 228.423 85.892C228.423 82.2916 226.143 80.2513 221.622 80.2513H216.741C214.261 80.2513 213.421 79.3312 213.421 78.211C213.421 77.2909 214.021 76.6108 214.861 76.2508C215.941 76.7709 217.221 77.0909 218.702 77.0909C223.342 77.0909 226.103 74.1305 226.103 70.25C226.103 68.3698 225.463 66.7296 224.262 65.5294C224.742 64.2492 225.743 63.6492 227.263 63.6492ZM218.702 74.4906C216.141 74.4906 214.501 72.6903 214.501 70.25C214.501 67.8097 216.141 66.0895 218.702 66.0895C221.262 66.0895 222.902 67.8497 222.902 70.29C222.902 72.7303 221.262 74.4906 218.702 74.4906ZM220.862 83.2517C223.622 83.2517 225.022 84.2518 225.022 86.1321C225.022 87.9323 223.782 89.4525 218.902 89.4525C215.301 89.4525 212.821 88.6524 212.821 86.1721C212.821 84.9719 213.501 83.8118 214.941 83.1717C215.461 83.2117 216.021 83.2517 216.621 83.2517H220.862Z" fill="white"/>
<path d="M232.333 83.9718H235.734V73.5304C235.734 69.0899 237.774 66.4095 241.094 66.4095C244.015 66.4095 245.495 68.2097 245.495 71.7302V83.9718H248.895V71.5302C248.895 66.1695 246.615 63.4091 242.214 63.4091C239.054 63.4091 236.854 64.8893 235.534 67.9297V63.9692H232.333V83.9718Z" fill="white"/>
<path d="M262.892 66.7696H266.612V77.971C266.612 81.6915 267.732 84.3318 272.053 84.3318C273.333 84.3318 274.133 84.2118 275.013 83.9718V80.8514C274.333 81.0114 273.813 81.1314 272.933 81.1314C270.893 81.1314 270.013 80.1313 270.013 77.851V66.7696H275.013V63.9692H270.013V57.2883L266.612 58.7285V63.9692H262.892V66.7696Z" fill="white"/>
<path d="M280.196 83.9718H283.596V73.5304C283.596 69.0098 285.556 66.4095 288.997 66.4095C291.877 66.4095 293.357 68.2497 293.357 71.7702V83.9718H296.758V71.5302C296.758 66.2095 294.477 63.4091 290.157 63.4091C287.036 63.4091 284.796 64.8893 283.596 67.7297V54.968H280.196V83.9718Z" fill="white"/>
<path d="M319.16 72.5703C319.16 66.5695 316.04 63.4891 310.639 63.4891C304.918 63.4891 301.558 67.5297 301.558 74.2105C301.558 80.8114 304.958 84.4518 310.679 84.4518C314.719 84.4518 317.64 82.5316 319.04 78.8911L316.24 77.651C315.359 80.0913 313.479 81.4515 310.919 81.4515C307.358 81.4515 304.998 78.8911 304.958 74.9706H319.16V72.5703ZM315.72 72.2103H304.958C305.038 68.4498 307.038 66.1695 310.559 66.1695C313.839 66.1695 315.72 68.0897 315.72 71.7702V72.2103Z" fill="white"/>
<path d="M338.759 54.968H335.359V83.9718H338.759V54.968Z" fill="white"/>
<path d="M351.137 84.4518C354.417 84.4518 356.937 82.8916 357.857 80.3313C357.897 81.6115 358.017 82.9316 358.178 83.9718H361.738C361.258 82.4116 361.058 80.2913 361.058 77.2109V71.8102C361.058 65.9695 358.658 63.4891 353.177 63.4891C348.496 63.4891 345.296 66.1695 345.016 70.25H348.656C348.816 67.7297 350.497 66.2895 353.217 66.2895C356.297 66.2895 357.617 67.7697 357.617 71.4502V71.7702L353.897 72.2103C350.617 72.6103 348.696 73.0904 347.176 73.8505C345.376 74.8506 344.376 76.5708 344.376 78.5711C344.376 82.1315 347.056 84.4518 351.137 84.4518ZM351.897 81.6515C349.456 81.6515 347.976 80.4513 347.976 78.4911C347.976 76.5308 349.256 75.4907 352.217 75.0506L357.657 74.2505V75.2507C357.657 79.1312 355.377 81.6515 351.897 81.6515Z" fill="white"/>
<path d="M367.741 83.9718H371.142V73.5304C371.142 69.0899 373.182 66.4095 376.502 66.4095C379.423 66.4095 380.903 68.2097 380.903 71.7302V83.9718H384.303V71.5302C384.303 66.1695 382.023 63.4091 377.623 63.4091C374.462 63.4091 372.262 64.8893 370.942 67.9297V63.9692H367.741V83.9718Z" fill="white"/>
<path d="M397.229 84.4518C400.35 84.4518 402.51 82.9316 403.71 80.2513V83.9718H406.91V54.968H403.51V66.9296C402.23 64.5693 400.27 63.4891 397.629 63.4891C392.629 63.4891 389.108 67.8097 389.108 73.9705C389.108 80.2513 392.388 84.4518 397.229 84.4518ZM398.149 81.4515C394.749 81.4515 392.709 78.6511 392.709 73.9705C392.709 69.2499 394.749 66.4895 398.149 66.4895C401.51 66.4895 403.59 69.1699 403.59 73.5304V74.4506C403.59 78.7311 401.47 81.4515 398.149 81.4515Z" fill="white"/>
<path d="M414.07 60.2487H417.95V55.9682H414.07V60.2487ZM414.31 83.9718H417.71V63.9692H414.31V83.9718Z" fill="white"/>
<path d="M424.897 83.9718H428.297V73.5304C428.297 69.0899 430.338 66.4095 433.658 66.4095C436.579 66.4095 438.059 68.2097 438.059 71.7302V83.9718H441.459V71.5302C441.459 66.1695 439.179 63.4091 434.778 63.4091C431.618 63.4091 429.418 64.8893 428.097 67.9297V63.9692H424.897V83.9718Z" fill="white"/>
<path d="M463.426 63.6492C463.986 63.6492 464.466 63.7292 464.866 63.8092V60.8488C464.426 60.7288 463.986 60.6888 463.546 60.6888C460.866 60.6888 459.386 62.289 458.786 64.3292C457.665 63.8092 456.385 63.4891 454.865 63.4891C450.224 63.4891 447.464 66.3695 447.464 70.25C447.464 72.2103 448.144 73.8905 449.424 75.1306C447.744 75.7707 446.584 77.1309 446.584 79.1312C446.584 80.5713 447.224 81.8515 448.904 82.6116C446.784 83.2917 445.664 84.8919 445.664 86.7721C445.664 89.6125 447.624 92.2528 454.665 92.2528C461.626 92.2528 464.586 89.6525 464.586 85.892C464.586 82.2916 462.306 80.2513 457.785 80.2513H452.905C450.424 80.2513 449.584 79.3312 449.584 78.211C449.584 77.2909 450.184 76.6108 451.024 76.2508C452.105 76.7709 453.385 77.0909 454.865 77.0909C459.506 77.0909 462.266 74.1305 462.266 70.25C462.266 68.3698 461.626 66.7296 460.426 65.5294C460.906 64.2492 461.906 63.6492 463.426 63.6492ZM454.865 74.4906C452.305 74.4906 450.664 72.6903 450.664 70.25C450.664 67.8097 452.305 66.0895 454.865 66.0895C457.425 66.0895 459.066 67.8497 459.066 70.29C459.066 72.7303 457.425 74.4906 454.865 74.4906ZM457.025 83.2517C459.786 83.2517 461.186 84.2518 461.186 86.1321C461.186 87.9323 459.946 89.4525 455.065 89.4525C451.465 89.4525 448.984 88.6524 448.984 86.1721C448.984 84.9719 449.664 83.8118 451.105 83.1717C451.625 83.2117 452.185 83.2517 452.785 83.2517H457.025Z" fill="white"/>
<path d="M479.67 91.7728H483.07V80.8114C483.95 82.7716 486.111 84.4518 489.191 84.4518C494.032 84.4518 497.472 80.3713 497.472 73.9705C497.472 67.6497 494.232 63.4891 489.391 63.4891C486.471 63.4891 484.15 64.9293 482.87 67.6897V63.9692H479.67V91.7728ZM488.391 81.4515C485.07 81.4515 482.99 78.7311 482.99 74.4105V73.4504C482.99 69.1299 485.15 66.4895 488.511 66.4895C491.871 66.4895 493.872 69.2499 493.872 73.9705C493.872 78.6511 491.791 81.4515 488.391 81.4515Z" fill="white"/>
<path d="M507.641 84.4518C510.922 84.4518 513.442 82.8916 514.362 80.3313C514.402 81.6115 514.522 82.9316 514.682 83.9718H518.243C517.762 82.4116 517.562 80.2913 517.562 77.2109V71.8102C517.562 65.9695 515.162 63.4891 509.681 63.4891C505.001 63.4891 501.8 66.1695 501.52 70.25H505.161C505.321 67.7297 507.001 66.2895 509.721 66.2895C512.802 66.2895 514.122 67.7697 514.122 71.4502V71.7702L510.402 72.2103C507.121 72.6103 505.201 73.0904 503.681 73.8505C501.88 74.8506 500.88 76.5708 500.88 78.5711C500.88 82.1315 503.561 84.4518 507.641 84.4518ZM508.401 81.6515C505.961 81.6515 504.481 80.4513 504.481 78.4911C504.481 76.5308 505.761 75.4907 508.721 75.0506L514.162 74.2505V75.2507C514.162 79.1312 511.882 81.6515 508.401 81.6515Z" fill="white"/>
<path d="M539.217 63.6492C539.777 63.6492 540.257 63.7292 540.657 63.8092V60.8488C540.217 60.7288 539.777 60.6888 539.337 60.6888C536.657 60.6888 535.177 62.289 534.577 64.3292C533.456 63.8092 532.176 63.4891 530.656 63.4891C526.015 63.4891 523.255 66.3695 523.255 70.25C523.255 72.2103 523.935 73.8905 525.215 75.1306C523.535 75.7707 522.375 77.1309 522.375 79.1312C522.375 80.5713 523.015 81.8515 524.695 82.6116C522.575 83.2917 521.455 84.8919 521.455 86.7721C521.455 89.6125 523.415 92.2528 530.456 92.2528C537.417 92.2528 540.377 89.6525 540.377 85.892C540.377 82.2916 538.097 80.2513 533.576 80.2513H528.696C526.215 80.2513 525.375 79.3312 525.375 78.211C525.375 77.2909 525.975 76.6108 526.816 76.2508C527.896 76.7709 529.176 77.0909 530.656 77.0909C535.297 77.0909 538.057 74.1305 538.057 70.25C538.057 68.3698 537.417 66.7296 536.217 65.5294C536.697 64.2492 537.697 63.6492 539.217 63.6492ZM530.656 74.4906C528.096 74.4906 526.455 72.6903 526.455 70.25C526.455 67.8097 528.096 66.0895 530.656 66.0895C533.216 66.0895 534.857 67.8497 534.857 70.29C534.857 72.7303 533.216 74.4906 530.656 74.4906ZM532.816 83.2517C535.577 83.2517 536.977 84.2518 536.977 86.1321C536.977 87.9323 535.737 89.4525 530.856 89.4525C527.256 89.4525 524.775 88.6524 524.775 86.1721C524.775 84.9719 525.455 83.8118 526.896 83.1717C527.416 83.2117 527.976 83.2517 528.576 83.2517H532.816Z" fill="white"/>
<path d="M560.285 72.5703C560.285 66.5695 557.164 63.4891 551.764 63.4891C546.043 63.4891 542.683 67.5297 542.683 74.2105C542.683 80.8114 546.083 84.4518 551.804 84.4518C555.844 84.4518 558.765 82.5316 560.165 78.8911L557.364 77.651C556.484 80.0913 554.604 81.4515 552.044 81.4515C548.483 81.4515 546.123 78.8911 546.083 74.9706H560.285V72.5703ZM556.844 72.2103H546.083C546.163 68.4498 548.163 66.1695 551.684 66.1695C554.964 66.1695 556.844 68.0897 556.844 71.7702V72.2103Z" fill="white"/>
<path d="M569.382 79.2512H564.701V83.9718H569.382V79.2512Z" fill="white"/>
<rect x="0.5" y="0.5" width="604" height="134.939" rx="23.5" stroke="white" stroke-opacity="0.16"/>
<defs>
<linearGradient id="paint0_linear_991_561" x1="302.5" y1="0" x2="302.5" y2="135.939" gradientUnits="userSpaceOnUse">
<stop stop-color="#343434"/>
<stop offset="1" stop-color="#111308"/>
</linearGradient>
</defs>
</svg>
