<?xml version="1.0" encoding="UTF-8"?>
<svg id="Layer_2" data-name="Layer 2" xmlns="http://www.w3.org/2000/svg" viewBox="0 0 1278.76 345.01">
  <defs>
    <style>
      .cls-1 {
        fill-rule: evenodd;
      }

      .cls-1, .cls-2 {
        fill: #fff;
        stroke-width: 0px;
      }
    </style>
  </defs>
  <g id="Layer_1-2" data-name="Layer 1">
    <g>
      <path class="cls-2" d="M241.88,58c-11.76-11.45-19.59-26.78-22.52-43.62-.39-2.24-.69-4.52-.9-6.76V0h-59.43v235.85c-.09,27.47-22.44,49.74-49.95,49.74-8.1,0-15.72-1.94-22.48-5.34-16.86-8.48-27.49-25.74-27.47-44.61,0-27.56,22.35-49.95,49.95-49.95,5.3,0,10.38.82,15.16,2.33v-60.37c-4.95-.69-9.99-1.03-14.99-1.03C48.88,126.73,0,175.61,0,235.85c0,37.81,19.21,71.1,48.4,90.69,17.97,12.08,39.15,18.52,60.8,18.47,60.33,0,109.2-48.88,109.2-109.16v-120.53c24.01,17.18,52.81,26.39,82.33,26.35v-59.04c-9.09,0-18.09-1.46-26.61-4.35-5.99-2.02-17.31-5.64-32.3-20.28h.04Z"/>
      <path class="cls-1" d="M379.81,99.17v41.51h48.62v158.12h48.62v-157h39.57l13.56-42.63h-150.37ZM777.83,99.17v41.51h48.62v158.12h48.62v-157h39.57l13.56-42.63h-150.37ZM539.26,122.73c0-13,10.59-23.55,23.73-23.55s23.77,10.55,23.77,23.55-10.64,23.55-23.77,23.55-23.73-10.55-23.73-23.55h0ZM539.26,163.12h47.45v135.69h-47.45v-135.69ZM607.09,99.17v199.63h47.5v-51.59l14.68-13.48,46.33,66.19h50.9l-66.7-96.46,59.94-58.35h-57.66l-47.5,47.11v-93.1h-47.5v.04ZM1119.31,99.17v199.63h47.5v-51.59l14.68-13.48,46.38,66.19h50.9l-66.7-96.46,59.94-58.35h-57.66l-47.5,47.11v-93.1h-47.5l-.04.04ZM1008.47,299.93c45.6,0,82.55-36.65,82.55-81.86s-36.95-81.86-82.55-81.86h-1.12c-45.6,0-82.55,36.65-82.55,81.86s36.95,81.86,82.55,81.86h1.12ZM967.77,218.07c0-22,18-39.79,40.13-39.79s40.13,17.83,40.13,39.79-18,39.83-40.13,39.83-40.13-17.83-40.13-39.83h0Z"/>
    </g>
  </g>
</svg>