<?xml version="1.0" encoding="UTF-8"?>
<svg id="Layer_2" data-name="Layer 2" xmlns="http://www.w3.org/2000/svg" viewBox="0 0 1227.88 165.76">
  <defs>
    <style>
      .cls-1 {
        fill: #fff;
      }
    </style>
  </defs>
  <g id="Layer_1-2" data-name="Layer 1">
    <g id="a3ek9W">
      <g>
        <path class="cls-1" d="M53.21,0c4.45,3,10.5,3.56,15.75,5.74,40.71,16.87,45.74,58.96,49.79,97.55.22,2.14,1.76,4.18,1.92,6.26.55,7.09-.24,14.34.07,21.42h-57.3V56.28c-11.47-7.02-24.78-8.69-36.77-16.44C13.75,31.5,8.31,20.5,0,8.19V0h53.21Z"/>
        <path class="cls-1" d="M450.22,165.76V36.83s22.52,0,22.52,0c.07,3.05-.12,6.15,0,9.23.09,2.35-1.33,5.62,2.04,5.1,6.32-18.63,31.43-19.13,45.76-9.94,8.46,5.43,14.03,14.67,16.75,24.18,3.47,12.13,3.22,25.29.6,37.6-.5,2.33-5.27,11.31-6.88,13.58-9.75,13.71-29.97,21.2-45.41,12.79l-12.85-12.72v49.11h-22.52ZM488.43,55.61c-6.17,1.38-13.13,10.12-14.77,15.92-3.13,11.1-1.22,33.7,9.89,39.42,6.83,3.52,12.99,4.65,19.85.54,20.85-12.49,16.04-62.82-14.96-55.88Z"/>
        <path class="cls-1" d="M1227.88,71.63v18.42h-65.48c1.04,16.24,10.61,26.58,27.57,24.5,12.55-1.54,13.32-11.07,16.61-12.07l19.26,1.91c-.46,22.03-26.84,30.81-45.97,28.57-31.35-3.67-42.91-29.27-40.06-58.33,1.45-14.82,15.26-33.96,30.1-37.43,2.8-.66,13.64-2.57,16.02-2.57,2.03,0,11.75,1.94,13.93,2.61,12.57,3.9,26.56,19.24,26.39,32.87l1.64,1.53ZM1205.37,73.67c-3.86-27.39-37.5-25.79-42.98,0h42.98Z"/>
        <path class="cls-1" d="M176,0c.25,16.99-15.22,35.22-29.27,43.38-7.97,4.63-16.27,6.89-25.03,9.46-2.49-.15-10.56-22.54-13.53-26.97-2.54-3.78-10.01-8.82-10.05-12.56l3.43-4.86L122.79,0h53.21Z"/>
        <path class="cls-1" d="M425.67,0c4.38,3.3,9.67,9.56,7.97,15.11-13.59,21.3-37.97,3.15-20.25-15.11h12.28Z"/>
        <path class="cls-1" d="M771.52,94.14l4.03-3.08,22.46-84.01c4.83-1.1,21.53-2.47,23.74,1.04,8.19,25.14,12.2,52.97,20.34,77.89,1.01,3.08,1.29,7.3,5.14,8.16l20.53-87.94,26.54-.05-36.71,123.93c-4.97,1.05-21.29,2.53-23.73-1.07-6.36-21.22-11.53-42.85-17.77-64.09-1.51-5.14-2.74-8.79-4.09-14.33-.46-1.89-1.04-6.11-3.64-5.56l-22.84,82.56-2.95,3.19h-20.07s-2.94-3.2-2.94-3.2l-33.07-121.43c5.49.93,23.1-2.13,25.68,1.94l19.34,86.05Z"/>
        <path class="cls-1" d="M927.05,6.14v45.02l7.14-8.21c2.83-1.26,6.01-4.94,8.57-5.75,7.15-2.28,16.83-1.84,24.2-.37,6.07,1.22,15.76,10.73,18.36,16.43.58,1.27,3.12,8.67,3.12,9.16v68.56h-22.51v-58.32c0-.49-2.58-8.27-3.06-9.22-4.95-9.8-21.75-9.85-29.68-3.05-1,.86-6.14,9.63-6.14,10.23v60.37h-22.51V6.14h22.51Z"/>
        <path class="cls-1" d="M1084.63,130.97h-22.52s-1.02-10.23-1.02-10.23c-10.51,15.32-38.11,16.16-51.25,4.17-9.53-8.69-10.83-31.17-.85-39.9,13-11.37,35.25-9.04,50.95-13.52,5.01-23.21-26.59-24.85-32.72-6.06-5.77-3.2-16.06-.43-20.4-2.99-3.36-1.98-.89-2.55-.37-4.52,1.55-5.89,8.74-13.34,14-16.72,15.28-9.82,46.64-8.54,58.07,6.84,1.41,1.9,6.11,11.12,6.11,12.31v70.6ZM1060.07,88c-7.78,2.6-31.77,2.15-34.51,11.52-1.75,5.98-.17,14.13,6.85,15.12,20.87,2.95,30.37-5.45,27.66-26.64Z"/>
        <path class="cls-1" d="M679.43,90.04h-65.49c.41,25.15,32.24,35.18,44.12,12.17,3.75-.77,6.94,1.67,10.18,2.09,3.19.42,13.09-1.93,11.17,3.11-9.66,25.38-40.99,31.11-64,21.07-24.93-10.88-29.91-48.35-18.29-70.61,3.98-7.63,15.93-18.59,24.33-20.69,4.67-1.17,10.94-.4,16.02-2.57,30.69,2.24,45.57,25.9,41.95,55.42ZM656.92,73.67c.44-15.66-15.12-23.87-29.21-17.96-8.42,3.53-10.73,9.7-13.77,17.96h42.98Z"/>
        <path class="cls-1" d="M339.71,6.14c-.24,4.11,1.49,20.46-3.07,20.46h-35.81v104.37h-24.56V26.6h-35.81c-4.56,0-2.83-16.36-3.07-20.46h102.32Z"/>
        <rect class="cls-1" x="1101" y="6.14" width="24.56" height="124.83"/>
        <path class="cls-1" d="M366.32,130.97h-22.51V36.84h22.52s1.02,12.28,1.02,12.28c1.54,0,1.31-3.34,2.99-5.19,5.56-6.11,10.95-8.72,19.46-9.24,11.25-.68,10.1,6.41,9.34,15.52-1.02,12.31-12.51,4.36-22,8.69-4.07,1.86-10.81,9.73-10.81,13.75v58.32Z"/>
        <rect class="cls-1" x="554.59" y="6.14" width="22.51" height="124.83"/>
        <rect class="cls-1" x="407.25" y="36.84" width="24.56" height="94.14"/>
      </g>
    </g>
  </g>
</svg>