<?xml version="1.0" encoding="UTF-8"?>
<svg id="Layer_2" data-name="Layer 2" xmlns="http://www.w3.org/2000/svg" viewBox="0 0 1206.59 241.14">
  <defs>
    <style>
      .cls-1 {
        fill: #fff;
      }
    </style>
  </defs>
  <g id="Layer_1-2" data-name="Layer 1">
    <g id="_7hgfXh.tif" data-name="7hgfXh.tif">
      <g>
        <path class="cls-1" d="M0,44.11c3.15-5.49,4.53-11.59,7.86-17.18C27.56-6.09,76.47-9.38,100.55,20.59c25.73,32.03,4.2,65.07-11.91,95.8-8.07,15.39-23.23,36.47-28.55,51.93-.72,2.11-.5,5.89-.69,6.14-2.26,2.85-2.72-1.18-3.32-1.98-17.35-23.25-30.48-50.12-44.68-75.3L0,66.84v-22.73Z"/>
        <path class="cls-1" d="M1115.02,241.14c-5.48-4.01-8.39-7.13-7.58-14.36l17.86-42.48-51.43-113.71c-.86-6.26,5.36-13.53,11.47-14.35,3.63-.49,13.02-.51,16.48.25,8.17,1.78,12.42,15.48,15.51,22.46,8.29,18.68,14.76,38.45,23.56,56.89.7,1.46.83,3.59,3.08,3.75,7.47-26.15,17.87-51.51,26.69-77.27,4.36-7.4,16.65-6.85,24.4-6.15,9.42.85,12.85,8.58,11.11,17.24-14.46,35.37-30.11,70.27-44.7,105.57-7,16.94-12.97,37.51-20.88,53.48-2.65,5.34-4.12,5.46-8.8,8.68h-16.76Z"/>
        <path class="cls-1" d="M188.46,5.04c37.31-5.21,67.96,31.08,52.99,66.36-25.87,43.65-49.21,89.07-75.66,132.36-9.14,14.97-18.49,27.81-37.38,31.01-38.64,6.55-66.95-32.68-51.5-67.92,9.73-22.21,26.27-45.24,37.63-67.14,9.3-17.93,14.65-33.77,25.84-51.58,11.72-18.65,24.11-39.75,48.08-43.1Z"/>
        <path class="cls-1" d="M892.94,181.72l-4.12-10.3c-16.99,16.08-42.55,22.24-63.73,10.36-43.74-24.56-44.11-99.35.98-122.81,20.29-10.55,47.78-6.82,62.75,10.89,3-1.83,1.76-5.06,3.03-7.59,3.82-7.65,21.89-7.94,28.15-3.72,4.14,2.8,5.63,7.18,6.21,12.01l-.37,102.81c-.84,4.8-4.85,10.33-9.85,11.42-5.48,1.2-19.09,1.02-23.03-3.08ZM858.64,83.85c-2.89,1.69-6.3.71-9.16,1.44-9.26,2.34-19.58,15.44-20.78,24.79-3.54,27.39,7.75,50.69,38.79,46.17,5.84-.85,14.05-8.27,17.32-13.08,7.24-10.7,8.09-28.61,2.93-40.38-5.29-12.06-16.12-18.2-29.08-18.94Z"/>
        <path class="cls-1" d="M682.1,59.57c1.24,1.29,3.22,7.32,3.42,9.48,2.02,21.32-2.69,46.94.28,67.93,4.15,29.38,43.95,25.97,48.1,1.55,3.44-20.26-1.69-48.18.24-69.48.53-5.85,5.5-11.99,11.5-12.81,9.78-1.32,22.73-.92,23.66,11.29-2.47,34.24,3.08,72.48,0,106.22-.51,5.6-4.15,10.5-9.98,11.29-13.5,1.83-25.59-.52-23.6-16.66l-6.83,7.59c-30.41,23.58-72.76,11.92-78.41-28.11l-.04-81.78c.58-4.2,4.46-8.7,8.63-9.6,5.48-1.2,19.1-1.02,23.03,3.08Z"/>
        <path class="cls-1" d="M622.71,90.78c-.29.28-6.13,2.98-6.82,3.14-7.93,1.8-22.02-12.38-33.18-13.5-10.13-1.01-24.38,1.02-20.41,14.26,2.43,8.1,32.09,13.86,40.46,17.33,11.88,4.93,24.53,12.98,26.32,26.86,6.47,50.19-61.84,61.2-94.32,36.26-8.11-6.23-13.5-12.6-7.5-22.46,3.9-6.41,13.46-7.84,20.05-5.18,4.91,1.98,9.33,7.77,14.36,9.96,7.87,3.42,25.91,6.27,31.62-1.23,3.43-4.5,3.39-11.63-1.65-14.95-7.41-4.89-26.85-7.81-36.69-11.99-22.15-9.41-35.74-29.21-23.6-52.88,14.5-28.28,57.1-26.65,82.11-14.44,9.31,4.55,19.45,11.85,13.35,23.03-.27.5-3.83,5.54-4.08,5.79Z"/>
        <path class="cls-1" d="M383.86,139.59c2.08.43,1.67-1.54,2.25-3.04,9.51-24.59,17.75-49.69,27.49-74.21,4.61-7.8,21.57-8.17,28.08-3.78,8.37,5.65,5.33,12.66,2.35,20.42-12.61,32.84-30.59,65-43.1,98.07-2.61,4.56-6.29,7.58-11.7,8.07-7.75.7-18.75,1.33-22.48-6.55l-43.58-103.65c-1.67-9.09.78-17.82,11.1-18.75,6.86-.62,16.84-1.19,21.35,4.64,10.53,25.72,19.4,52.36,28.22,78.77Z"/>
        <path class="cls-1" d="M1026.17,4.96c12.19-2.66,24.93.28,26.35,14.18l.1,150.07c-.71,7.07-3.48,14.75-11.5,15.84-3.07.42-13.98.56-16.54-.19-2.72-.79-8.27-7.94-8.57-11.18l-.08-154.64c.31-5.85,4.22-12.77,10.22-14.08Z"/>
        <path class="cls-1" d="M985.23,181.72c-3.93,4.1-17.55,4.27-23.03,3.08-4.17-.91-8.05-5.41-8.63-9.6V14.57c1.96-13.62,32.83-14.37,35.01,1.51l.08,156.16c-.21,2.17-2.19,8.2-3.42,9.48Z"/>
        <path class="cls-1" d="M473.24,58.02c3.97-.85,18.35-.85,22.31,0,4.03.87,6.42,4.16,7.11,8.08l.08,109.17c.13,3.07-2.68,8.75-5.6,9.59-2.44.7-23.04.7-25.49,0s-5.17-5.56-5.52-8.15v-110.61c.69-3.92,3.08-7.22,7.11-8.08Z"/>
        <path class="cls-1" d="M477.8,3.45c6.71-1.46,17.77-.71,23.31,3.56,4.69,3.62,6.79,12.39,6.08,18.11-1.76,14.23-17.3,17.48-29.61,15.91-12.36-1.58-18.12-15.48-12.69-26.18,1.57-3.1,9.57-10.68,12.91-11.4Z"/>
      </g>
    </g>
  </g>
</svg>