<?xml version="1.0" encoding="UTF-8"?>
<svg id="Layer_2" data-name="Layer 2" xmlns="http://www.w3.org/2000/svg" viewBox="0 0 1278.76 211.91">
  <defs>
    <style>
      .cls-1 {
        fill: #fff;
        stroke-width: 0px;
      }
    </style>
  </defs>
  <g id="Layer_1-2" data-name="Layer 1">
    <g id="QnVdZA.tif">
      <g>
        <path class="cls-1" d="M0,0h90.41c.2,2.5.51,4.56.52,6.63.04,20.56,0,41.12.05,61.68,0,2.04.33,4.08,1.34,6.37,5.53-7.51,9.13-15.9,13.27-23.98,4.31-8.41,8.45-16.92,12.68-25.37,4.15-8.29,8.31-16.57,12.52-24.95h68.79v73.45c.5.18.99.37,1.49.55,1.06-1.42,2.32-2.74,3.13-4.29,11.24-21.45,22.42-42.93,33.63-64.4.91-1.75,1.91-3.46,2.94-5.32h100.31c-36.32,70.74-72.4,141.02-108.46,211.24h-101.8c15.14-29.26,29.97-57.93,44.8-86.59-.42-.32-.85-.63-1.27-.95-.97.89-2.07,1.68-2.89,2.7-38.3,47.62-89.13,72.74-148.69,82.13-7.55,1.19-15.16,2.02-22.74,3.02,0-28.85,0-57.7,0-86.56,9.47-1.65,19.11-2.67,28.37-5.09,18.04-4.71,34.72-12.43,48.69-25.13,1.23-1.12,2.23-2.48,4.1-4.59H0V0Z"/>
        <path class="cls-1" d="M557.17,188.85h-29.54c-11.46-33.98-22.97-68.08-34.47-102.17-.32-.06-.64-.12-.95-.18-10.57,34.09-21.13,68.18-31.73,102.36h-29.85c-15.51-52.53-31.03-105.06-46.7-158.13h34.29c9.77,35.47,19.58,71.09,29.4,106.72.24,0,.47.01.71.02,10.4-35.51,20.8-71.01,31.26-106.76h28.73c11.24,34.68,22.54,69.51,33.83,104.35.29,0,.59,0,.88.01,9.39-34.78,18.78-69.55,28.17-104.35h31.49c-15.26,53.02-30.37,105.52-45.51,158.12Z"/>
        <path class="cls-1" d="M1206.59,70.27c7.12,23.42,14.26,46.93,21.41,70.43.36.03.72.06,1.07.09,6.45-23.42,12.9-46.84,19.41-70.5h30.28c-11.92,39.69-23.7,78.89-35.58,118.41h-28.89c-8.06-24.12-16.17-48.39-24.27-72.66-.35-.05-.69-.1-1.04-.15-7.54,24.3-15.07,48.61-22.62,72.94h-29.21c-11.79-39.34-23.55-78.55-35.49-118.39h33.43c6.64,24.07,13.26,48.02,19.87,71.97.35,0,.69.02,1.04.02,7.1-23.99,14.19-47.98,21.35-72.16h29.24Z"/>
        <path class="cls-1" d="M755.14,82.82c1.11-.52,1.62-.62,1.91-.93,21.99-23.83,72.86-19.77,88.41,21.31,7.11,18.78,6.71,37.74-1.58,56.07-15.94,35.2-61.35,42.09-86.31,17.08-.46-.46-.99-.85-2.29-1.97v14.38h-29.78V20.64h29.64v62.19ZM818.96,129.1c-.48-11.57-3.36-22.23-13.63-29.35-13.84-9.59-34.03-5.95-44.12,7.75-6.41,8.71-7.81,18.5-5.97,28.83,2.13,12,8.97,20.63,20.31,25.13,11.15,4.43,21.99,3.23,31.49-4.36,8.85-7.07,11.47-17.06,11.92-28.01Z"/>
        <path class="cls-1" d="M621.59,137.2c-.2,13.05,8.56,24.19,21.16,27.96,15.4,4.61,28.94-.9,38.72-15.88h30.86c-.52,2.03-.82,3.75-1.39,5.38-2.93,8.28-7.64,15.41-14.19,21.3-21.39,19.22-58.13,21.49-81.57,4.79-16.24-11.57-24.14-27.7-25.09-47.42-.87-18.08,4.19-34.11,16.94-47.21,14.85-15.26,33.28-20.41,54.16-17.98,13.26,1.55,25.17,6.26,34.78,15.65,14.89,14.55,19.22,32.63,17.22,53.42h-91.59ZM681.73,116.09c-2.17-15.06-14.6-24.78-30.18-23.88-15.37.88-28.41,11.51-28.96,23.88h59.14Z"/>
        <path class="cls-1" d="M1043.49,191.46c-32.57-.05-55.38-16.2-63.24-42.44-8.17-27.27,1.35-56.25,23.3-71.02,26.95-18.13,71.92-13.52,90.65,17.73,17.06,28.46,10.53,72.08-23.21,88.91-9.7,4.84-19.98,7.01-27.5,6.82ZM1072.65,129.59c-1.28-5.42-1.95-11.07-3.96-16.21-4.64-11.9-15.26-18.33-28.72-18.14-13.25.18-22.9,6.01-28.14,18.33-3.62,8.51-3.96,17.4-1.81,26.27,6.62,27.33,36.49,29.29,50.73,17.04,8.25-7.1,11.17-16.53,11.91-27.29Z"/>
        <path class="cls-1" d="M902.12,70h21.57v25.31h-22.47v93.47h-30.09v-93.14h-18.71v-25.51h18.35c1.28-18.05,7.82-32.64,23.5-41.9,9.5-5.61,21.44-8.39,30.26-6.96v25.6c-7.24.99-14.71,2.32-18.81,9.21-2.29,3.84-3.37,8.39-5,12.62.46.44.93.87,1.39,1.31Z"/>
        <path class="cls-1" d="M965.52,188.88h-29.38V20.41h29.38v168.47Z"/>
      </g>
    </g>
  </g>
</svg>