<svg width="40" height="40" viewBox="0 0 40 40" fill="none" xmlns="http://www.w3.org/2000/svg">
<path d="M28.9189 15.8579C28.9189 15.8579 26.4865 23.2062 26.2883 23.8128C26.2162 23.1889 24.4324 10 24.4324 10C20.2883 10 18.0721 12.8423 16.9009 15.8406C16.9009 15.8406 13.9459 23.2062 13.6937 23.8302C13.6757 23.2582 13.2432 15.9272 13.2432 15.9272C12.991 12.253 9.49548 10.0173 6.66666 10.0173L10.0901 30C14.4324 29.9827 16.7747 27.1577 18 24.1594C18 24.1594 20.6126 17.6603 20.7207 17.3657C20.7387 17.643 22.5946 30 22.5946 30C26.955 30 29.2973 27.3484 30.5585 24.4541L36.6667 10.0173C32.3603 10.0173 30.0901 12.8423 28.9189 15.8579Z" fill="#525DFE"/>
</svg>
