<?xml version="1.0" encoding="UTF-8"?>
<svg id="Layer_2" data-name="Layer 2" xmlns="http://www.w3.org/2000/svg" viewBox="0 0 600.82 98.73">
  <defs>
    <style>
      .cls-1 {
        fill: #fff;
      }
    </style>
  </defs>
  <g id="Layer_1-2" data-name="Layer 1">
    <g>
      <path class="cls-1" d="M63.75,75.64c25.73-9.72,78.22-29.54,99.02-37.21,28.03-10.34,33.63-20.86,33.63-20.86L208.51,0H73.77l-16.86,24.64h76.87c-27.59,10.42-68.82,25.96-86.67,32.54-28.03,10.34-33.63,20.86-33.63,20.86L0,98.73h141.01l15.76-23.06-92.14-.02h-.88Z"/>
      <path class="cls-1" d="M451.39,5.78c-1.05-3.42-5.1-5.37-11.91-5.78h-158.91l-67.42,98.73h33.55l50.63-74.09h39.63l-50.64,74.09h33.54l50.64-74.09h39.92l-50.58,74.09h33.46l52.98-77.5c4.42-6.55,6.15-11.76,5.13-15.45Z"/>
      <path class="cls-1" d="M600.53,5.78c-1.05-3.42-5.1-5.37-11.91-5.78h-105.53l-67.48,98.73h33.54l17.69-25.88h59.81l-17.67,25.88h33.46l52.98-77.5c4.42-6.55,6.15-11.76,5.13-15.45ZM543.46,48.22h-59.79l16.11-23.58h59.77l-16.1,23.58Z"/>
      <polygon class="cls-1" points="226.66 0 159.2 98.73 192.78 98.73 260.29 0 226.66 0"/>
    </g>
  </g>
</svg>